M48
; DRILL file KiCad 10.0.0-10.0.0~ubuntu24.04.1 date 2026-04-13T18:02:47
; FORMAT={-:-/ absolute / metric / decimal}
; #@! TF.CreationDate,2026-04-13T18:02:47+02:00
; #@! TF.GenerationSoftware,Kicad,Pcbnew,10.0.0-10.0.0~ubuntu24.04.1
; #@! TF.FileFunction,Plated,1,4,PTH
FMAT,2
METRIC
; #@! TA.AperFunction,Plated,PTH,ViaDrill
T1C0.300
; #@! TA.AperFunction,Plated,PTH,ComponentDrill
T2C0.600
; #@! TA.AperFunction,Plated,PTH,ComponentDrill
T3C0.650
; #@! TA.AperFunction,Plated,PTH,ComponentDrill
T4C0.800
; #@! TA.AperFunction,Plated,PTH,ComponentDrill
T5C0.890
; #@! TA.AperFunction,Plated,PTH,ComponentDrill
T6C1.000
; #@! TA.AperFunction,Plated,PTH,ComponentDrill
T7C1.000
; #@! TA.AperFunction,Plated,PTH,ComponentDrill
T8C1.100
; #@! TA.AperFunction,Plated,PTH,ComponentDrill
T9C1.400
; #@! TA.AperFunction,Plated,PTH,ComponentDrill
T10C1.570
; #@! TA.AperFunction,Plated,PTH,ComponentDrill
T11C2.700
%
G90
G05
T1
X99.8Y-106.25
X99.8Y-107.0
X99.8Y-107.75
X99.8Y-108.5
X100.0Y-83.0
X100.0Y-84.0
X100.0Y-123.8
X100.0Y-124.4
X100.0Y-125.0
X100.0Y-125.6
X100.0Y-130.0
X100.0Y-131.0
X100.6Y-106.25
X100.6Y-107.0
X100.6Y-107.75
X100.6Y-108.5
X100.75Y-125.0
X100.75Y-125.6
X100.8Y-117.6
X100.8Y-119.6
X100.8Y-121.6
X101.0Y-83.0
X101.0Y-131.0
X103.316Y-101.239
X103.316Y-101.989
X103.316Y-102.739
X103.316Y-103.489
X103.95Y-106.05
X103.95Y-106.75
X103.95Y-107.45
X103.95Y-108.1
X103.95Y-108.8
X104.0Y-101.25
X104.0Y-102.0
X104.0Y-102.75
X104.0Y-103.5
X104.2Y-111.41
X104.65Y-106.05
X104.65Y-106.75
X104.65Y-107.45
X104.65Y-108.1
X104.65Y-108.8
X105.0Y-83.0
X105.15Y-113.3
X105.15Y-114.05
X105.15Y-114.8
X105.35Y-106.05
X105.35Y-106.75
X105.35Y-107.45
X105.35Y-108.1
X105.35Y-108.8
X105.9Y-113.3
X105.9Y-114.05
X105.9Y-114.8
X106.0Y-83.0
X106.0Y-84.0
X106.0Y-85.0
X106.0Y-87.0
X106.65Y-113.3
X106.65Y-114.05
X106.65Y-114.8
X107.0Y-83.0
X107.0Y-84.0
X107.0Y-85.0
X107.0Y-86.0
X107.0Y-87.0
X107.0Y-93.0
X107.0Y-93.75
X107.0Y-94.5
X107.0Y-95.25
X107.4Y-113.3
X107.4Y-114.05
X107.4Y-114.8
X107.75Y-93.0
X107.75Y-93.75
X107.75Y-94.5
X107.75Y-95.25
X108.15Y-113.3
X108.15Y-114.05
X108.15Y-114.8
X108.4Y-109.4
X108.5Y-93.0
X108.5Y-93.75
X108.5Y-94.5
X108.5Y-95.25
X108.9Y-113.3
X108.9Y-114.05
X108.9Y-114.8
X109.075Y-110.55
X109.25Y-93.0
X109.25Y-93.75
X109.25Y-94.5
X109.25Y-95.25
X109.875Y-106.87
X110.0Y-93.0
X110.0Y-93.75
X110.0Y-94.5
X110.0Y-95.25
X110.196Y-110.696
X110.75Y-93.0
X110.75Y-93.75
X110.75Y-94.5
X110.75Y-95.25
X111.1Y-108.9
X111.5Y-93.0
X111.5Y-93.75
X111.5Y-94.5
X111.5Y-95.25
X115.0Y-87.0
X115.0Y-89.0
X115.5Y-93.0
X115.5Y-93.75
X115.5Y-94.5
X115.5Y-95.25
X116.25Y-93.0
X116.25Y-93.75
X116.25Y-94.5
X116.25Y-95.25
X117.0Y-87.0
X117.0Y-89.0
X117.0Y-93.0
X117.0Y-93.75
X117.0Y-94.5
X117.0Y-95.25
X117.75Y-93.0
X117.75Y-93.75
X117.75Y-94.5
X117.75Y-95.25
X118.5Y-93.0
X118.5Y-93.75
X118.5Y-94.5
X118.5Y-95.25
X119.0Y-87.0
X119.0Y-89.0
X121.0Y-87.0
X121.0Y-89.0
X121.0Y-91.0
X121.0Y-93.0
X121.0Y-95.0
X121.0Y-97.0
X121.0Y-116.0
X121.0Y-116.75
X121.0Y-117.5
X121.0Y-118.25
X121.0Y-119.0
X121.0Y-119.75
X121.75Y-116.0
X121.75Y-116.75
X121.75Y-117.5
X121.75Y-118.25
X121.75Y-119.0
X121.75Y-119.75
X122.5Y-116.0
X122.5Y-116.75
X122.5Y-117.5
X122.5Y-118.25
X122.5Y-119.0
X122.5Y-119.75
X123.0Y-87.0
X123.0Y-89.0
X123.0Y-95.0
X123.0Y-97.0
X123.0Y-110.0
X123.0Y-111.0
X123.25Y-106.5
X123.25Y-116.0
X123.25Y-116.75
X123.25Y-117.5
X123.25Y-118.25
X123.25Y-119.0
X123.25Y-119.75
X123.95Y-106.5
X124.0Y-110.0
X124.0Y-111.0
X124.0Y-116.0
X124.0Y-116.75
X124.0Y-117.5
X124.0Y-118.25
X124.0Y-119.0
X124.0Y-119.75
X124.65Y-106.5
X124.75Y-116.0
X124.75Y-116.75
X124.75Y-117.5
X124.75Y-118.25
X124.75Y-119.0
X124.75Y-119.75
X125.0Y-87.0
X125.0Y-89.0
X125.0Y-93.0
X125.0Y-95.0
X125.0Y-97.0
X125.0Y-110.0
X125.0Y-111.0
X125.35Y-106.5
X126.0Y-110.0
X126.0Y-111.0
X130.25Y-103.75
X130.25Y-104.5
X130.25Y-105.25
X130.25Y-106.0
X130.25Y-106.75
X130.25Y-107.5
X130.25Y-108.25
X130.25Y-109.0
X131.0Y-103.75
X131.0Y-104.5
X131.0Y-105.25
X131.0Y-106.0
X132.582Y-102.219
X132.816Y-98.072
X134.0Y-113.0
X135.837Y-107.539
X136.0Y-110.8
X136.15Y-103.3
X136.4Y-109.6
X137.25Y-101.578
X137.95Y-100.878
X138.6Y-109.975
X138.75Y-100.178
X138.8Y-94.7
X139.15Y-110.75
X139.2Y-99.5
X139.405Y-103.902
X139.75Y-83.4
X139.75Y-84.15
X139.75Y-84.9
X139.8Y-104.8
X139.8Y-115.8
X140.0Y-120.0
X140.0Y-121.0
X140.41Y-105.11
X140.5Y-83.4
X140.5Y-84.15
X140.5Y-84.9
X140.834Y-115.782
X141.0Y-101.6
X141.0Y-120.0
X141.0Y-121.0
X141.25Y-83.4
X141.25Y-84.15
X141.25Y-84.9
X141.4Y-107.115
X141.584Y-115.782
X141.9Y-106.7
X142.0Y-83.4
X142.0Y-84.15
X142.0Y-84.9
X142.0Y-120.0
X142.0Y-121.0
X142.4Y-115.8
X142.6Y-99.6
X142.75Y-83.4
X142.75Y-84.15
X142.75Y-84.9
X143.0Y-120.0
X143.0Y-130.0
X143.026Y-109.66
X143.4Y-106.2
X143.5Y-83.4
X143.5Y-84.15
X143.5Y-84.9
X143.8Y-95.3
X144.0Y-99.0
X144.0Y-105.6
X144.0Y-120.0
X144.0Y-129.0
X144.0Y-130.0
X144.25Y-83.4
X144.25Y-84.15
X144.25Y-84.9
X145.0Y-83.4
X145.0Y-84.15
X145.0Y-84.9
X145.0Y-130.0
X145.054Y-99.946
X145.2Y-106.5
X145.65Y-97.25
X145.7Y-98.9
X145.75Y-83.4
X145.75Y-84.15
X145.75Y-84.9
X146.2Y-103.2
X146.5Y-83.4
X146.5Y-84.15
X146.5Y-84.9
X146.7Y-114.5
X146.9Y-109.5
X147.0Y-106.7
X147.25Y-83.4
X147.25Y-84.15
X147.25Y-84.9
X147.3Y-102.7
X147.5Y-106.0
X147.5Y-107.7
X147.674Y-103.979
X147.75Y-113.4
X148.0Y-83.4
X148.0Y-84.15
X148.0Y-84.9
X148.1Y-95.4
X148.1Y-115.4
X148.5Y-106.9
X148.5Y-113.4
X148.528Y-110.28
X149.5Y-106.4
X149.5Y-114.0
X149.8Y-100.3
X149.8Y-101.25
X149.8Y-111.0
X150.0Y-113.4
X150.0Y-118.0
X150.0Y-119.0
X150.0Y-120.0
X150.0Y-121.0
X150.2Y-105.4
X150.3Y-100.8
X150.6Y-110.5
X150.735Y-104.094
X150.9Y-108.12
X151.0Y-118.0
X151.0Y-119.0
X151.0Y-120.0
X151.0Y-121.0
X151.006Y-109.992
X151.6Y-107.6
X151.896Y-108.196
X151.9Y-113.367
X152.0Y-119.0
X152.0Y-120.0
X152.0Y-121.0
X152.6Y-112.0
X152.75Y-99.55
X153.0Y-83.0
X153.0Y-84.0
X153.0Y-120.0
X153.018Y-111.489
X153.6Y-111.2
X154.0Y-83.0
X154.0Y-84.0
X154.2Y-110.6
X154.3Y-106.6
X155.0Y-83.0
X155.0Y-84.0
X155.35Y-114.15
X155.5Y-106.25
X156.0Y-83.0
X156.0Y-84.0
X156.141Y-108.996
X156.7Y-115.5
X156.766Y-108.36
X156.9Y-103.7
X157.0Y-83.0
X157.0Y-84.0
X157.0Y-111.5
X157.55Y-117.25
X157.65Y-99.0
X157.75Y-111.0
X158.0Y-83.0
X158.0Y-84.0
X158.4Y-122.8
X158.4Y-125.8
X158.4Y-131.0
X158.5Y-110.25
X158.55Y-105.6
X158.8Y-111.75
X159.0Y-83.0
X159.0Y-84.0
X159.2Y-118.2
X159.4Y-109.0
X160.0Y-83.0
X160.0Y-84.0
X160.6Y-109.4
X160.7Y-112.3
X161.0Y-83.0
X161.0Y-84.0
X161.303Y-115.449
X161.4Y-102.4
X161.9Y-114.4
X162.0Y-83.0
X162.0Y-84.0
X162.1Y-115.825
X162.1Y-116.575
X162.245Y-117.31
X162.7Y-97.1
X163.0Y-83.0
X163.0Y-84.0
X163.0Y-104.5
X163.0Y-105.4
X163.0Y-110.4
X163.2Y-112.2
X163.613Y-115.433
X164.0Y-83.0
X164.0Y-84.0
X164.643Y-105.862
X164.65Y-109.5
X164.7Y-108.4
X164.8Y-99.1
X165.0Y-83.0
X165.4Y-102.3
X165.65Y-105.5
X166.6Y-120.2
X167.0Y-119.0
X167.0Y-127.0
X167.0Y-128.0
X167.246Y-118.302
X167.3Y-108.3
X167.42Y-120.329
X167.5Y-104.5
X167.8Y-109.5
X168.0Y-105.2
X168.0Y-115.412
X168.0Y-127.0
X168.0Y-128.0
X168.4Y-109.8
X168.7Y-103.6
X168.877Y-108.537
X169.0Y-127.0
X169.0Y-128.0
X169.3Y-112.1
X170.0Y-109.0
X170.0Y-119.0
X170.0Y-127.0
X170.0Y-128.0
X170.2Y-117.6
X170.6Y-103.6
X170.935Y-116.865
X171.0Y-99.0
X171.0Y-120.0
X171.0Y-127.0
X171.0Y-128.0
X171.055Y-105.731
X171.465Y-116.335
X172.0Y-86.0
X172.0Y-87.0
X172.0Y-88.0
X172.0Y-89.0
X172.0Y-120.0
X172.2Y-114.2
X172.236Y-109.42
X172.5Y-103.6
X172.955Y-105.731
X173.0Y-86.0
X173.0Y-87.0
X173.0Y-88.0
X173.0Y-94.0
X173.0Y-120.0
X173.0Y-122.0
X173.0Y-123.0
X173.7Y-116.3
X174.0Y-86.0
X174.0Y-87.0
X174.0Y-88.0
X174.0Y-94.0
X174.0Y-120.0
X174.0Y-122.0
X174.0Y-123.0
X174.9Y-97.95
X175.0Y-86.0
X175.0Y-87.0
X175.0Y-88.0
X175.0Y-89.0
X175.0Y-93.0
X175.0Y-94.0
X175.0Y-104.0
X175.0Y-105.0
X175.0Y-120.0
X175.6Y-113.7
X175.723Y-116.33
X176.0Y-86.0
X176.0Y-87.0
X176.0Y-88.0
X176.0Y-89.0
X176.0Y-93.0
X176.0Y-94.0
X176.0Y-97.0
X176.0Y-98.0
X176.0Y-104.0
X176.0Y-105.0
X176.6Y-114.1
X176.63Y-114.963
X177.0Y-97.0
X177.0Y-98.0
X177.0Y-99.0
X177.0Y-100.0
X177.0Y-101.0
X177.0Y-102.0
X177.0Y-103.0
X177.0Y-104.0
X177.0Y-105.0
X177.1Y-108.0
X177.165Y-110.387
X177.219Y-116.35
X177.7Y-124.6
X177.8Y-105.7
X178.0Y-97.0
X178.0Y-98.0
X178.0Y-99.0
X178.09Y-115.64
X178.227Y-114.927
X178.25Y-124.25
X178.427Y-124.849
X178.7Y-111.9
X178.75Y-117.9
X179.0Y-91.4
X179.0Y-92.2
X179.0Y-97.2
X179.0Y-99.0
X179.1Y-87.6
X179.3Y-124.2
X179.4Y-106.7
X179.45Y-105.7
X179.7Y-91.4
X179.7Y-92.2
X179.75Y-124.7
X179.8Y-87.6
X179.855Y-104.855
X179.9Y-100.1
X180.1Y-117.34
X180.14Y-113.61
X180.3Y-124.4
X180.4Y-91.4
X180.4Y-92.2
X180.5Y-87.6
X180.5Y-100.0
X180.5Y-101.0
X180.5Y-102.0
X180.6Y-103.6
X180.6Y-127.2
X180.89Y-113.45
X181.05Y-117.3
X181.1Y-91.4
X181.1Y-92.2
X181.2Y-87.6
X181.8Y-91.4
X181.8Y-92.2
X181.9Y-87.6
X181.9Y-115.6
X182.0Y-121.4
X182.1Y-97.2
X182.1Y-118.37
X182.207Y-107.875
X182.5Y-91.4
X182.5Y-92.2
X182.6Y-87.6
X182.7Y-98.6
X182.8Y-109.65
X183.1Y-118.4
X183.2Y-91.4
X183.2Y-92.2
X183.284Y-106.9
X183.3Y-87.6
X183.9Y-91.4
X183.9Y-92.2
X184.0Y-87.6
X184.1Y-123.5
X184.1Y-124.1
X184.1Y-124.7
X184.3Y-109.95
X184.4Y-99.35
X184.536Y-108.216
X184.8Y-97.2
X185.0Y-101.0
X185.0Y-102.0
X185.0Y-104.1
X185.0Y-111.59
X185.0Y-124.2
X185.4Y-124.8
X185.7Y-103.6
X185.8Y-100.4
X185.8Y-124.2
X186.0Y-101.0
X186.0Y-102.0
X186.05Y-115.55
X186.184Y-116.85
X186.2Y-110.8
X186.3Y-121.2
X186.9Y-123.0
X187.185Y-106.015
X187.5Y-117.25
X187.5Y-118.0
X187.5Y-118.75
X187.6Y-102.2
X188.0Y-90.7
X188.35Y-104.4
X188.8Y-92.5
X188.9Y-120.5
X189.2Y-97.8
X189.4Y-100.6
X189.4Y-109.6
X189.539Y-105.014
X189.8Y-103.2
X190.1Y-120.5
X190.2Y-106.4
X190.935Y-105.373
X191.0Y-101.1
X191.0Y-117.25
X191.0Y-118.0
X191.0Y-118.75
X191.75Y-112.0
X191.75Y-112.75
X191.75Y-113.5
X191.75Y-114.25
X191.75Y-115.0
X192.0Y-83.0
X192.0Y-84.0
X192.0Y-109.05
X192.44Y-99.44
X192.501Y-124.154
X193.0Y-83.0
X193.0Y-92.85
X193.0Y-131.0
X193.5Y-98.1
X193.8Y-99.3
X193.8Y-103.2
X193.8Y-107.65
X193.85Y-122.55
X194.65Y-103.9
X194.85Y-106.85
X195.7Y-101.0
X195.753Y-122.75
X195.952Y-105.552
X196.0Y-99.9
X196.05Y-110.25
X197.0Y-83.0
X197.0Y-131.0
X198.0Y-83.0
X198.0Y-84.0
X198.0Y-88.0
X198.0Y-126.0
X198.0Y-130.0
X198.0Y-131.0
T3
X194.3Y-90.29
X194.3Y-91.56
X194.3Y-92.83
X194.3Y-94.1
X194.3Y-95.37
X194.3Y-96.64
T4
X110.695Y-90.805
X115.695Y-90.805
T5
X141.88Y-118.06
X144.17Y-118.06
X145.188Y-122.88
X146.204Y-124.66
X147.22Y-122.88
X148.236Y-124.66
X149.252Y-122.88
X150.268Y-124.66
X151.284Y-122.88
X152.3Y-124.66
X153.31Y-118.06
X155.6Y-118.06
X161.026Y-118.06
X163.316Y-118.06
X164.334Y-122.88
X165.35Y-124.66
X166.366Y-122.88
X167.382Y-124.66
X168.398Y-122.88
X169.414Y-124.66
X170.43Y-122.88
X171.446Y-124.66
X172.456Y-118.06
X174.746Y-118.06
T6
X194.529Y-113.702
X194.529Y-115.702
X194.529Y-117.702
T7
X129.95Y-88.2
X129.95Y-90.74
X129.95Y-93.28
X132.49Y-88.2
X132.49Y-90.74
X132.49Y-93.28
X135.03Y-88.2
X135.03Y-90.74
X135.03Y-93.28
X137.57Y-88.2
X137.57Y-90.74
X137.57Y-93.28
X140.11Y-88.2
X140.11Y-90.74
X140.11Y-93.28
X142.65Y-88.2
X142.65Y-90.74
X142.65Y-93.28
X145.19Y-88.2
X145.19Y-90.74
X145.19Y-93.28
X147.73Y-88.2
X147.73Y-90.74
X147.73Y-93.28
X150.27Y-88.2
X150.27Y-90.74
X150.27Y-93.28
X152.81Y-88.2
X152.81Y-90.74
X152.81Y-93.28
X155.35Y-88.2
X155.35Y-90.74
X155.35Y-93.28
X157.89Y-88.2
X157.89Y-90.74
X157.89Y-93.28
X160.43Y-88.2
X160.43Y-90.74
X160.43Y-93.28
X162.97Y-88.2
X162.97Y-90.74
X162.97Y-93.28
X165.51Y-88.2
X165.51Y-90.74
X165.51Y-93.28
X168.05Y-88.2
X168.05Y-90.74
X168.05Y-93.28
X188.294Y-124.46
X188.294Y-127.0
X190.834Y-124.46
X190.834Y-127.0
T8
X179.532Y-121.92
X184.032Y-121.92
X189.82Y-90.167
X189.82Y-94.667
T9
X178.282Y-119.42
X185.282Y-119.42
X187.32Y-88.917
X187.32Y-95.917
T10
X140.61Y-123.77
X156.87Y-123.77
X159.756Y-123.77
X176.016Y-123.77
T11
X103.0Y-86.0
X110.9Y-117.85
X118.1Y-117.85
X127.4Y-117.85
X134.6Y-117.85
T2
G00X107.75Y-124.4
M15
G01X107.75Y-123.3
M16
G05
G00X121.25Y-124.4
M15
G01X121.25Y-123.3
M16
G05
G00X124.25Y-124.4
M15
G01X124.25Y-123.3
M16
G05
G00X137.75Y-124.4
M15
G01X137.75Y-123.3
M16
G05
G00X177.466Y-125.745
M15
G01X177.466Y-126.845
M16
G05
G00X177.466Y-130.075
M15
G01X177.466Y-130.875
M16
G05
G00X186.106Y-125.745
M15
G01X186.106Y-126.845
M16
G05
G00X186.106Y-130.075
M15
G01X186.106Y-130.875
M16
G05
T6
G00X194.129Y-111.552
M15
G01X194.929Y-111.552
M16
G05
G00X194.129Y-119.852
M15
G01X194.929Y-119.852
M16
G05
M30
