%TF.GenerationSoftware,KiCad,Pcbnew,10.0.0-10.0.0~ubuntu24.04.1*%
%TF.CreationDate,2026-04-13T18:00:51+02:00*%
%TF.ProjectId,MMS3,4d4d5333-2e6b-4696-9361-645f70636258,XA1*%
%TF.SameCoordinates,Original*%
%TF.FileFunction,Paste,Top*%
%TF.FilePolarity,Positive*%
%FSLAX46Y46*%
G04 Gerber Fmt 4.6, Leading zero omitted, Abs format (unit mm)*
G04 Created by KiCad (PCBNEW 10.0.0-10.0.0~ubuntu24.04.1) date 2026-04-13 18:00:51*
%MOMM*%
%LPD*%
G01*
G04 APERTURE LIST*
G04 Aperture macros list*
%AMRoundRect*
0 Rectangle with rounded corners*
0 $1 Rounding radius*
0 $2 $3 $4 $5 $6 $7 $8 $9 X,Y pos of 4 corners*
0 Add a 4 corners polygon primitive as box body*
4,1,4,$2,$3,$4,$5,$6,$7,$8,$9,$2,$3,0*
0 Add four circle primitives for the rounded corners*
1,1,$1+$1,$2,$3*
1,1,$1+$1,$4,$5*
1,1,$1+$1,$6,$7*
1,1,$1+$1,$8,$9*
0 Add four rect primitives between the rounded corners*
20,1,$1+$1,$2,$3,$4,$5,0*
20,1,$1+$1,$4,$5,$6,$7,0*
20,1,$1+$1,$6,$7,$8,$9,0*
20,1,$1+$1,$8,$9,$2,$3,0*%
G04 Aperture macros list end*
%ADD10RoundRect,0.140000X-0.140000X-0.170000X0.140000X-0.170000X0.140000X0.170000X-0.140000X0.170000X0*%
%ADD11RoundRect,0.140000X0.140000X0.170000X-0.140000X0.170000X-0.140000X-0.170000X0.140000X-0.170000X0*%
%ADD12RoundRect,0.075000X0.441942X0.548008X-0.548008X-0.441942X-0.441942X-0.548008X0.548008X0.441942X0*%
%ADD13RoundRect,0.075000X-0.441942X0.548008X-0.548008X0.441942X0.441942X-0.548008X0.548008X-0.441942X0*%
%ADD14RoundRect,0.250000X-0.475000X0.250000X-0.475000X-0.250000X0.475000X-0.250000X0.475000X0.250000X0*%
%ADD15RoundRect,0.140000X-0.219203X-0.021213X-0.021213X-0.219203X0.219203X0.021213X0.021213X0.219203X0*%
%ADD16RoundRect,0.250000X0.250000X0.475000X-0.250000X0.475000X-0.250000X-0.475000X0.250000X-0.475000X0*%
%ADD17RoundRect,0.160000X-0.325000X0.160000X-0.325000X-0.160000X0.325000X-0.160000X0.325000X0.160000X0*%
%ADD18RoundRect,0.075000X-0.075000X0.350000X-0.075000X-0.350000X0.075000X-0.350000X0.075000X0.350000X0*%
%ADD19RoundRect,0.140000X-0.170000X0.140000X-0.170000X-0.140000X0.170000X-0.140000X0.170000X0.140000X0*%
%ADD20RoundRect,0.140000X0.219203X0.021213X0.021213X0.219203X-0.219203X-0.021213X-0.021213X-0.219203X0*%
%ADD21RoundRect,0.200000X-0.200000X-0.275000X0.200000X-0.275000X0.200000X0.275000X-0.200000X0.275000X0*%
%ADD22RoundRect,0.140000X0.170000X-0.140000X0.170000X0.140000X-0.170000X0.140000X-0.170000X-0.140000X0*%
%ADD23RoundRect,0.100000X0.125000X0.100000X-0.125000X0.100000X-0.125000X-0.100000X0.125000X-0.100000X0*%
%ADD24RoundRect,0.140000X-0.021213X0.219203X-0.219203X0.021213X0.021213X-0.219203X0.219203X-0.021213X0*%
%ADD25RoundRect,0.140000X0.021213X-0.219203X0.219203X-0.021213X-0.021213X0.219203X-0.219203X0.021213X0*%
%ADD26RoundRect,0.220000X0.220000X0.255000X-0.220000X0.255000X-0.220000X-0.255000X0.220000X-0.255000X0*%
%ADD27RoundRect,0.150000X-0.150000X-0.425000X0.150000X-0.425000X0.150000X0.425000X-0.150000X0.425000X0*%
%ADD28RoundRect,0.075000X-0.075000X-0.500000X0.075000X-0.500000X0.075000X0.500000X-0.075000X0.500000X0*%
%ADD29O,1.000000X2.100000*%
%ADD30O,1.000000X1.800000*%
%ADD31RoundRect,0.250000X-0.650000X-0.250000X0.650000X-0.250000X0.650000X0.250000X-0.650000X0.250000X0*%
%ADD32RoundRect,0.225000X0.335876X0.017678X0.017678X0.335876X-0.335876X-0.017678X-0.017678X-0.335876X0*%
%ADD33RoundRect,0.250000X1.000000X0.900000X-1.000000X0.900000X-1.000000X-0.900000X1.000000X-0.900000X0*%
%ADD34RoundRect,0.150000X-0.150000X0.587500X-0.150000X-0.587500X0.150000X-0.587500X0.150000X0.587500X0*%
%ADD35RoundRect,0.250000X-0.350000X0.450000X-0.350000X-0.450000X0.350000X-0.450000X0.350000X0.450000X0*%
%ADD36RoundRect,0.250002X-1.799998X-1.799998X1.799998X-1.799998X1.799998X1.799998X-1.799998X1.799998X0*%
%ADD37RoundRect,0.222500X-0.297500X-0.222500X0.297500X-0.222500X0.297500X0.222500X-0.297500X0.222500X0*%
%ADD38RoundRect,0.150000X-0.737500X-0.150000X0.737500X-0.150000X0.737500X0.150000X-0.737500X0.150000X0*%
%ADD39RoundRect,0.220000X-0.024749X0.335876X-0.335876X0.024749X0.024749X-0.335876X0.335876X-0.024749X0*%
%ADD40RoundRect,0.050000X-0.050000X0.437500X-0.050000X-0.437500X0.050000X-0.437500X0.050000X0.437500X0*%
%ADD41RoundRect,0.050000X-0.050000X0.337500X-0.050000X-0.337500X0.050000X-0.337500X0.050000X0.337500X0*%
%ADD42RoundRect,0.050000X-0.337500X0.050000X-0.337500X-0.050000X0.337500X-0.050000X0.337500X0.050000X0*%
%ADD43RoundRect,0.162500X0.650000X0.162500X-0.650000X0.162500X-0.650000X-0.162500X0.650000X-0.162500X0*%
%ADD44RoundRect,0.250000X1.750000X1.000000X-1.750000X1.000000X-1.750000X-1.000000X1.750000X-1.000000X0*%
%ADD45RoundRect,0.250000X-0.900000X1.000000X-0.900000X-1.000000X0.900000X-1.000000X0.900000X1.000000X0*%
%ADD46RoundRect,0.220000X-0.220000X-0.255000X0.220000X-0.255000X0.220000X0.255000X-0.220000X0.255000X0*%
%ADD47RoundRect,0.075000X-0.662500X-0.075000X0.662500X-0.075000X0.662500X0.075000X-0.662500X0.075000X0*%
%ADD48RoundRect,0.075000X-0.075000X-0.662500X0.075000X-0.662500X0.075000X0.662500X-0.075000X0.662500X0*%
%ADD49RoundRect,0.250000X-0.300000X-0.550000X0.300000X-0.550000X0.300000X0.550000X-0.300000X0.550000X0*%
%ADD50RoundRect,0.100000X-0.100000X0.125000X-0.100000X-0.125000X0.100000X-0.125000X0.100000X0.125000X0*%
%ADD51RoundRect,0.250000X0.350000X-0.450000X0.350000X0.450000X-0.350000X0.450000X-0.350000X-0.450000X0*%
%ADD52RoundRect,0.050000X-0.437500X-0.050000X0.437500X-0.050000X0.437500X0.050000X-0.437500X0.050000X0*%
%ADD53RoundRect,0.050000X-0.337500X-0.050000X0.337500X-0.050000X0.337500X0.050000X-0.337500X0.050000X0*%
%ADD54RoundRect,0.050000X-0.050000X-0.337500X0.050000X-0.337500X0.050000X0.337500X-0.050000X0.337500X0*%
%ADD55RoundRect,0.375000X0.375000X-0.625000X0.375000X0.625000X-0.375000X0.625000X-0.375000X-0.625000X0*%
%ADD56RoundRect,0.500000X1.400000X-0.500000X1.400000X0.500000X-1.400000X0.500000X-1.400000X-0.500000X0*%
%ADD57RoundRect,0.250000X-0.565685X0.070711X0.070711X-0.565685X0.565685X-0.070711X-0.070711X0.565685X0*%
%ADD58RoundRect,0.172500X0.172500X0.172500X-0.172500X0.172500X-0.172500X-0.172500X0.172500X-0.172500X0*%
%ADD59RoundRect,0.062500X0.350000X0.062500X-0.350000X0.062500X-0.350000X-0.062500X0.350000X-0.062500X0*%
%ADD60RoundRect,0.062500X0.062500X0.350000X-0.062500X0.350000X-0.062500X-0.350000X0.062500X-0.350000X0*%
%ADD61RoundRect,0.250000X-1.749998X-1.000000X1.749998X-1.000000X1.749998X1.000000X-1.749998X1.000000X0*%
%ADD62RoundRect,0.251091X-1.743841X-1.004366X1.743841X-1.004366X1.743841X1.004366X-1.743841X1.004366X0*%
%ADD63RoundRect,0.200000X0.200000X0.275000X-0.200000X0.275000X-0.200000X-0.275000X0.200000X-0.275000X0*%
G04 APERTURE END LIST*
D10*
%TO.C,C25*%
X187000000Y-92500000D03*
X188000000Y-92500000D03*
%TD*%
D11*
%TO.C,C702*%
X182200000Y-100000000D03*
X181200000Y-100000000D03*
%TD*%
D12*
%TO.C,U1*%
X155714213Y-104363425D03*
X155360660Y-104009872D03*
X155007107Y-103656319D03*
X154653553Y-103302765D03*
X154300000Y-102949212D03*
X153946446Y-102595658D03*
X153592893Y-102242105D03*
X153239340Y-101888552D03*
X152885786Y-101534998D03*
X152532233Y-101181445D03*
X152178680Y-100827892D03*
X151825126Y-100474338D03*
X151471573Y-100120785D03*
X151118019Y-99767231D03*
X150764466Y-99413678D03*
X150410913Y-99060125D03*
D13*
X147688551Y-99060125D03*
X147334998Y-99413678D03*
X146981445Y-99767231D03*
X146627891Y-100120785D03*
X146274338Y-100474338D03*
X145920784Y-100827892D03*
X145567231Y-101181445D03*
X145213678Y-101534998D03*
X144860124Y-101888552D03*
X144506571Y-102242105D03*
X144153018Y-102595658D03*
X143799464Y-102949212D03*
X143445911Y-103302765D03*
X143092357Y-103656319D03*
X142738804Y-104009872D03*
X142385251Y-104363425D03*
D12*
X142385251Y-107085787D03*
X142738804Y-107439340D03*
X143092357Y-107792893D03*
X143445911Y-108146447D03*
X143799464Y-108500000D03*
X144153018Y-108853554D03*
X144506571Y-109207107D03*
X144860124Y-109560660D03*
X145213678Y-109914214D03*
X145567231Y-110267767D03*
X145920784Y-110621320D03*
X146274338Y-110974874D03*
X146627891Y-111328427D03*
X146981445Y-111681981D03*
X147334998Y-112035534D03*
X147688551Y-112389087D03*
D13*
X150410913Y-112389087D03*
X150764466Y-112035534D03*
X151118019Y-111681981D03*
X151471573Y-111328427D03*
X151825126Y-110974874D03*
X152178680Y-110621320D03*
X152532233Y-110267767D03*
X152885786Y-109914214D03*
X153239340Y-109560660D03*
X153592893Y-109207107D03*
X153946446Y-108853554D03*
X154300000Y-108500000D03*
X154653553Y-108146447D03*
X155007107Y-107792893D03*
X155360660Y-107439340D03*
X155714213Y-107085787D03*
%TD*%
D14*
%TO.C,C46*%
X114637500Y-108750000D03*
X114637500Y-110650000D03*
%TD*%
D10*
%TO.C,R806*%
X174900000Y-115500000D03*
X175900000Y-115500000D03*
%TD*%
D15*
%TO.C,C18*%
X155792894Y-110292894D03*
X156500000Y-111000000D03*
%TD*%
D11*
%TO.C,R903*%
X181324998Y-108187500D03*
X180325000Y-108187500D03*
%TD*%
D16*
%TO.C,C34*%
X105500000Y-122600000D03*
X103600000Y-122600000D03*
%TD*%
D17*
%TO.C,U500*%
X166800000Y-110600000D03*
X165600000Y-110600000D03*
X166800000Y-111400000D03*
X165600000Y-111400000D03*
D18*
X167175000Y-109550000D03*
X166525000Y-109550000D03*
X165875000Y-109550000D03*
X165225000Y-109550000D03*
X165225000Y-112450000D03*
X165875000Y-112450000D03*
X166525000Y-112450000D03*
X167175000Y-112450000D03*
%TD*%
D11*
%TO.C,R16*%
X175525000Y-112987500D03*
X174525002Y-112987500D03*
%TD*%
%TO.C,C703*%
X191300000Y-109100000D03*
X190300000Y-109100000D03*
%TD*%
D19*
%TO.C,C800*%
X186900000Y-121200000D03*
X186900000Y-122200000D03*
%TD*%
%TO.C,R26*%
X166187500Y-101365000D03*
X166187500Y-102365000D03*
%TD*%
D11*
%TO.C,R902*%
X181324999Y-109087500D03*
X180325001Y-109087500D03*
%TD*%
D16*
%TO.C,C30*%
X105500000Y-118600000D03*
X103600000Y-118600000D03*
%TD*%
D10*
%TO.C,R700*%
X181200000Y-104600000D03*
X182200000Y-104600000D03*
%TD*%
D11*
%TO.C,C29*%
X178800000Y-105000000D03*
X177800000Y-105000000D03*
%TD*%
D20*
%TO.C,C11*%
X162900000Y-98207106D03*
X162192894Y-97500000D03*
%TD*%
D21*
%TO.C,R39*%
X101567500Y-110835000D03*
X103207500Y-110835000D03*
%TD*%
D11*
%TO.C,R17*%
X175524999Y-111987500D03*
X174525001Y-111987500D03*
%TD*%
D10*
%TO.C,R13*%
X187000000Y-93500000D03*
X188000000Y-93500000D03*
%TD*%
D22*
%TO.C,R21*%
X174500000Y-109100000D03*
X174500000Y-108100000D03*
%TD*%
D10*
%TO.C,C28*%
X178200000Y-100100000D03*
X179200000Y-100100000D03*
%TD*%
D19*
%TO.C,R40*%
X190000000Y-121200000D03*
X190000000Y-122200000D03*
%TD*%
D22*
%TO.C,C44*%
X109075000Y-107870000D03*
X109075000Y-106870000D03*
%TD*%
%TO.C,R2*%
X158300000Y-118200000D03*
X158300000Y-117200000D03*
%TD*%
%TO.C,R9*%
X182100000Y-120100000D03*
X182100000Y-119100000D03*
%TD*%
D23*
%TO.C,U5*%
X148700000Y-115800000D03*
X148700000Y-115000000D03*
X147550000Y-115400000D03*
%TD*%
D24*
%TO.C,C36*%
X138203553Y-98124228D03*
X137496447Y-98831334D03*
%TD*%
D22*
%TO.C,C8*%
X162100000Y-106449999D03*
X162100000Y-105450001D03*
%TD*%
%TO.C,R500*%
X168450000Y-111545000D03*
X168450000Y-110545000D03*
%TD*%
D11*
%TO.C,R25*%
X169700000Y-104200000D03*
X168700000Y-104200000D03*
%TD*%
D19*
%TO.C,R19*%
X174525000Y-110087500D03*
X174525000Y-111087500D03*
%TD*%
D22*
%TO.C,R38*%
X110075000Y-109870000D03*
X110075000Y-108870000D03*
%TD*%
D10*
%TO.C,R28*%
X172500000Y-105200000D03*
X173500000Y-105200000D03*
%TD*%
D25*
%TO.C,C13*%
X136047990Y-100289948D03*
X136755096Y-99582842D03*
%TD*%
D11*
%TO.C,R805*%
X175900000Y-114500000D03*
X174900000Y-114500000D03*
%TD*%
D10*
%TO.C,R30*%
X168700000Y-105200000D03*
X169700000Y-105200000D03*
%TD*%
D22*
%TO.C,C7*%
X187900000Y-122200000D03*
X187900000Y-121200000D03*
%TD*%
D19*
%TO.C,C9*%
X162100000Y-103450001D03*
X162100000Y-104449999D03*
%TD*%
%TO.C,C43*%
X109075000Y-108870000D03*
X109075000Y-109870000D03*
%TD*%
%TO.C,R18*%
X175525000Y-110087500D03*
X175525000Y-111087500D03*
%TD*%
D15*
%TO.C,R4*%
X142192894Y-100892894D03*
X142900000Y-101600000D03*
%TD*%
D19*
%TO.C,C704*%
X193800000Y-100000000D03*
X193800000Y-101000000D03*
%TD*%
D16*
%TO.C,C39*%
X102100000Y-118600000D03*
X100200000Y-118600000D03*
%TD*%
D11*
%TO.C,R713*%
X197950000Y-110600000D03*
X196950000Y-110600000D03*
%TD*%
%TO.C,R711*%
X197700000Y-99900000D03*
X196700000Y-99900000D03*
%TD*%
D15*
%TO.C,C19*%
X157246447Y-107696447D03*
X157953553Y-108403553D03*
%TD*%
D11*
%TO.C,R31*%
X194850000Y-121800000D03*
X193850000Y-121800000D03*
%TD*%
D26*
%TO.C,D701*%
X197720000Y-109350000D03*
X196140000Y-109350000D03*
%TD*%
D16*
%TO.C,C32*%
X105500000Y-120600000D03*
X103600000Y-120600000D03*
%TD*%
D14*
%TO.C,C45*%
X116837500Y-108750000D03*
X116837500Y-110650000D03*
%TD*%
D27*
%TO.C,J800*%
X178586400Y-125720000D03*
X179386400Y-125720000D03*
D28*
X180536400Y-125720000D03*
X181536400Y-125720000D03*
X182036400Y-125720000D03*
X183036400Y-125720000D03*
D27*
X184186400Y-125720000D03*
X184986400Y-125720000D03*
X184986400Y-125720000D03*
X184186400Y-125720000D03*
D28*
X183536400Y-125720000D03*
X182536400Y-125720000D03*
X181036400Y-125720000D03*
X180036400Y-125720000D03*
D27*
X179386400Y-125720000D03*
X178586400Y-125720000D03*
D29*
X177466400Y-126295000D03*
D30*
X177466400Y-130475000D03*
D29*
X186106400Y-126295000D03*
D30*
X186106400Y-130475000D03*
%TD*%
D10*
%TO.C,R3*%
X178200000Y-117200000D03*
X179200000Y-117200000D03*
%TD*%
D19*
%TO.C,C700*%
X194800000Y-100000000D03*
X194800000Y-101000000D03*
%TD*%
D10*
%TO.C,C313*%
X172900000Y-114500000D03*
X173900000Y-114500000D03*
%TD*%
D31*
%TO.C,X2*%
X160600000Y-103650001D03*
X160600000Y-106149999D03*
%TD*%
D16*
%TO.C,C31*%
X102100000Y-120600000D03*
X100200000Y-120600000D03*
%TD*%
D11*
%TO.C,R37*%
X105300000Y-110700000D03*
X104300000Y-110700000D03*
%TD*%
%TO.C,R24*%
X171600000Y-104200000D03*
X170600000Y-104200000D03*
%TD*%
D32*
%TO.C,C24*%
X140600000Y-104050000D03*
X139496914Y-102946914D03*
%TD*%
D10*
%TO.C,R706*%
X181200000Y-102000000D03*
X182200000Y-102000000D03*
%TD*%
D33*
%TO.C,D4*%
X129550000Y-99900000D03*
X125250000Y-99900000D03*
%TD*%
D34*
%TO.C,Q700*%
X197750000Y-102662500D03*
X195850000Y-102662500D03*
X196800000Y-104537500D03*
%TD*%
D17*
%TO.C,U501*%
X138200000Y-111850000D03*
X137000000Y-111850000D03*
X138200000Y-112650000D03*
X137000000Y-112650000D03*
D18*
X138575000Y-110800000D03*
X137925000Y-110800000D03*
X137275000Y-110800000D03*
X136625000Y-110800000D03*
X136625000Y-113700000D03*
X137275000Y-113700000D03*
X137925000Y-113700000D03*
X138575000Y-113700000D03*
%TD*%
D11*
%TO.C,R34*%
X101900000Y-124200000D03*
X100900000Y-124200000D03*
%TD*%
D14*
%TO.C,C47*%
X121200000Y-108750000D03*
X121200000Y-110650000D03*
%TD*%
D35*
%TO.C,Y700*%
X178000000Y-101500000D03*
X178000000Y-103700000D03*
X179600000Y-103700000D03*
X179600000Y-101500000D03*
%TD*%
D10*
%TO.C,R807*%
X172900000Y-115500000D03*
X173900000Y-115500000D03*
%TD*%
D11*
%TO.C,R710*%
X197700000Y-100900000D03*
X196700000Y-100900000D03*
%TD*%
D36*
%TO.C,L1*%
X111412500Y-102385000D03*
X120912500Y-102385000D03*
%TD*%
D10*
%TO.C,R701*%
X181200000Y-105800000D03*
X182200000Y-105800000D03*
%TD*%
D33*
%TO.C,D3*%
X107150000Y-99600000D03*
X102850000Y-99600000D03*
%TD*%
D37*
%TO.C,U2*%
X104050000Y-106370000D03*
X104050000Y-107400000D03*
X104050000Y-108430000D03*
X105250000Y-106370000D03*
X105250000Y-107400000D03*
X105250000Y-108430000D03*
D38*
X102087500Y-105495000D03*
X102087500Y-106765000D03*
X102087500Y-108035000D03*
X102087500Y-109305000D03*
X107212500Y-109305000D03*
X107212500Y-108035000D03*
X107212500Y-106765000D03*
X107212500Y-105495000D03*
%TD*%
D22*
%TO.C,R804*%
X159900000Y-113300000D03*
X159900000Y-112300000D03*
%TD*%
D10*
%TO.C,C900*%
X179725000Y-115587500D03*
X180725000Y-115587500D03*
%TD*%
D25*
%TO.C,C37*%
X136696447Y-101031334D03*
X137403553Y-100324228D03*
%TD*%
D39*
%TO.C,FB401*%
X136755061Y-97672720D03*
X135637833Y-98789948D03*
%TD*%
D19*
%TO.C,R714*%
X195200000Y-105100000D03*
X195200000Y-106100000D03*
%TD*%
%TO.C,C904*%
X178725000Y-114587500D03*
X178725000Y-115587500D03*
%TD*%
%TO.C,R27*%
X191000000Y-121200000D03*
X191000000Y-122200000D03*
%TD*%
D10*
%TO.C,R802*%
X155500000Y-113400000D03*
X156500000Y-113400000D03*
%TD*%
D19*
%TO.C,C705*%
X180200000Y-105700000D03*
X180200000Y-106700000D03*
%TD*%
D40*
%TO.C,U802*%
X170600000Y-112737500D03*
D41*
X170200000Y-112637500D03*
D42*
X169537500Y-112900000D03*
X169537500Y-113300000D03*
X169537500Y-113700000D03*
D41*
X170200000Y-113962500D03*
X170600000Y-113962500D03*
D42*
X171262500Y-113700000D03*
X171262500Y-113300000D03*
X171262500Y-112900000D03*
%TD*%
D16*
%TO.C,C35*%
X102100000Y-116600000D03*
X100200000Y-116600000D03*
%TD*%
D43*
%TO.C,U6*%
X174887500Y-102605000D03*
X174887500Y-101335000D03*
X174887500Y-100065000D03*
X174887500Y-98795000D03*
X167712500Y-98795000D03*
X167712500Y-100065000D03*
X167712500Y-101335000D03*
X167712500Y-102605000D03*
%TD*%
D10*
%TO.C,R907*%
X174500002Y-107200000D03*
X175500000Y-107200000D03*
%TD*%
D24*
%TO.C,C22*%
X141557106Y-104892894D03*
X140850000Y-105600000D03*
%TD*%
%TO.C,C15*%
X138857106Y-98870675D03*
X138150000Y-99577781D03*
%TD*%
D22*
%TO.C,R708*%
X187800000Y-110000000D03*
X187800000Y-109000000D03*
%TD*%
D44*
%TO.C,C50*%
X133132500Y-108300000D03*
X125132500Y-108300000D03*
%TD*%
D45*
%TO.C,D5*%
X189200000Y-113850000D03*
X189200000Y-118150000D03*
%TD*%
D23*
%TO.C,U4*%
X162505642Y-114788777D03*
X162505642Y-113988777D03*
X161355642Y-114388777D03*
%TD*%
D46*
%TO.C,D700*%
X196200000Y-107640000D03*
X197780000Y-107640000D03*
%TD*%
D10*
%TO.C,R906*%
X174500001Y-106300000D03*
X175499999Y-106300000D03*
%TD*%
D47*
%TO.C,U700*%
X183849095Y-100625000D03*
X183849095Y-101125000D03*
X183849095Y-101625000D03*
X183849095Y-102125000D03*
X183849095Y-102625000D03*
X183849095Y-103125000D03*
X183849095Y-103625000D03*
X183849095Y-104125000D03*
X183849095Y-104625000D03*
X183849095Y-105125000D03*
X183849095Y-105625000D03*
X183849095Y-106125000D03*
D48*
X185261595Y-107537500D03*
X185761595Y-107537500D03*
X186261595Y-107537500D03*
X186761595Y-107537500D03*
X187261595Y-107537500D03*
X187761595Y-107537500D03*
X188261595Y-107537500D03*
X188761595Y-107537500D03*
X189261595Y-107537500D03*
X189761595Y-107537500D03*
X190261595Y-107537500D03*
X190761595Y-107537500D03*
D47*
X192174095Y-106125000D03*
X192174095Y-105625000D03*
X192174095Y-105125000D03*
X192174095Y-104625000D03*
X192174095Y-104125000D03*
X192174095Y-103625000D03*
X192174095Y-103125000D03*
X192174095Y-102625000D03*
X192174095Y-102125000D03*
X192174095Y-101625000D03*
X192174095Y-101125000D03*
X192174095Y-100625000D03*
D48*
X190761595Y-99212500D03*
X190261595Y-99212500D03*
X189761595Y-99212500D03*
X189261595Y-99212500D03*
X188761595Y-99212500D03*
X188261595Y-99212500D03*
X187761595Y-99212500D03*
X187261595Y-99212500D03*
X186761595Y-99212500D03*
X186261595Y-99212500D03*
X185761595Y-99212500D03*
X185261595Y-99212500D03*
%TD*%
D11*
%TO.C,R703*%
X182200000Y-106700000D03*
X181200000Y-106700000D03*
%TD*%
D22*
%TO.C,R7*%
X188900000Y-122200000D03*
X188900000Y-121200000D03*
%TD*%
D19*
%TO.C,R704*%
X186300000Y-109000000D03*
X186300000Y-110000000D03*
%TD*%
D11*
%TO.C,C69*%
X180700000Y-97200000D03*
X179700000Y-97200000D03*
%TD*%
%TO.C,C27*%
X167512500Y-103735000D03*
X166512500Y-103735000D03*
%TD*%
D20*
%TO.C,R11*%
X157800000Y-109700000D03*
X157092894Y-108992894D03*
%TD*%
D19*
%TO.C,R5*%
X158300000Y-128600000D03*
X158300000Y-129600000D03*
%TD*%
D25*
%TO.C,C20*%
X144896447Y-98603553D03*
X145603553Y-97896447D03*
%TD*%
D10*
%TO.C,R29*%
X170600000Y-105200000D03*
X171600000Y-105200000D03*
%TD*%
D11*
%TO.C,C706*%
X182200000Y-103600000D03*
X181200000Y-103600000D03*
%TD*%
D19*
%TO.C,C2*%
X158300000Y-121100000D03*
X158300000Y-122100000D03*
%TD*%
D11*
%TO.C,R22*%
X156600000Y-100950000D03*
X155600000Y-100950000D03*
%TD*%
%TO.C,C312*%
X158500000Y-112400000D03*
X157500000Y-112400000D03*
%TD*%
D49*
%TO.C,D1*%
X110600000Y-113800000D03*
X113400000Y-113800000D03*
%TD*%
D50*
%TO.C,U401*%
X168400000Y-114850000D03*
X167600000Y-114850000D03*
X168000000Y-116000000D03*
%TD*%
D15*
%TO.C,R10*%
X156446447Y-109646447D03*
X157153553Y-110353553D03*
%TD*%
%TO.C,R1*%
X142846447Y-100246447D03*
X143553553Y-100953553D03*
%TD*%
D10*
%TO.C,R707*%
X197000000Y-106350000D03*
X198000000Y-106350000D03*
%TD*%
D15*
%TO.C,C10*%
X163592894Y-98900000D03*
X164300000Y-99607106D03*
%TD*%
D22*
%TO.C,C4*%
X135325000Y-112800000D03*
X135325000Y-111800000D03*
%TD*%
D10*
%TO.C,C902*%
X179725000Y-114587500D03*
X180725000Y-114587500D03*
%TD*%
D46*
%TO.C,D301*%
X196200000Y-123600000D03*
X197780000Y-123600000D03*
%TD*%
D51*
%TO.C,Y900*%
X183950000Y-113800000D03*
X183950000Y-111600000D03*
X182250000Y-111600000D03*
X182250000Y-113800000D03*
%TD*%
D11*
%TO.C,R702*%
X188300000Y-97800000D03*
X187300000Y-97800000D03*
%TD*%
D16*
%TO.C,C38*%
X105500000Y-116600000D03*
X103600000Y-116600000D03*
%TD*%
D14*
%TO.C,C42*%
X119000000Y-108750000D03*
X119000000Y-110650000D03*
%TD*%
%TO.C,C41*%
X112400000Y-108750000D03*
X112400000Y-110650000D03*
%TD*%
D52*
%TO.C,U801*%
X157800000Y-114200000D03*
D53*
X157700000Y-114600000D03*
D54*
X157962500Y-115262500D03*
X158362500Y-115262500D03*
X158762500Y-115262500D03*
D53*
X159025000Y-114600000D03*
X159025000Y-114200000D03*
D54*
X158762500Y-113537500D03*
X158362500Y-113537500D03*
X157962500Y-113537500D03*
%TD*%
D22*
%TO.C,R20*%
X175500000Y-109100000D03*
X175500000Y-108100000D03*
%TD*%
D55*
%TO.C,U15*%
X179200000Y-95300000D03*
X181500000Y-95300000D03*
D56*
X181500000Y-89000000D03*
D55*
X183800000Y-95300000D03*
%TD*%
D11*
%TO.C,R15*%
X181100000Y-119100000D03*
X180100000Y-119100000D03*
%TD*%
D57*
%TO.C,X1*%
X160199929Y-99844437D03*
X161755563Y-101400071D03*
X163000071Y-100155563D03*
X161444437Y-98599929D03*
%TD*%
D11*
%TO.C,C6*%
X138125000Y-109600000D03*
X137125000Y-109600000D03*
%TD*%
D16*
%TO.C,C33*%
X102100000Y-122600000D03*
X100200000Y-122600000D03*
%TD*%
D10*
%TO.C,C12*%
X156650000Y-99900000D03*
X157650000Y-99900000D03*
%TD*%
D22*
%TO.C,R501*%
X139825000Y-112800000D03*
X139825000Y-111800000D03*
%TD*%
D58*
%TO.C,U302*%
X179100000Y-112350000D03*
X179100000Y-111500000D03*
X178250000Y-112350000D03*
X178250000Y-111500000D03*
D59*
X180137500Y-112675000D03*
X180137500Y-112175000D03*
X180137500Y-111675000D03*
X180137500Y-111175000D03*
D60*
X179425000Y-110462500D03*
X178925000Y-110462500D03*
X178425000Y-110462500D03*
X177925000Y-110462500D03*
D59*
X177212500Y-111175000D03*
X177212500Y-111675000D03*
X177212500Y-112175000D03*
X177212500Y-112675000D03*
D60*
X177925000Y-113387500D03*
X178425000Y-113387500D03*
X178925000Y-113387500D03*
X179425000Y-113387500D03*
%TD*%
D15*
%TO.C,C21*%
X157192894Y-104392894D03*
X157900000Y-105100000D03*
%TD*%
D11*
%TO.C,R33*%
X104700000Y-124200000D03*
X103700000Y-124200000D03*
%TD*%
D10*
%TO.C,R308*%
X193850000Y-123550000D03*
X194850000Y-123550000D03*
%TD*%
D20*
%TO.C,C16*%
X140953553Y-102753553D03*
X140246447Y-102046447D03*
%TD*%
D61*
%TO.C,C49*%
X109194954Y-90805459D03*
D62*
X117200000Y-90800000D03*
%TD*%
D11*
%TO.C,R12*%
X181100000Y-120100000D03*
X180100000Y-120100000D03*
%TD*%
%TO.C,R803*%
X156500000Y-112400000D03*
X155500000Y-112400000D03*
%TD*%
D19*
%TO.C,R716*%
X193800000Y-104100000D03*
X193800000Y-105100000D03*
%TD*%
D11*
%TO.C,C5*%
X166500000Y-108345000D03*
X165500000Y-108345000D03*
%TD*%
D46*
%TO.C,D6*%
X196200000Y-121845000D03*
X197780000Y-121845000D03*
%TD*%
D16*
%TO.C,C40*%
X107550000Y-103200000D03*
X105650000Y-103200000D03*
%TD*%
D22*
%TO.C,R715*%
X193800000Y-107000000D03*
X193800000Y-106000000D03*
%TD*%
%TO.C,C3*%
X163850000Y-111445000D03*
X163850000Y-110445000D03*
%TD*%
D10*
%TO.C,R705*%
X181200000Y-101000000D03*
X182200000Y-101000000D03*
%TD*%
D11*
%TO.C,R23*%
X173500000Y-104200000D03*
X172500000Y-104200000D03*
%TD*%
%TO.C,C74*%
X183800000Y-97200000D03*
X182800000Y-97200000D03*
%TD*%
D24*
%TO.C,C17*%
X145853553Y-112746447D03*
X145146447Y-113453553D03*
%TD*%
%TO.C,C23*%
X146553553Y-113446447D03*
X145846447Y-114153553D03*
%TD*%
D10*
%TO.C,R14*%
X187000000Y-91500000D03*
X188000000Y-91500000D03*
%TD*%
%TO.C,R709*%
X196700000Y-99000000D03*
X197700000Y-99000000D03*
%TD*%
D11*
%TO.C,C26*%
X181100000Y-118100000D03*
X180100000Y-118100000D03*
%TD*%
D22*
%TO.C,R8*%
X183100000Y-120100000D03*
X183100000Y-119100000D03*
%TD*%
%TO.C,R6*%
X158300000Y-120100000D03*
X158300000Y-119100000D03*
%TD*%
%TO.C,C1*%
X158300000Y-127700000D03*
X158300000Y-126700000D03*
%TD*%
D11*
%TO.C,C701*%
X184400000Y-98600000D03*
X183400000Y-98600000D03*
%TD*%
%TO.C,R712*%
X194700000Y-102100000D03*
X193700000Y-102100000D03*
%TD*%
D63*
%TO.C,R36*%
X108007500Y-110835000D03*
X106367500Y-110835000D03*
%TD*%
M02*
