%TF.GenerationSoftware,KiCad,Pcbnew,10.0.0-10.0.0~ubuntu24.04.1*%
%TF.CreationDate,2026-04-13T18:00:52+02:00*%
%TF.ProjectId,MMS3,4d4d5333-2e6b-4696-9361-645f70636258,XA1*%
%TF.SameCoordinates,Original*%
%TF.FileFunction,Soldermask,Bot*%
%TF.FilePolarity,Negative*%
%FSLAX46Y46*%
G04 Gerber Fmt 4.6, Leading zero omitted, Abs format (unit mm)*
G04 Created by KiCad (PCBNEW 10.0.0-10.0.0~ubuntu24.04.1) date 2026-04-13 18:00:52*
%MOMM*%
%LPD*%
G01*
G04 APERTURE LIST*
G04 Aperture macros list*
%AMRoundRect*
0 Rectangle with rounded corners*
0 $1 Rounding radius*
0 $2 $3 $4 $5 $6 $7 $8 $9 X,Y pos of 4 corners*
0 Add a 4 corners polygon primitive as box body*
4,1,4,$2,$3,$4,$5,$6,$7,$8,$9,$2,$3,0*
0 Add four circle primitives for the rounded corners*
1,1,$1+$1,$2,$3*
1,1,$1+$1,$4,$5*
1,1,$1+$1,$6,$7*
1,1,$1+$1,$8,$9*
0 Add four rect primitives between the rounded corners*
20,1,$1+$1,$2,$3,$4,$5,0*
20,1,$1+$1,$4,$5,$6,$7,0*
20,1,$1+$1,$6,$7,$8,$9,0*
20,1,$1+$1,$8,$9,$2,$3,0*%
G04 Aperture macros list end*
%ADD10C,1.000000*%
%ADD11C,0.000000*%
%ADD12R,0.900000X2.000000*%
%ADD13RoundRect,1.025000X1.025000X1.025000X-1.025000X1.025000X-1.025000X-1.025000X1.025000X-1.025000X0*%
%ADD14C,4.100000*%
%ADD15O,1.600000X1.600000*%
%ADD16O,3.000000X2.000000*%
%ADD17C,0.650000*%
%ADD18O,1.000000X2.100000*%
%ADD19O,1.000000X1.800000*%
%ADD20C,2.850000*%
%ADD21RoundRect,0.249999X0.525001X-0.525001X0.525001X0.525001X-0.525001X0.525001X-0.525001X-0.525001X0*%
%ADD22C,1.550000*%
%ADD23C,1.600000*%
%ADD24C,3.100000*%
%ADD25C,2.700000*%
%ADD26C,3.250000*%
%ADD27R,1.500000X1.500000*%
%ADD28C,1.500000*%
%ADD29C,2.300000*%
%ADD30C,1.800000*%
%ADD31C,2.000000*%
%ADD32RoundRect,0.190500X0.444500X-1.079500X0.444500X1.079500X-0.444500X1.079500X-0.444500X-1.079500X0*%
%ADD33C,1.000000*%
%ADD34R,1.000000X1.000000*%
G04 APERTURE END LIST*
D10*
D11*
X107000000Y-98000000D02*
X106999999Y-98000000D01*
X106999999Y-98000000D01*
X106999999Y-98000000D01*
X106999999Y-98000000D01*
X106999999Y-98000000D01*
X106999999Y-98000000D01*
X106999999Y-98000000D01*
X106999999Y-97999999D01*
X106999999Y-97999999D01*
X106999999Y-97999999D01*
X106999999Y-97999999D01*
X106999999Y-97999999D01*
X107000000Y-97999999D01*
X107000000Y-97999999D01*
X107000000Y-97999999D01*
X107000000Y-97999999D01*
X107000000Y-97999999D01*
X107000000Y-97999999D01*
X107000000Y-97999999D01*
X107000000Y-97999999D01*
X107000000Y-97999999D01*
X107000000Y-97999999D01*
X107000000Y-97999999D01*
X107000000Y-97999999D01*
X107000001Y-97999999D01*
X107000001Y-97999999D01*
X107000001Y-97999999D01*
X107000001Y-97999999D01*
X107000001Y-97999999D01*
X107000001Y-97999999D01*
X107000001Y-98000000D01*
X107000001Y-98000000D01*
X107000001Y-98000000D01*
X107000001Y-98000000D01*
X107000001Y-98000000D01*
X107000001Y-98000000D01*
X107000001Y-98000000D01*
X107000000Y-98000000D01*
X107000000Y-98000000D02*
X107000001Y-98000000D01*
X107000001Y-98000000D01*
X107000001Y-98000000D01*
X107000001Y-98000000D01*
X107000001Y-98000000D01*
X107000001Y-98000000D01*
X107000001Y-98000001D01*
X107000001Y-98000001D01*
X107000001Y-98000001D01*
X107000001Y-98000001D01*
X107000001Y-98000001D01*
X107000001Y-98000001D01*
X107000001Y-98000001D01*
X107000000Y-98000001D01*
X107000000Y-98000001D01*
X107000000Y-98000001D01*
X107000000Y-98000001D01*
X107000000Y-98000001D01*
X107000000Y-98000001D01*
X107000000Y-98000001D01*
X107000000Y-98000001D01*
X107000000Y-98000001D01*
X107000000Y-98000001D01*
X107000000Y-98000001D01*
X107000000Y-98000001D01*
X106999999Y-98000001D01*
X106999999Y-98000001D01*
X106999999Y-98000001D01*
X106999999Y-98000001D01*
X106999999Y-98000001D01*
X106999999Y-98000001D01*
X106999999Y-98000000D01*
X106999999Y-98000000D01*
X106999999Y-98000000D01*
X106999999Y-98000000D01*
X106999999Y-98000000D01*
X106999999Y-98000000D01*
X107000000Y-98000000D01*
D10*
X109000000Y-98000000D02*
X107000000Y-100000000D01*
X110937500Y-98125000D02*
X107062500Y-101875000D01*
X110937500Y-100125000D02*
X107062500Y-103875000D01*
X111000000Y-102000000D02*
X107125000Y-105750000D01*
X111000000Y-104000000D02*
X108125000Y-106750000D01*
D11*
X111000000Y-106000000D02*
X110999999Y-106000000D01*
X110999999Y-106000000D01*
X110999999Y-106000000D01*
X110999999Y-106000000D01*
X110999999Y-106000000D01*
X110999999Y-106000000D01*
X110999999Y-106000000D01*
X110999999Y-105999999D01*
X110999999Y-105999999D01*
X110999999Y-105999999D01*
X110999999Y-105999999D01*
X110999999Y-105999999D01*
X111000000Y-105999999D01*
X111000000Y-105999999D01*
X111000000Y-105999999D01*
X111000000Y-105999999D01*
X111000000Y-105999999D01*
X111000000Y-105999999D01*
X111000000Y-105999999D01*
X111000000Y-105999999D01*
X111000000Y-105999999D01*
X111000000Y-105999999D01*
X111000000Y-105999999D01*
X111000000Y-105999999D01*
X111000001Y-105999999D01*
X111000001Y-105999999D01*
X111000001Y-105999999D01*
X111000001Y-105999999D01*
X111000001Y-105999999D01*
X111000001Y-105999999D01*
X111000001Y-106000000D01*
X111000001Y-106000000D01*
X111000001Y-106000000D01*
X111000001Y-106000000D01*
X111000001Y-106000000D01*
X111000001Y-106000000D01*
X111000001Y-106000000D01*
X111000000Y-106000000D01*
X111000000Y-106000000D02*
X111000001Y-106000000D01*
X111000001Y-106000000D01*
X111000001Y-106000000D01*
X111000001Y-106000000D01*
X111000001Y-106000000D01*
X111000001Y-106000000D01*
X111000001Y-106000001D01*
X111000001Y-106000001D01*
X111000001Y-106000001D01*
X111000001Y-106000001D01*
X111000001Y-106000001D01*
X111000001Y-106000001D01*
X111000001Y-106000001D01*
X111000000Y-106000001D01*
X111000000Y-106000001D01*
X111000000Y-106000001D01*
X111000000Y-106000001D01*
X111000000Y-106000001D01*
X111000000Y-106000001D01*
X111000000Y-106000001D01*
X111000000Y-106000001D01*
X111000000Y-106000001D01*
X111000000Y-106000001D01*
X111000000Y-106000001D01*
X111000000Y-106000001D01*
X110999999Y-106000001D01*
X110999999Y-106000001D01*
X110999999Y-106000001D01*
X110999999Y-106000001D01*
X110999999Y-106000001D01*
X110999999Y-106000001D01*
X110999999Y-106000000D01*
X110999999Y-106000000D01*
X110999999Y-106000000D01*
X110999999Y-106000000D01*
X110999999Y-106000000D01*
X110999999Y-106000000D01*
X111000000Y-106000000D01*
D10*
X111500000Y-123000000D02*
X110250000Y-124250000D01*
X113750000Y-123250000D02*
X107750000Y-129250000D01*
X116500000Y-123250000D02*
X110500000Y-129250000D01*
X117000000Y-112000000D02*
X115250000Y-113750000D01*
X118250000Y-124500000D02*
X113500000Y-129250000D01*
X118750000Y-126750000D02*
X116250000Y-129250000D01*
X118875000Y-112125000D02*
X117125000Y-113875000D01*
X120875000Y-112125000D02*
X119125000Y-113875000D01*
X121250000Y-126750000D02*
X118750000Y-129250000D01*
X122875000Y-112125000D02*
X121125000Y-113875000D01*
X123750000Y-126750000D02*
X121250000Y-129250000D01*
X124875000Y-112125000D02*
X123125000Y-113875000D01*
X126875000Y-112125000D02*
X125125000Y-113875000D01*
X128875000Y-112125000D02*
X127125000Y-113875000D01*
X129750000Y-123250000D02*
X123750000Y-129250000D01*
X129851060Y-113240238D02*
X129101060Y-113990238D01*
X132500000Y-123250000D02*
X126500000Y-129250000D01*
X135000000Y-123250000D02*
X129000000Y-129250000D01*
X135250000Y-125750000D02*
X131750000Y-129250000D01*
X136000000Y-127500000D02*
X134250000Y-129250000D01*
D12*
%TO.C,J7*%
X137750000Y-123850000D03*
X124250000Y-123850000D03*
D13*
X127400000Y-117850000D03*
D14*
X134600000Y-117850000D03*
%TD*%
D15*
%TO.C,SW4*%
X194529479Y-117702248D03*
X194529479Y-115702248D03*
X194529479Y-113702248D03*
D16*
X194529479Y-111552248D03*
X194529479Y-119852248D03*
%TD*%
D17*
%TO.C,J800*%
X178896400Y-126795000D03*
X184676400Y-126795000D03*
D18*
X177466400Y-126295000D03*
D19*
X177466400Y-130475000D03*
D18*
X186106400Y-126295000D03*
D19*
X186106400Y-130475000D03*
%TD*%
D20*
%TO.C,J1*%
X124000000Y-91040000D03*
X174000000Y-91040000D03*
D21*
X129950000Y-93280000D03*
D22*
X132490000Y-93280000D03*
X135030000Y-93280000D03*
X137570000Y-93280000D03*
X140110000Y-93280000D03*
X142650000Y-93280000D03*
X145190000Y-93280000D03*
X147730000Y-93280000D03*
X150270000Y-93280000D03*
X152810000Y-93280000D03*
X155350000Y-93280000D03*
X157890000Y-93280000D03*
X160430000Y-93280000D03*
X162970000Y-93280000D03*
X165510000Y-93280000D03*
X168050000Y-93280000D03*
X129950000Y-90740000D03*
X132490000Y-90740000D03*
X135030000Y-90740000D03*
X137570000Y-90740000D03*
X140110000Y-90740000D03*
X142650000Y-90740000D03*
X145190000Y-90740000D03*
X147730000Y-90740000D03*
X150270000Y-90740000D03*
X152810000Y-90740000D03*
X155350000Y-90740000D03*
X157890000Y-90740000D03*
X160430000Y-90740000D03*
X162970000Y-90740000D03*
X165510000Y-90740000D03*
X168050000Y-90740000D03*
X129950000Y-88200000D03*
X132490000Y-88200000D03*
X135030000Y-88200000D03*
X137570000Y-88200000D03*
X140110000Y-88200000D03*
X142650000Y-88200000D03*
X145190000Y-88200000D03*
X147730000Y-88200000D03*
X150270000Y-88200000D03*
X152810000Y-88200000D03*
X155350000Y-88200000D03*
X157890000Y-88200000D03*
X160430000Y-88200000D03*
X162970000Y-88200000D03*
X165510000Y-88200000D03*
X168050000Y-88200000D03*
%TD*%
D23*
%TO.C,LED1*%
X190833859Y-127000000D03*
X188293859Y-127000000D03*
X190833859Y-124460000D03*
X188293859Y-124460000D03*
%TD*%
D24*
%TO.C,H1*%
X103000000Y-86000000D03*
%TD*%
D25*
%TO.C,H2*%
X195000000Y-86000000D03*
%TD*%
%TO.C,H4*%
X195000000Y-128000000D03*
%TD*%
D26*
%TO.C,J8*%
X174236400Y-127200000D03*
X161536400Y-127200000D03*
D27*
X171446400Y-124660000D03*
D28*
X170430400Y-122880000D03*
X169414400Y-124660000D03*
X168398400Y-122880000D03*
X167382400Y-124660000D03*
X166366400Y-122880000D03*
X165350400Y-124660000D03*
X164334400Y-122880000D03*
X174746400Y-118060000D03*
X172456400Y-118060000D03*
X163316400Y-118060000D03*
X161026400Y-118060000D03*
D29*
X176016400Y-123770000D03*
X159756400Y-123770000D03*
%TD*%
D30*
%TO.C,SW5*%
X189820000Y-94667500D03*
X189820000Y-90167500D03*
D31*
X187320000Y-95917500D03*
X187320000Y-88917500D03*
%TD*%
D32*
%TO.C,C49*%
X110694952Y-90805459D03*
X115694952Y-90805459D03*
%TD*%
D30*
%TO.C,SW3*%
X179532500Y-121920000D03*
X184032500Y-121920000D03*
D31*
X178282500Y-119420000D03*
X185282500Y-119420000D03*
%TD*%
D26*
%TO.C,J9*%
X155090000Y-127200000D03*
X142390000Y-127200000D03*
D27*
X152300000Y-124660000D03*
D28*
X151284000Y-122880000D03*
X150268000Y-124660000D03*
X149252000Y-122880000D03*
X148236000Y-124660000D03*
X147220000Y-122880000D03*
X146204000Y-124660000D03*
X145188000Y-122880000D03*
X155600000Y-118060000D03*
X153310000Y-118060000D03*
X144170000Y-118060000D03*
X141880000Y-118060000D03*
D29*
X156870000Y-123770000D03*
X140610000Y-123770000D03*
%TD*%
D25*
%TO.C,H3*%
X103000000Y-128000000D03*
%TD*%
D12*
%TO.C,J2*%
X121250000Y-123850000D03*
X107750000Y-123850000D03*
D13*
X118100000Y-117850000D03*
D14*
X110900000Y-117850000D03*
%TD*%
D33*
%TO.C,TP16*%
X103400000Y-113500000D03*
%TD*%
%TO.C,TP11*%
X189400000Y-109600000D03*
%TD*%
%TO.C,TP12*%
X189800000Y-103200000D03*
%TD*%
%TO.C,TP20*%
X104400000Y-111200000D03*
%TD*%
%TO.C,TP19*%
X111200000Y-109000000D03*
%TD*%
%TO.C,TP14*%
X189400000Y-100600000D03*
%TD*%
%TO.C,TP18*%
X108400000Y-109400000D03*
%TD*%
%TO.C,TP10*%
X193800000Y-107600000D03*
%TD*%
%TO.C,TP5*%
X175600000Y-95800000D03*
%TD*%
%TO.C,TP4*%
X139000000Y-108300000D03*
%TD*%
%TO.C,TP8*%
X184000000Y-89750000D03*
%TD*%
%TO.C,TP3*%
X163500000Y-108600000D03*
%TD*%
%TO.C,TP9*%
X193800000Y-103200000D03*
%TD*%
D34*
%TO.C,J3*%
X194300000Y-96640000D03*
D33*
X194300000Y-95369999D03*
X194300000Y-94100000D03*
X194300000Y-92830000D03*
X194300000Y-91560000D03*
X194300000Y-90290001D03*
%TD*%
%TO.C,TP7*%
X160600000Y-109400000D03*
%TD*%
%TO.C,TP17*%
X110200000Y-110800000D03*
%TD*%
%TO.C,TP13*%
X187600000Y-102200000D03*
%TD*%
%TO.C,TP2*%
X143100000Y-112400000D03*
%TD*%
%TO.C,TP1*%
X161800000Y-111300000D03*
%TD*%
M02*
