%TF.GenerationSoftware,KiCad,Pcbnew,10.0.0-10.0.0~ubuntu24.04.1*%
%TF.CreationDate,2026-04-13T18:00:51+02:00*%
%TF.ProjectId,MMS3,4d4d5333-2e6b-4696-9361-645f70636258,XA1*%
%TF.SameCoordinates,Original*%
%TF.FileFunction,Legend,Top*%
%TF.FilePolarity,Positive*%
%FSLAX46Y46*%
G04 Gerber Fmt 4.6, Leading zero omitted, Abs format (unit mm)*
G04 Created by KiCad (PCBNEW 10.0.0-10.0.0~ubuntu24.04.1) date 2026-04-13 18:00:51*
%MOMM*%
%LPD*%
G01*
G04 APERTURE LIST*
G04 Aperture macros list*
%AMRoundRect*
0 Rectangle with rounded corners*
0 $1 Rounding radius*
0 $2 $3 $4 $5 $6 $7 $8 $9 X,Y pos of 4 corners*
0 Add a 4 corners polygon primitive as box body*
4,1,4,$2,$3,$4,$5,$6,$7,$8,$9,$2,$3,0*
0 Add four circle primitives for the rounded corners*
1,1,$1+$1,$2,$3*
1,1,$1+$1,$4,$5*
1,1,$1+$1,$6,$7*
1,1,$1+$1,$8,$9*
0 Add four rect primitives between the rounded corners*
20,1,$1+$1,$2,$3,$4,$5,0*
20,1,$1+$1,$4,$5,$6,$7,0*
20,1,$1+$1,$6,$7,$8,$9,0*
20,1,$1+$1,$8,$9,$2,$3,0*%
G04 Aperture macros list end*
%ADD10C,0.100000*%
%ADD11C,0.150000*%
%ADD12C,0.200000*%
%ADD13C,0.120000*%
%ADD14C,0.250000*%
%ADD15C,0.000000*%
%ADD16C,1.000000*%
%ADD17RoundRect,0.159000X-0.159000X-0.189000X0.159000X-0.189000X0.159000X0.189000X-0.159000X0.189000X0*%
%ADD18RoundRect,0.159000X0.159000X0.189000X-0.159000X0.189000X-0.159000X-0.189000X0.159000X-0.189000X0*%
%ADD19R,0.900000X2.000000*%
%ADD20RoundRect,1.025000X1.025000X1.025000X-1.025000X1.025000X-1.025000X-1.025000X1.025000X-1.025000X0*%
%ADD21C,4.100000*%
%ADD22RoundRect,0.075000X0.441942X0.548008X-0.548008X-0.441942X-0.441942X-0.548008X0.548008X0.441942X0*%
%ADD23RoundRect,0.075000X-0.441942X0.548008X-0.548008X0.441942X0.441942X-0.548008X0.548008X-0.441942X0*%
%ADD24RoundRect,0.269000X-0.494000X0.269000X-0.494000X-0.269000X0.494000X-0.269000X0.494000X0.269000X0*%
%ADD25RoundRect,0.159000X-0.246073X-0.021213X-0.021213X-0.246073X0.246073X0.021213X0.021213X0.246073X0*%
%ADD26RoundRect,0.269000X0.269000X0.494000X-0.269000X0.494000X-0.269000X-0.494000X0.269000X-0.494000X0*%
%ADD27RoundRect,0.075000X-0.075000X0.350000X-0.075000X-0.350000X0.075000X-0.350000X0.075000X0.350000X0*%
%ADD28R,2.400000X1.600000*%
%ADD29RoundRect,0.159000X-0.189000X0.159000X-0.189000X-0.159000X0.189000X-0.159000X0.189000X0.159000X0*%
%ADD30O,1.600000X1.600000*%
%ADD31O,3.000000X2.000000*%
%ADD32RoundRect,0.159000X0.246073X0.021213X0.021213X0.246073X-0.246073X-0.021213X-0.021213X-0.246073X0*%
%ADD33RoundRect,0.219000X-0.219000X-0.294000X0.219000X-0.294000X0.219000X0.294000X-0.219000X0.294000X0*%
%ADD34RoundRect,0.159000X0.189000X-0.159000X0.189000X0.159000X-0.189000X0.159000X-0.189000X-0.159000X0*%
%ADD35RoundRect,0.100000X0.125000X0.100000X-0.125000X0.100000X-0.125000X-0.100000X0.125000X-0.100000X0*%
%ADD36RoundRect,0.159000X-0.021213X0.246073X-0.246073X0.021213X0.021213X-0.246073X0.246073X-0.021213X0*%
%ADD37RoundRect,0.159000X0.021213X-0.246073X0.246073X-0.021213X-0.021213X0.246073X-0.246073X0.021213X0*%
%ADD38RoundRect,0.239000X0.239000X0.274000X-0.239000X0.274000X-0.239000X-0.274000X0.239000X-0.274000X0*%
%ADD39C,0.650000*%
%ADD40RoundRect,0.150000X-0.150000X-0.425000X0.150000X-0.425000X0.150000X0.425000X-0.150000X0.425000X0*%
%ADD41RoundRect,0.075000X-0.075000X-0.500000X0.075000X-0.500000X0.075000X0.500000X-0.075000X0.500000X0*%
%ADD42O,1.000000X2.100000*%
%ADD43O,1.000000X1.800000*%
%ADD44RoundRect,0.250000X-0.650000X-0.250000X0.650000X-0.250000X0.650000X0.250000X-0.650000X0.250000X0*%
%ADD45RoundRect,0.244000X0.362746X0.017678X0.017678X0.362746X-0.362746X-0.017678X-0.017678X-0.362746X0*%
%ADD46RoundRect,0.258261X1.029739X0.929739X-1.029739X0.929739X-1.029739X-0.929739X1.029739X-0.929739X0*%
%ADD47RoundRect,0.150000X-0.150000X0.587500X-0.150000X-0.587500X0.150000X-0.587500X0.150000X0.587500X0*%
%ADD48RoundRect,0.250000X-0.350000X0.450000X-0.350000X-0.450000X0.350000X-0.450000X0.350000X0.450000X0*%
%ADD49RoundRect,0.250002X-1.799998X-1.799998X1.799998X-1.799998X1.799998X1.799998X-1.799998X1.799998X0*%
%ADD50R,2.400000X3.100000*%
%ADD51RoundRect,0.150000X-0.737500X-0.150000X0.737500X-0.150000X0.737500X0.150000X-0.737500X0.150000X0*%
%ADD52C,2.850000*%
%ADD53RoundRect,0.249999X0.525001X-0.525001X0.525001X0.525001X-0.525001X0.525001X-0.525001X-0.525001X0*%
%ADD54C,1.550000*%
%ADD55RoundRect,0.220000X-0.024749X0.335876X-0.335876X0.024749X0.024749X-0.335876X0.335876X-0.024749X0*%
%ADD56RoundRect,0.050000X-0.050000X0.437500X-0.050000X-0.437500X0.050000X-0.437500X0.050000X0.437500X0*%
%ADD57RoundRect,0.050000X-0.050000X0.337500X-0.050000X-0.337500X0.050000X-0.337500X0.050000X0.337500X0*%
%ADD58RoundRect,0.050000X-0.337500X0.050000X-0.337500X-0.050000X0.337500X-0.050000X0.337500X0.050000X0*%
%ADD59RoundRect,0.162500X0.650000X0.162500X-0.650000X0.162500X-0.650000X-0.162500X0.650000X-0.162500X0*%
%ADD60RoundRect,0.250000X1.750000X1.000000X-1.750000X1.000000X-1.750000X-1.000000X1.750000X-1.000000X0*%
%ADD61RoundRect,0.258261X-0.929739X1.029739X-0.929739X-1.029739X0.929739X-1.029739X0.929739X1.029739X0*%
%ADD62RoundRect,0.239000X-0.239000X-0.274000X0.239000X-0.274000X0.239000X0.274000X-0.239000X0.274000X0*%
%ADD63C,1.600000*%
%ADD64C,3.100000*%
%ADD65C,4.700000*%
%ADD66RoundRect,0.075000X-0.662500X-0.075000X0.662500X-0.075000X0.662500X0.075000X-0.662500X0.075000X0*%
%ADD67RoundRect,0.075000X-0.075000X-0.662500X0.075000X-0.662500X0.075000X0.662500X-0.075000X0.662500X0*%
%ADD68RoundRect,0.267273X-0.320727X-0.570727X0.320727X-0.570727X0.320727X0.570727X-0.320727X0.570727X0*%
%ADD69RoundRect,0.100000X-0.100000X0.125000X-0.100000X-0.125000X0.100000X-0.125000X0.100000X0.125000X0*%
%ADD70RoundRect,0.250000X0.350000X-0.450000X0.350000X0.450000X-0.350000X0.450000X-0.350000X-0.450000X0*%
%ADD71RoundRect,0.050000X-0.437500X-0.050000X0.437500X-0.050000X0.437500X0.050000X-0.437500X0.050000X0*%
%ADD72RoundRect,0.050000X-0.337500X-0.050000X0.337500X-0.050000X0.337500X0.050000X-0.337500X0.050000X0*%
%ADD73RoundRect,0.050000X-0.050000X-0.337500X0.050000X-0.337500X0.050000X0.337500X-0.050000X0.337500X0*%
%ADD74C,2.700000*%
%ADD75RoundRect,0.375000X0.375000X-0.625000X0.375000X0.625000X-0.375000X0.625000X-0.375000X-0.625000X0*%
%ADD76RoundRect,0.500000X1.400000X-0.500000X1.400000X0.500000X-1.400000X0.500000X-1.400000X-0.500000X0*%
%ADD77RoundRect,0.250000X-0.565685X0.070711X0.070711X-0.565685X0.565685X-0.070711X-0.070711X0.565685X0*%
%ADD78RoundRect,0.062500X0.350000X0.062500X-0.350000X0.062500X-0.350000X-0.062500X0.350000X-0.062500X0*%
%ADD79RoundRect,0.062500X0.062500X0.350000X-0.062500X0.350000X-0.062500X-0.350000X0.062500X-0.350000X0*%
%ADD80R,1.700000X1.700000*%
%ADD81C,3.250000*%
%ADD82R,1.500000X1.500000*%
%ADD83C,1.500000*%
%ADD84C,2.300000*%
%ADD85C,1.800000*%
%ADD86C,2.000000*%
%ADD87RoundRect,0.250000X-1.749998X-1.000000X1.749998X-1.000000X1.749998X1.000000X-1.749998X1.000000X0*%
%ADD88RoundRect,0.190500X0.444500X-1.079500X0.444500X1.079500X-0.444500X1.079500X-0.444500X-1.079500X0*%
%ADD89RoundRect,0.251091X-1.743841X-1.004366X1.743841X-1.004366X1.743841X1.004366X-1.743841X1.004366X0*%
%ADD90RoundRect,0.219000X0.219000X0.294000X-0.219000X0.294000X-0.219000X-0.294000X0.219000X-0.294000X0*%
%ADD91R,1.000000X1.000000*%
%ADD92C,1.000000*%
G04 APERTURE END LIST*
D10*
X150850000Y-116100000D02*
X151100000Y-114950000D01*
X151100000Y-114950000D02*
X150650000Y-115450000D01*
X151100000Y-114950000D02*
X151350000Y-115500000D01*
X151850000Y-114500000D02*
X153550000Y-114500000D01*
X153400000Y-116100000D02*
X150850000Y-116100000D01*
X153550000Y-114500000D02*
X156100000Y-114500000D01*
X155100000Y-116100000D02*
X153400000Y-116100000D01*
X155850000Y-115650000D02*
X155600000Y-115100000D01*
X155850000Y-115650000D02*
X156300000Y-115150000D01*
X156100000Y-114500000D02*
X155850000Y-115650000D01*
X174000000Y-107925000D02*
X174000000Y-109075000D01*
X174000000Y-110025000D02*
X174000000Y-111175000D01*
X175000000Y-108000000D02*
X175000000Y-109150000D01*
X175029941Y-110020790D02*
X175029941Y-111170790D01*
X176000000Y-107925000D02*
X176000000Y-109075000D01*
X176000000Y-109975000D02*
X176000000Y-111125000D01*
X188516386Y-111383448D02*
X191766386Y-111383448D01*
X191766386Y-111383448D02*
X191066386Y-111833448D01*
X194449121Y-107990019D02*
X195314927Y-107990019D01*
X194783467Y-107994033D02*
X194783467Y-108994033D01*
X194783467Y-108994033D02*
X195307442Y-108994033D01*
X177639519Y-109472684D02*
X177639519Y-108872684D01*
X177639519Y-109158398D02*
X177982376Y-109158398D01*
X177982376Y-109472684D02*
X177982376Y-108872684D01*
X178268090Y-108872684D02*
X178268090Y-109358398D01*
X178268090Y-109358398D02*
X178296661Y-109415541D01*
X178296661Y-109415541D02*
X178325233Y-109444113D01*
X178325233Y-109444113D02*
X178382375Y-109472684D01*
X178382375Y-109472684D02*
X178496661Y-109472684D01*
X178496661Y-109472684D02*
X178553804Y-109444113D01*
X178553804Y-109444113D02*
X178582375Y-109415541D01*
X178582375Y-109415541D02*
X178610947Y-109358398D01*
X178610947Y-109358398D02*
X178610947Y-108872684D01*
X179096661Y-109158398D02*
X179182375Y-109186970D01*
X179182375Y-109186970D02*
X179210946Y-109215541D01*
X179210946Y-109215541D02*
X179239518Y-109272684D01*
X179239518Y-109272684D02*
X179239518Y-109358398D01*
X179239518Y-109358398D02*
X179210946Y-109415541D01*
X179210946Y-109415541D02*
X179182375Y-109444113D01*
X179182375Y-109444113D02*
X179125232Y-109472684D01*
X179125232Y-109472684D02*
X178896661Y-109472684D01*
X178896661Y-109472684D02*
X178896661Y-108872684D01*
X178896661Y-108872684D02*
X179096661Y-108872684D01*
X179096661Y-108872684D02*
X179153804Y-108901255D01*
X179153804Y-108901255D02*
X179182375Y-108929827D01*
X179182375Y-108929827D02*
X179210946Y-108986970D01*
X179210946Y-108986970D02*
X179210946Y-109044113D01*
X179210946Y-109044113D02*
X179182375Y-109101255D01*
X179182375Y-109101255D02*
X179153804Y-109129827D01*
X179153804Y-109129827D02*
X179096661Y-109158398D01*
X179096661Y-109158398D02*
X178896661Y-109158398D01*
X182451503Y-116821371D02*
X182251503Y-116535657D01*
X182108646Y-116821371D02*
X182108646Y-116221371D01*
X182108646Y-116221371D02*
X182337217Y-116221371D01*
X182337217Y-116221371D02*
X182394360Y-116249942D01*
X182394360Y-116249942D02*
X182422931Y-116278514D01*
X182422931Y-116278514D02*
X182451503Y-116335657D01*
X182451503Y-116335657D02*
X182451503Y-116421371D01*
X182451503Y-116421371D02*
X182422931Y-116478514D01*
X182422931Y-116478514D02*
X182394360Y-116507085D01*
X182394360Y-116507085D02*
X182337217Y-116535657D01*
X182337217Y-116535657D02*
X182108646Y-116535657D01*
X182680074Y-116792800D02*
X182765789Y-116821371D01*
X182765789Y-116821371D02*
X182908646Y-116821371D01*
X182908646Y-116821371D02*
X182965789Y-116792800D01*
X182965789Y-116792800D02*
X182994360Y-116764228D01*
X182994360Y-116764228D02*
X183022931Y-116707085D01*
X183022931Y-116707085D02*
X183022931Y-116649942D01*
X183022931Y-116649942D02*
X182994360Y-116592800D01*
X182994360Y-116592800D02*
X182965789Y-116564228D01*
X182965789Y-116564228D02*
X182908646Y-116535657D01*
X182908646Y-116535657D02*
X182794360Y-116507085D01*
X182794360Y-116507085D02*
X182737217Y-116478514D01*
X182737217Y-116478514D02*
X182708646Y-116449942D01*
X182708646Y-116449942D02*
X182680074Y-116392800D01*
X182680074Y-116392800D02*
X182680074Y-116335657D01*
X182680074Y-116335657D02*
X182708646Y-116278514D01*
X182708646Y-116278514D02*
X182737217Y-116249942D01*
X182737217Y-116249942D02*
X182794360Y-116221371D01*
X182794360Y-116221371D02*
X182937217Y-116221371D01*
X182937217Y-116221371D02*
X183022931Y-116249942D01*
X183194360Y-116221371D02*
X183537218Y-116221371D01*
X183365789Y-116821371D02*
X183365789Y-116221371D01*
X188408646Y-87721371D02*
X188408646Y-88207085D01*
X188408646Y-88207085D02*
X188437217Y-88264228D01*
X188437217Y-88264228D02*
X188465789Y-88292800D01*
X188465789Y-88292800D02*
X188522931Y-88321371D01*
X188522931Y-88321371D02*
X188637217Y-88321371D01*
X188637217Y-88321371D02*
X188694360Y-88292800D01*
X188694360Y-88292800D02*
X188722931Y-88264228D01*
X188722931Y-88264228D02*
X188751503Y-88207085D01*
X188751503Y-88207085D02*
X188751503Y-87721371D01*
X189008645Y-88292800D02*
X189094360Y-88321371D01*
X189094360Y-88321371D02*
X189237217Y-88321371D01*
X189237217Y-88321371D02*
X189294360Y-88292800D01*
X189294360Y-88292800D02*
X189322931Y-88264228D01*
X189322931Y-88264228D02*
X189351502Y-88207085D01*
X189351502Y-88207085D02*
X189351502Y-88149942D01*
X189351502Y-88149942D02*
X189322931Y-88092800D01*
X189322931Y-88092800D02*
X189294360Y-88064228D01*
X189294360Y-88064228D02*
X189237217Y-88035657D01*
X189237217Y-88035657D02*
X189122931Y-88007085D01*
X189122931Y-88007085D02*
X189065788Y-87978514D01*
X189065788Y-87978514D02*
X189037217Y-87949942D01*
X189037217Y-87949942D02*
X189008645Y-87892800D01*
X189008645Y-87892800D02*
X189008645Y-87835657D01*
X189008645Y-87835657D02*
X189037217Y-87778514D01*
X189037217Y-87778514D02*
X189065788Y-87749942D01*
X189065788Y-87749942D02*
X189122931Y-87721371D01*
X189122931Y-87721371D02*
X189265788Y-87721371D01*
X189265788Y-87721371D02*
X189351502Y-87749942D01*
X189608646Y-88007085D02*
X189808646Y-88007085D01*
X189894360Y-88321371D02*
X189608646Y-88321371D01*
X189608646Y-88321371D02*
X189608646Y-87721371D01*
X189608646Y-87721371D02*
X189894360Y-87721371D01*
X190494360Y-88321371D02*
X190294360Y-88035657D01*
X190151503Y-88321371D02*
X190151503Y-87721371D01*
X190151503Y-87721371D02*
X190380074Y-87721371D01*
X190380074Y-87721371D02*
X190437217Y-87749942D01*
X190437217Y-87749942D02*
X190465788Y-87778514D01*
X190465788Y-87778514D02*
X190494360Y-87835657D01*
X190494360Y-87835657D02*
X190494360Y-87921371D01*
X190494360Y-87921371D02*
X190465788Y-87978514D01*
X190465788Y-87978514D02*
X190437217Y-88007085D01*
X190437217Y-88007085D02*
X190380074Y-88035657D01*
X190380074Y-88035657D02*
X190151503Y-88035657D01*
X191208646Y-88321371D02*
X191208646Y-87721371D01*
X191208646Y-87721371D02*
X191437217Y-87721371D01*
X191437217Y-87721371D02*
X191494360Y-87749942D01*
X191494360Y-87749942D02*
X191522931Y-87778514D01*
X191522931Y-87778514D02*
X191551503Y-87835657D01*
X191551503Y-87835657D02*
X191551503Y-87921371D01*
X191551503Y-87921371D02*
X191522931Y-87978514D01*
X191522931Y-87978514D02*
X191494360Y-88007085D01*
X191494360Y-88007085D02*
X191437217Y-88035657D01*
X191437217Y-88035657D02*
X191208646Y-88035657D01*
X191808646Y-88321371D02*
X191808646Y-87721371D01*
X191808646Y-87721371D02*
X191951503Y-87721371D01*
X191951503Y-87721371D02*
X192037217Y-87749942D01*
X192037217Y-87749942D02*
X192094360Y-87807085D01*
X192094360Y-87807085D02*
X192122931Y-87864228D01*
X192122931Y-87864228D02*
X192151503Y-87978514D01*
X192151503Y-87978514D02*
X192151503Y-88064228D01*
X192151503Y-88064228D02*
X192122931Y-88178514D01*
X192122931Y-88178514D02*
X192094360Y-88235657D01*
X192094360Y-88235657D02*
X192037217Y-88292800D01*
X192037217Y-88292800D02*
X191951503Y-88321371D01*
X191951503Y-88321371D02*
X191808646Y-88321371D01*
X192380074Y-87778514D02*
X192408646Y-87749942D01*
X192408646Y-87749942D02*
X192465789Y-87721371D01*
X192465789Y-87721371D02*
X192608646Y-87721371D01*
X192608646Y-87721371D02*
X192665789Y-87749942D01*
X192665789Y-87749942D02*
X192694360Y-87778514D01*
X192694360Y-87778514D02*
X192722931Y-87835657D01*
X192722931Y-87835657D02*
X192722931Y-87892800D01*
X192722931Y-87892800D02*
X192694360Y-87978514D01*
X192694360Y-87978514D02*
X192351503Y-88321371D01*
X192351503Y-88321371D02*
X192722931Y-88321371D01*
X188825335Y-109662440D02*
X188825335Y-110148154D01*
X188825335Y-110148154D02*
X188853906Y-110205297D01*
X188853906Y-110205297D02*
X188882478Y-110233869D01*
X188882478Y-110233869D02*
X188939620Y-110262440D01*
X188939620Y-110262440D02*
X189053906Y-110262440D01*
X189053906Y-110262440D02*
X189111049Y-110233869D01*
X189111049Y-110233869D02*
X189139620Y-110205297D01*
X189139620Y-110205297D02*
X189168192Y-110148154D01*
X189168192Y-110148154D02*
X189168192Y-109662440D01*
X189425334Y-110233869D02*
X189511049Y-110262440D01*
X189511049Y-110262440D02*
X189653906Y-110262440D01*
X189653906Y-110262440D02*
X189711049Y-110233869D01*
X189711049Y-110233869D02*
X189739620Y-110205297D01*
X189739620Y-110205297D02*
X189768191Y-110148154D01*
X189768191Y-110148154D02*
X189768191Y-110091011D01*
X189768191Y-110091011D02*
X189739620Y-110033869D01*
X189739620Y-110033869D02*
X189711049Y-110005297D01*
X189711049Y-110005297D02*
X189653906Y-109976726D01*
X189653906Y-109976726D02*
X189539620Y-109948154D01*
X189539620Y-109948154D02*
X189482477Y-109919583D01*
X189482477Y-109919583D02*
X189453906Y-109891011D01*
X189453906Y-109891011D02*
X189425334Y-109833869D01*
X189425334Y-109833869D02*
X189425334Y-109776726D01*
X189425334Y-109776726D02*
X189453906Y-109719583D01*
X189453906Y-109719583D02*
X189482477Y-109691011D01*
X189482477Y-109691011D02*
X189539620Y-109662440D01*
X189539620Y-109662440D02*
X189682477Y-109662440D01*
X189682477Y-109662440D02*
X189768191Y-109691011D01*
X190225335Y-109948154D02*
X190311049Y-109976726D01*
X190311049Y-109976726D02*
X190339620Y-110005297D01*
X190339620Y-110005297D02*
X190368192Y-110062440D01*
X190368192Y-110062440D02*
X190368192Y-110148154D01*
X190368192Y-110148154D02*
X190339620Y-110205297D01*
X190339620Y-110205297D02*
X190311049Y-110233869D01*
X190311049Y-110233869D02*
X190253906Y-110262440D01*
X190253906Y-110262440D02*
X190025335Y-110262440D01*
X190025335Y-110262440D02*
X190025335Y-109662440D01*
X190025335Y-109662440D02*
X190225335Y-109662440D01*
X190225335Y-109662440D02*
X190282478Y-109691011D01*
X190282478Y-109691011D02*
X190311049Y-109719583D01*
X190311049Y-109719583D02*
X190339620Y-109776726D01*
X190339620Y-109776726D02*
X190339620Y-109833869D01*
X190339620Y-109833869D02*
X190311049Y-109891011D01*
X190311049Y-109891011D02*
X190282478Y-109919583D01*
X190282478Y-109919583D02*
X190225335Y-109948154D01*
X190225335Y-109948154D02*
X190025335Y-109948154D01*
X190996763Y-109662440D02*
X191339621Y-109662440D01*
X191168192Y-110262440D02*
X191168192Y-109662440D01*
X191511049Y-110091011D02*
X191796764Y-110091011D01*
X191453906Y-110262440D02*
X191653906Y-109662440D01*
X191653906Y-109662440D02*
X191853906Y-110262440D01*
X192053907Y-110262440D02*
X192053907Y-109662440D01*
X192396764Y-110262440D02*
X192139621Y-109919583D01*
X192396764Y-109662440D02*
X192053907Y-110005297D01*
X192653907Y-109948154D02*
X192853907Y-109948154D01*
X192939621Y-110262440D02*
X192653907Y-110262440D01*
X192653907Y-110262440D02*
X192653907Y-109662440D01*
X192653907Y-109662440D02*
X192939621Y-109662440D01*
X193168192Y-110091011D02*
X193453907Y-110091011D01*
X193111049Y-110262440D02*
X193311049Y-109662440D01*
X193311049Y-109662440D02*
X193511049Y-110262440D01*
X193653907Y-109662440D02*
X193796764Y-110262440D01*
X193796764Y-110262440D02*
X193911050Y-109833869D01*
X193911050Y-109833869D02*
X194025335Y-110262440D01*
X194025335Y-110262440D02*
X194168193Y-109662440D01*
X194368192Y-110091011D02*
X194653907Y-110091011D01*
X194311049Y-110262440D02*
X194511049Y-109662440D01*
X194511049Y-109662440D02*
X194711049Y-110262440D01*
X195025335Y-109976726D02*
X195025335Y-110262440D01*
X194825335Y-109662440D02*
X195025335Y-109976726D01*
X195025335Y-109976726D02*
X195225335Y-109662440D01*
X188815786Y-111070496D02*
X188901501Y-111099067D01*
X188901501Y-111099067D02*
X189044358Y-111099067D01*
X189044358Y-111099067D02*
X189101501Y-111070496D01*
X189101501Y-111070496D02*
X189130072Y-111041924D01*
X189130072Y-111041924D02*
X189158643Y-110984781D01*
X189158643Y-110984781D02*
X189158643Y-110927638D01*
X189158643Y-110927638D02*
X189130072Y-110870496D01*
X189130072Y-110870496D02*
X189101501Y-110841924D01*
X189101501Y-110841924D02*
X189044358Y-110813353D01*
X189044358Y-110813353D02*
X188930072Y-110784781D01*
X188930072Y-110784781D02*
X188872929Y-110756210D01*
X188872929Y-110756210D02*
X188844358Y-110727638D01*
X188844358Y-110727638D02*
X188815786Y-110670496D01*
X188815786Y-110670496D02*
X188815786Y-110613353D01*
X188815786Y-110613353D02*
X188844358Y-110556210D01*
X188844358Y-110556210D02*
X188872929Y-110527638D01*
X188872929Y-110527638D02*
X188930072Y-110499067D01*
X188930072Y-110499067D02*
X189072929Y-110499067D01*
X189072929Y-110499067D02*
X189158643Y-110527638D01*
X189358644Y-110499067D02*
X189501501Y-111099067D01*
X189501501Y-111099067D02*
X189615787Y-110670496D01*
X189615787Y-110670496D02*
X189730072Y-111099067D01*
X189730072Y-111099067D02*
X189872930Y-110499067D01*
X190101501Y-111099067D02*
X190101501Y-110499067D01*
X190301500Y-110499067D02*
X190644358Y-110499067D01*
X190472929Y-111099067D02*
X190472929Y-110499067D01*
X191187215Y-111041924D02*
X191158643Y-111070496D01*
X191158643Y-111070496D02*
X191072929Y-111099067D01*
X191072929Y-111099067D02*
X191015786Y-111099067D01*
X191015786Y-111099067D02*
X190930072Y-111070496D01*
X190930072Y-111070496D02*
X190872929Y-111013353D01*
X190872929Y-111013353D02*
X190844358Y-110956210D01*
X190844358Y-110956210D02*
X190815786Y-110841924D01*
X190815786Y-110841924D02*
X190815786Y-110756210D01*
X190815786Y-110756210D02*
X190844358Y-110641924D01*
X190844358Y-110641924D02*
X190872929Y-110584781D01*
X190872929Y-110584781D02*
X190930072Y-110527638D01*
X190930072Y-110527638D02*
X191015786Y-110499067D01*
X191015786Y-110499067D02*
X191072929Y-110499067D01*
X191072929Y-110499067D02*
X191158643Y-110527638D01*
X191158643Y-110527638D02*
X191187215Y-110556210D01*
X191444358Y-111099067D02*
X191444358Y-110499067D01*
X191444358Y-110784781D02*
X191787215Y-110784781D01*
X191787215Y-111099067D02*
X191787215Y-110499067D01*
X191539737Y-108259361D02*
X191539737Y-107659361D01*
X191539737Y-107659361D02*
X191768308Y-107659361D01*
X191768308Y-107659361D02*
X191825451Y-107687932D01*
X191825451Y-107687932D02*
X191854022Y-107716504D01*
X191854022Y-107716504D02*
X191882594Y-107773647D01*
X191882594Y-107773647D02*
X191882594Y-107859361D01*
X191882594Y-107859361D02*
X191854022Y-107916504D01*
X191854022Y-107916504D02*
X191825451Y-107945075D01*
X191825451Y-107945075D02*
X191768308Y-107973647D01*
X191768308Y-107973647D02*
X191539737Y-107973647D01*
X192482594Y-108259361D02*
X192282594Y-107973647D01*
X192139737Y-108259361D02*
X192139737Y-107659361D01*
X192139737Y-107659361D02*
X192368308Y-107659361D01*
X192368308Y-107659361D02*
X192425451Y-107687932D01*
X192425451Y-107687932D02*
X192454022Y-107716504D01*
X192454022Y-107716504D02*
X192482594Y-107773647D01*
X192482594Y-107773647D02*
X192482594Y-107859361D01*
X192482594Y-107859361D02*
X192454022Y-107916504D01*
X192454022Y-107916504D02*
X192425451Y-107945075D01*
X192425451Y-107945075D02*
X192368308Y-107973647D01*
X192368308Y-107973647D02*
X192139737Y-107973647D01*
X192854022Y-107659361D02*
X192968308Y-107659361D01*
X192968308Y-107659361D02*
X193025451Y-107687932D01*
X193025451Y-107687932D02*
X193082594Y-107745075D01*
X193082594Y-107745075D02*
X193111165Y-107859361D01*
X193111165Y-107859361D02*
X193111165Y-108059361D01*
X193111165Y-108059361D02*
X193082594Y-108173647D01*
X193082594Y-108173647D02*
X193025451Y-108230790D01*
X193025451Y-108230790D02*
X192968308Y-108259361D01*
X192968308Y-108259361D02*
X192854022Y-108259361D01*
X192854022Y-108259361D02*
X192796880Y-108230790D01*
X192796880Y-108230790D02*
X192739737Y-108173647D01*
X192739737Y-108173647D02*
X192711165Y-108059361D01*
X192711165Y-108059361D02*
X192711165Y-107859361D01*
X192711165Y-107859361D02*
X192739737Y-107745075D01*
X192739737Y-107745075D02*
X192796880Y-107687932D01*
X192796880Y-107687932D02*
X192854022Y-107659361D01*
X193568308Y-107945075D02*
X193654022Y-107973647D01*
X193654022Y-107973647D02*
X193682593Y-108002218D01*
X193682593Y-108002218D02*
X193711165Y-108059361D01*
X193711165Y-108059361D02*
X193711165Y-108145075D01*
X193711165Y-108145075D02*
X193682593Y-108202218D01*
X193682593Y-108202218D02*
X193654022Y-108230790D01*
X193654022Y-108230790D02*
X193596879Y-108259361D01*
X193596879Y-108259361D02*
X193368308Y-108259361D01*
X193368308Y-108259361D02*
X193368308Y-107659361D01*
X193368308Y-107659361D02*
X193568308Y-107659361D01*
X193568308Y-107659361D02*
X193625451Y-107687932D01*
X193625451Y-107687932D02*
X193654022Y-107716504D01*
X193654022Y-107716504D02*
X193682593Y-107773647D01*
X193682593Y-107773647D02*
X193682593Y-107830790D01*
X193682593Y-107830790D02*
X193654022Y-107887932D01*
X193654022Y-107887932D02*
X193625451Y-107916504D01*
X193625451Y-107916504D02*
X193568308Y-107945075D01*
X193568308Y-107945075D02*
X193368308Y-107945075D01*
X193968308Y-107945075D02*
X194168308Y-107945075D01*
X194254022Y-108259361D02*
X193968308Y-108259361D01*
X193968308Y-108259361D02*
X193968308Y-107659361D01*
X193968308Y-107659361D02*
X194254022Y-107659361D01*
X194908646Y-124621371D02*
X194908646Y-125107085D01*
X194908646Y-125107085D02*
X194937217Y-125164228D01*
X194937217Y-125164228D02*
X194965789Y-125192800D01*
X194965789Y-125192800D02*
X195022931Y-125221371D01*
X195022931Y-125221371D02*
X195137217Y-125221371D01*
X195137217Y-125221371D02*
X195194360Y-125192800D01*
X195194360Y-125192800D02*
X195222931Y-125164228D01*
X195222931Y-125164228D02*
X195251503Y-125107085D01*
X195251503Y-125107085D02*
X195251503Y-124621371D01*
X195508645Y-125192800D02*
X195594360Y-125221371D01*
X195594360Y-125221371D02*
X195737217Y-125221371D01*
X195737217Y-125221371D02*
X195794360Y-125192800D01*
X195794360Y-125192800D02*
X195822931Y-125164228D01*
X195822931Y-125164228D02*
X195851502Y-125107085D01*
X195851502Y-125107085D02*
X195851502Y-125049942D01*
X195851502Y-125049942D02*
X195822931Y-124992800D01*
X195822931Y-124992800D02*
X195794360Y-124964228D01*
X195794360Y-124964228D02*
X195737217Y-124935657D01*
X195737217Y-124935657D02*
X195622931Y-124907085D01*
X195622931Y-124907085D02*
X195565788Y-124878514D01*
X195565788Y-124878514D02*
X195537217Y-124849942D01*
X195537217Y-124849942D02*
X195508645Y-124792800D01*
X195508645Y-124792800D02*
X195508645Y-124735657D01*
X195508645Y-124735657D02*
X195537217Y-124678514D01*
X195537217Y-124678514D02*
X195565788Y-124649942D01*
X195565788Y-124649942D02*
X195622931Y-124621371D01*
X195622931Y-124621371D02*
X195765788Y-124621371D01*
X195765788Y-124621371D02*
X195851502Y-124649942D01*
X196308646Y-124907085D02*
X196394360Y-124935657D01*
X196394360Y-124935657D02*
X196422931Y-124964228D01*
X196422931Y-124964228D02*
X196451503Y-125021371D01*
X196451503Y-125021371D02*
X196451503Y-125107085D01*
X196451503Y-125107085D02*
X196422931Y-125164228D01*
X196422931Y-125164228D02*
X196394360Y-125192800D01*
X196394360Y-125192800D02*
X196337217Y-125221371D01*
X196337217Y-125221371D02*
X196108646Y-125221371D01*
X196108646Y-125221371D02*
X196108646Y-124621371D01*
X196108646Y-124621371D02*
X196308646Y-124621371D01*
X196308646Y-124621371D02*
X196365789Y-124649942D01*
X196365789Y-124649942D02*
X196394360Y-124678514D01*
X196394360Y-124678514D02*
X196422931Y-124735657D01*
X196422931Y-124735657D02*
X196422931Y-124792800D01*
X196422931Y-124792800D02*
X196394360Y-124849942D01*
X196394360Y-124849942D02*
X196365789Y-124878514D01*
X196365789Y-124878514D02*
X196308646Y-124907085D01*
X196308646Y-124907085D02*
X196108646Y-124907085D01*
X197137217Y-125049942D02*
X197422932Y-125049942D01*
X197080074Y-125221371D02*
X197280074Y-124621371D01*
X197280074Y-124621371D02*
X197480074Y-125221371D01*
X198022932Y-125164228D02*
X197994360Y-125192800D01*
X197994360Y-125192800D02*
X197908646Y-125221371D01*
X197908646Y-125221371D02*
X197851503Y-125221371D01*
X197851503Y-125221371D02*
X197765789Y-125192800D01*
X197765789Y-125192800D02*
X197708646Y-125135657D01*
X197708646Y-125135657D02*
X197680075Y-125078514D01*
X197680075Y-125078514D02*
X197651503Y-124964228D01*
X197651503Y-124964228D02*
X197651503Y-124878514D01*
X197651503Y-124878514D02*
X197680075Y-124764228D01*
X197680075Y-124764228D02*
X197708646Y-124707085D01*
X197708646Y-124707085D02*
X197765789Y-124649942D01*
X197765789Y-124649942D02*
X197851503Y-124621371D01*
X197851503Y-124621371D02*
X197908646Y-124621371D01*
X197908646Y-124621371D02*
X197994360Y-124649942D01*
X197994360Y-124649942D02*
X198022932Y-124678514D01*
X198194360Y-124621371D02*
X198537218Y-124621371D01*
X198365789Y-125221371D02*
X198365789Y-124621371D01*
D11*
X137094124Y-115083491D02*
X137065552Y-115112063D01*
X137065552Y-115112063D02*
X136979838Y-115140634D01*
X136979838Y-115140634D02*
X136922695Y-115140634D01*
X136922695Y-115140634D02*
X136836981Y-115112063D01*
X136836981Y-115112063D02*
X136779838Y-115054920D01*
X136779838Y-115054920D02*
X136751267Y-114997777D01*
X136751267Y-114997777D02*
X136722695Y-114883491D01*
X136722695Y-114883491D02*
X136722695Y-114797777D01*
X136722695Y-114797777D02*
X136751267Y-114683491D01*
X136751267Y-114683491D02*
X136779838Y-114626348D01*
X136779838Y-114626348D02*
X136836981Y-114569205D01*
X136836981Y-114569205D02*
X136922695Y-114540634D01*
X136922695Y-114540634D02*
X136979838Y-114540634D01*
X136979838Y-114540634D02*
X137065552Y-114569205D01*
X137065552Y-114569205D02*
X137094124Y-114597777D01*
X137322695Y-114969205D02*
X137608410Y-114969205D01*
X137265552Y-115140634D02*
X137465552Y-114540634D01*
X137465552Y-114540634D02*
X137665552Y-115140634D01*
X137865553Y-115140634D02*
X137865553Y-114540634D01*
X137865553Y-114540634D02*
X138208410Y-115140634D01*
X138208410Y-115140634D02*
X138208410Y-114540634D01*
X138465552Y-114597777D02*
X138494124Y-114569205D01*
X138494124Y-114569205D02*
X138551267Y-114540634D01*
X138551267Y-114540634D02*
X138694124Y-114540634D01*
X138694124Y-114540634D02*
X138751267Y-114569205D01*
X138751267Y-114569205D02*
X138779838Y-114597777D01*
X138779838Y-114597777D02*
X138808409Y-114654920D01*
X138808409Y-114654920D02*
X138808409Y-114712063D01*
X138808409Y-114712063D02*
X138779838Y-114797777D01*
X138779838Y-114797777D02*
X138436981Y-115140634D01*
X138436981Y-115140634D02*
X138808409Y-115140634D01*
X151741541Y-114918771D02*
X151741541Y-115404485D01*
X151741541Y-115404485D02*
X151770112Y-115461628D01*
X151770112Y-115461628D02*
X151798684Y-115490200D01*
X151798684Y-115490200D02*
X151855826Y-115518771D01*
X151855826Y-115518771D02*
X151970112Y-115518771D01*
X151970112Y-115518771D02*
X152027255Y-115490200D01*
X152027255Y-115490200D02*
X152055826Y-115461628D01*
X152055826Y-115461628D02*
X152084398Y-115404485D01*
X152084398Y-115404485D02*
X152084398Y-114918771D01*
X152341540Y-115490200D02*
X152427255Y-115518771D01*
X152427255Y-115518771D02*
X152570112Y-115518771D01*
X152570112Y-115518771D02*
X152627255Y-115490200D01*
X152627255Y-115490200D02*
X152655826Y-115461628D01*
X152655826Y-115461628D02*
X152684397Y-115404485D01*
X152684397Y-115404485D02*
X152684397Y-115347342D01*
X152684397Y-115347342D02*
X152655826Y-115290200D01*
X152655826Y-115290200D02*
X152627255Y-115261628D01*
X152627255Y-115261628D02*
X152570112Y-115233057D01*
X152570112Y-115233057D02*
X152455826Y-115204485D01*
X152455826Y-115204485D02*
X152398683Y-115175914D01*
X152398683Y-115175914D02*
X152370112Y-115147342D01*
X152370112Y-115147342D02*
X152341540Y-115090200D01*
X152341540Y-115090200D02*
X152341540Y-115033057D01*
X152341540Y-115033057D02*
X152370112Y-114975914D01*
X152370112Y-114975914D02*
X152398683Y-114947342D01*
X152398683Y-114947342D02*
X152455826Y-114918771D01*
X152455826Y-114918771D02*
X152598683Y-114918771D01*
X152598683Y-114918771D02*
X152684397Y-114947342D01*
X153141541Y-115204485D02*
X153227255Y-115233057D01*
X153227255Y-115233057D02*
X153255826Y-115261628D01*
X153255826Y-115261628D02*
X153284398Y-115318771D01*
X153284398Y-115318771D02*
X153284398Y-115404485D01*
X153284398Y-115404485D02*
X153255826Y-115461628D01*
X153255826Y-115461628D02*
X153227255Y-115490200D01*
X153227255Y-115490200D02*
X153170112Y-115518771D01*
X153170112Y-115518771D02*
X152941541Y-115518771D01*
X152941541Y-115518771D02*
X152941541Y-114918771D01*
X152941541Y-114918771D02*
X153141541Y-114918771D01*
X153141541Y-114918771D02*
X153198684Y-114947342D01*
X153198684Y-114947342D02*
X153227255Y-114975914D01*
X153227255Y-114975914D02*
X153255826Y-115033057D01*
X153255826Y-115033057D02*
X153255826Y-115090200D01*
X153255826Y-115090200D02*
X153227255Y-115147342D01*
X153227255Y-115147342D02*
X153198684Y-115175914D01*
X153198684Y-115175914D02*
X153141541Y-115204485D01*
X153141541Y-115204485D02*
X152941541Y-115204485D01*
X153541541Y-115290200D02*
X153998684Y-115290200D01*
X154255826Y-115490200D02*
X154341541Y-115518771D01*
X154341541Y-115518771D02*
X154484398Y-115518771D01*
X154484398Y-115518771D02*
X154541541Y-115490200D01*
X154541541Y-115490200D02*
X154570112Y-115461628D01*
X154570112Y-115461628D02*
X154598683Y-115404485D01*
X154598683Y-115404485D02*
X154598683Y-115347342D01*
X154598683Y-115347342D02*
X154570112Y-115290200D01*
X154570112Y-115290200D02*
X154541541Y-115261628D01*
X154541541Y-115261628D02*
X154484398Y-115233057D01*
X154484398Y-115233057D02*
X154370112Y-115204485D01*
X154370112Y-115204485D02*
X154312969Y-115175914D01*
X154312969Y-115175914D02*
X154284398Y-115147342D01*
X154284398Y-115147342D02*
X154255826Y-115090200D01*
X154255826Y-115090200D02*
X154255826Y-115033057D01*
X154255826Y-115033057D02*
X154284398Y-114975914D01*
X154284398Y-114975914D02*
X154312969Y-114947342D01*
X154312969Y-114947342D02*
X154370112Y-114918771D01*
X154370112Y-114918771D02*
X154512969Y-114918771D01*
X154512969Y-114918771D02*
X154598683Y-114947342D01*
X154798684Y-114918771D02*
X154941541Y-115518771D01*
X154941541Y-115518771D02*
X155055827Y-115090200D01*
X155055827Y-115090200D02*
X155170112Y-115518771D01*
X155170112Y-115518771D02*
X155312970Y-114918771D01*
X165584398Y-113861628D02*
X165555826Y-113890200D01*
X165555826Y-113890200D02*
X165470112Y-113918771D01*
X165470112Y-113918771D02*
X165412969Y-113918771D01*
X165412969Y-113918771D02*
X165327255Y-113890200D01*
X165327255Y-113890200D02*
X165270112Y-113833057D01*
X165270112Y-113833057D02*
X165241541Y-113775914D01*
X165241541Y-113775914D02*
X165212969Y-113661628D01*
X165212969Y-113661628D02*
X165212969Y-113575914D01*
X165212969Y-113575914D02*
X165241541Y-113461628D01*
X165241541Y-113461628D02*
X165270112Y-113404485D01*
X165270112Y-113404485D02*
X165327255Y-113347342D01*
X165327255Y-113347342D02*
X165412969Y-113318771D01*
X165412969Y-113318771D02*
X165470112Y-113318771D01*
X165470112Y-113318771D02*
X165555826Y-113347342D01*
X165555826Y-113347342D02*
X165584398Y-113375914D01*
X165812969Y-113747342D02*
X166098684Y-113747342D01*
X165755826Y-113918771D02*
X165955826Y-113318771D01*
X165955826Y-113318771D02*
X166155826Y-113918771D01*
X166355827Y-113918771D02*
X166355827Y-113318771D01*
X166355827Y-113318771D02*
X166698684Y-113918771D01*
X166698684Y-113918771D02*
X166698684Y-113318771D01*
X167298683Y-113918771D02*
X166955826Y-113918771D01*
X167127255Y-113918771D02*
X167127255Y-113318771D01*
X167127255Y-113318771D02*
X167070112Y-113404485D01*
X167070112Y-113404485D02*
X167012969Y-113461628D01*
X167012969Y-113461628D02*
X166955826Y-113490200D01*
X174367561Y-103890116D02*
X174424704Y-103890116D01*
X174424704Y-103890116D02*
X174481847Y-103918687D01*
X174481847Y-103918687D02*
X174510419Y-103947259D01*
X174510419Y-103947259D02*
X174538990Y-104004402D01*
X174538990Y-104004402D02*
X174567561Y-104118687D01*
X174567561Y-104118687D02*
X174567561Y-104261545D01*
X174567561Y-104261545D02*
X174538990Y-104375830D01*
X174538990Y-104375830D02*
X174510419Y-104432973D01*
X174510419Y-104432973D02*
X174481847Y-104461545D01*
X174481847Y-104461545D02*
X174424704Y-104490116D01*
X174424704Y-104490116D02*
X174367561Y-104490116D01*
X174367561Y-104490116D02*
X174310419Y-104461545D01*
X174310419Y-104461545D02*
X174281847Y-104432973D01*
X174281847Y-104432973D02*
X174253276Y-104375830D01*
X174253276Y-104375830D02*
X174224704Y-104261545D01*
X174224704Y-104261545D02*
X174224704Y-104118687D01*
X174224704Y-104118687D02*
X174253276Y-104004402D01*
X174253276Y-104004402D02*
X174281847Y-103947259D01*
X174281847Y-103947259D02*
X174310419Y-103918687D01*
X174310419Y-103918687D02*
X174367561Y-103890116D01*
X174567561Y-105456082D02*
X174224704Y-105456082D01*
X174396133Y-105456082D02*
X174396133Y-104856082D01*
X174396133Y-104856082D02*
X174338990Y-104941796D01*
X174338990Y-104941796D02*
X174281847Y-104998939D01*
X174281847Y-104998939D02*
X174224704Y-105027511D01*
X172898654Y-111535949D02*
X173384368Y-111535949D01*
X173384368Y-111535949D02*
X173441511Y-111507378D01*
X173441511Y-111507378D02*
X173470083Y-111478807D01*
X173470083Y-111478807D02*
X173498654Y-111421664D01*
X173498654Y-111421664D02*
X173498654Y-111307378D01*
X173498654Y-111307378D02*
X173470083Y-111250235D01*
X173470083Y-111250235D02*
X173441511Y-111221664D01*
X173441511Y-111221664D02*
X173384368Y-111193092D01*
X173384368Y-111193092D02*
X172898654Y-111193092D01*
X173470083Y-110935950D02*
X173498654Y-110850236D01*
X173498654Y-110850236D02*
X173498654Y-110707378D01*
X173498654Y-110707378D02*
X173470083Y-110650236D01*
X173470083Y-110650236D02*
X173441511Y-110621664D01*
X173441511Y-110621664D02*
X173384368Y-110593093D01*
X173384368Y-110593093D02*
X173327225Y-110593093D01*
X173327225Y-110593093D02*
X173270083Y-110621664D01*
X173270083Y-110621664D02*
X173241511Y-110650236D01*
X173241511Y-110650236D02*
X173212940Y-110707378D01*
X173212940Y-110707378D02*
X173184368Y-110821664D01*
X173184368Y-110821664D02*
X173155797Y-110878807D01*
X173155797Y-110878807D02*
X173127225Y-110907378D01*
X173127225Y-110907378D02*
X173070083Y-110935950D01*
X173070083Y-110935950D02*
X173012940Y-110935950D01*
X173012940Y-110935950D02*
X172955797Y-110907378D01*
X172955797Y-110907378D02*
X172927225Y-110878807D01*
X172927225Y-110878807D02*
X172898654Y-110821664D01*
X172898654Y-110821664D02*
X172898654Y-110678807D01*
X172898654Y-110678807D02*
X172927225Y-110593093D01*
X173184368Y-110135949D02*
X173212940Y-110050235D01*
X173212940Y-110050235D02*
X173241511Y-110021664D01*
X173241511Y-110021664D02*
X173298654Y-109993092D01*
X173298654Y-109993092D02*
X173384368Y-109993092D01*
X173384368Y-109993092D02*
X173441511Y-110021664D01*
X173441511Y-110021664D02*
X173470083Y-110050235D01*
X173470083Y-110050235D02*
X173498654Y-110107378D01*
X173498654Y-110107378D02*
X173498654Y-110335949D01*
X173498654Y-110335949D02*
X172898654Y-110335949D01*
X172898654Y-110335949D02*
X172898654Y-110135949D01*
X172898654Y-110135949D02*
X172927225Y-110078807D01*
X172927225Y-110078807D02*
X172955797Y-110050235D01*
X172955797Y-110050235D02*
X173012940Y-110021664D01*
X173012940Y-110021664D02*
X173070083Y-110021664D01*
X173070083Y-110021664D02*
X173127225Y-110050235D01*
X173127225Y-110050235D02*
X173155797Y-110078807D01*
X173155797Y-110078807D02*
X173184368Y-110135949D01*
X173184368Y-110135949D02*
X173184368Y-110335949D01*
X173270083Y-109735949D02*
X173270083Y-109278807D01*
X173184368Y-108793092D02*
X173212940Y-108707378D01*
X173212940Y-108707378D02*
X173241511Y-108678807D01*
X173241511Y-108678807D02*
X173298654Y-108650235D01*
X173298654Y-108650235D02*
X173384368Y-108650235D01*
X173384368Y-108650235D02*
X173441511Y-108678807D01*
X173441511Y-108678807D02*
X173470083Y-108707378D01*
X173470083Y-108707378D02*
X173498654Y-108764521D01*
X173498654Y-108764521D02*
X173498654Y-108993092D01*
X173498654Y-108993092D02*
X172898654Y-108993092D01*
X172898654Y-108993092D02*
X172898654Y-108793092D01*
X172898654Y-108793092D02*
X172927225Y-108735950D01*
X172927225Y-108735950D02*
X172955797Y-108707378D01*
X172955797Y-108707378D02*
X173012940Y-108678807D01*
X173012940Y-108678807D02*
X173070083Y-108678807D01*
X173070083Y-108678807D02*
X173127225Y-108707378D01*
X173127225Y-108707378D02*
X173155797Y-108735950D01*
X173155797Y-108735950D02*
X173184368Y-108793092D01*
X173184368Y-108793092D02*
X173184368Y-108993092D01*
X173212940Y-108278807D02*
X173498654Y-108278807D01*
X172898654Y-108478807D02*
X173212940Y-108278807D01*
X173212940Y-108278807D02*
X172898654Y-108078807D01*
X173498654Y-107878806D02*
X172898654Y-107878806D01*
X172898654Y-107878806D02*
X172898654Y-107650235D01*
X172898654Y-107650235D02*
X172927225Y-107593092D01*
X172927225Y-107593092D02*
X172955797Y-107564521D01*
X172955797Y-107564521D02*
X173012940Y-107535949D01*
X173012940Y-107535949D02*
X173098654Y-107535949D01*
X173098654Y-107535949D02*
X173155797Y-107564521D01*
X173155797Y-107564521D02*
X173184368Y-107593092D01*
X173184368Y-107593092D02*
X173212940Y-107650235D01*
X173212940Y-107650235D02*
X173212940Y-107878806D01*
D12*
X168283958Y-106663123D02*
X168664911Y-106663123D01*
X168207768Y-106891695D02*
X168474435Y-106091695D01*
X168474435Y-106091695D02*
X168741101Y-106891695D01*
X168969672Y-106167885D02*
X169007768Y-106129790D01*
X169007768Y-106129790D02*
X169083958Y-106091695D01*
X169083958Y-106091695D02*
X169274434Y-106091695D01*
X169274434Y-106091695D02*
X169350625Y-106129790D01*
X169350625Y-106129790D02*
X169388720Y-106167885D01*
X169388720Y-106167885D02*
X169426815Y-106244076D01*
X169426815Y-106244076D02*
X169426815Y-106320266D01*
X169426815Y-106320266D02*
X169388720Y-106434552D01*
X169388720Y-106434552D02*
X168931577Y-106891695D01*
X168931577Y-106891695D02*
X169426815Y-106891695D01*
X170341101Y-106663123D02*
X170722054Y-106663123D01*
X170264911Y-106891695D02*
X170531578Y-106091695D01*
X170531578Y-106091695D02*
X170798244Y-106891695D01*
X171483958Y-106891695D02*
X171026815Y-106891695D01*
X171255387Y-106891695D02*
X171255387Y-106091695D01*
X171255387Y-106091695D02*
X171179196Y-106205980D01*
X171179196Y-106205980D02*
X171103006Y-106282171D01*
X171103006Y-106282171D02*
X171026815Y-106320266D01*
X172398244Y-106663123D02*
X172779197Y-106663123D01*
X172322054Y-106891695D02*
X172588721Y-106091695D01*
X172588721Y-106091695D02*
X172855387Y-106891695D01*
X173274435Y-106091695D02*
X173350625Y-106091695D01*
X173350625Y-106091695D02*
X173426816Y-106129790D01*
X173426816Y-106129790D02*
X173464911Y-106167885D01*
X173464911Y-106167885D02*
X173503006Y-106244076D01*
X173503006Y-106244076D02*
X173541101Y-106396457D01*
X173541101Y-106396457D02*
X173541101Y-106586933D01*
X173541101Y-106586933D02*
X173503006Y-106739314D01*
X173503006Y-106739314D02*
X173464911Y-106815504D01*
X173464911Y-106815504D02*
X173426816Y-106853600D01*
X173426816Y-106853600D02*
X173350625Y-106891695D01*
X173350625Y-106891695D02*
X173274435Y-106891695D01*
X173274435Y-106891695D02*
X173198244Y-106853600D01*
X173198244Y-106853600D02*
X173160149Y-106815504D01*
X173160149Y-106815504D02*
X173122054Y-106739314D01*
X173122054Y-106739314D02*
X173083958Y-106586933D01*
X173083958Y-106586933D02*
X173083958Y-106396457D01*
X173083958Y-106396457D02*
X173122054Y-106244076D01*
X173122054Y-106244076D02*
X173160149Y-106167885D01*
X173160149Y-106167885D02*
X173198244Y-106129790D01*
X173198244Y-106129790D02*
X173274435Y-106091695D01*
X195927352Y-90188720D02*
X195889257Y-90303006D01*
X195889257Y-90303006D02*
X195851161Y-90341101D01*
X195851161Y-90341101D02*
X195774971Y-90379197D01*
X195774971Y-90379197D02*
X195660685Y-90379197D01*
X195660685Y-90379197D02*
X195584495Y-90341101D01*
X195584495Y-90341101D02*
X195546400Y-90303006D01*
X195546400Y-90303006D02*
X195508304Y-90226816D01*
X195508304Y-90226816D02*
X195508304Y-89922054D01*
X195508304Y-89922054D02*
X196308304Y-89922054D01*
X196308304Y-89922054D02*
X196308304Y-90188720D01*
X196308304Y-90188720D02*
X196270209Y-90264911D01*
X196270209Y-90264911D02*
X196232114Y-90303006D01*
X196232114Y-90303006D02*
X196155923Y-90341101D01*
X196155923Y-90341101D02*
X196079733Y-90341101D01*
X196079733Y-90341101D02*
X196003542Y-90303006D01*
X196003542Y-90303006D02*
X195965447Y-90264911D01*
X195965447Y-90264911D02*
X195927352Y-90188720D01*
X195927352Y-90188720D02*
X195927352Y-89922054D01*
X196270209Y-91750625D02*
X196308304Y-91674435D01*
X196308304Y-91674435D02*
X196308304Y-91560149D01*
X196308304Y-91560149D02*
X196270209Y-91445863D01*
X196270209Y-91445863D02*
X196194019Y-91369673D01*
X196194019Y-91369673D02*
X196117828Y-91331578D01*
X196117828Y-91331578D02*
X195965447Y-91293482D01*
X195965447Y-91293482D02*
X195851161Y-91293482D01*
X195851161Y-91293482D02*
X195698780Y-91331578D01*
X195698780Y-91331578D02*
X195622590Y-91369673D01*
X195622590Y-91369673D02*
X195546400Y-91445863D01*
X195546400Y-91445863D02*
X195508304Y-91560149D01*
X195508304Y-91560149D02*
X195508304Y-91636340D01*
X195508304Y-91636340D02*
X195546400Y-91750625D01*
X195546400Y-91750625D02*
X195584495Y-91788721D01*
X195584495Y-91788721D02*
X195851161Y-91788721D01*
X195851161Y-91788721D02*
X195851161Y-91636340D01*
X195508304Y-93198245D02*
X195889257Y-92931578D01*
X195508304Y-92741102D02*
X196308304Y-92741102D01*
X196308304Y-92741102D02*
X196308304Y-93045864D01*
X196308304Y-93045864D02*
X196270209Y-93122054D01*
X196270209Y-93122054D02*
X196232114Y-93160149D01*
X196232114Y-93160149D02*
X196155923Y-93198245D01*
X196155923Y-93198245D02*
X196041638Y-93198245D01*
X196041638Y-93198245D02*
X195965447Y-93160149D01*
X195965447Y-93160149D02*
X195927352Y-93122054D01*
X195927352Y-93122054D02*
X195889257Y-93045864D01*
X195889257Y-93045864D02*
X195889257Y-92741102D01*
X195584495Y-94607769D02*
X195546400Y-94569673D01*
X195546400Y-94569673D02*
X195508304Y-94455388D01*
X195508304Y-94455388D02*
X195508304Y-94379197D01*
X195508304Y-94379197D02*
X195546400Y-94264911D01*
X195546400Y-94264911D02*
X195622590Y-94188721D01*
X195622590Y-94188721D02*
X195698780Y-94150626D01*
X195698780Y-94150626D02*
X195851161Y-94112530D01*
X195851161Y-94112530D02*
X195965447Y-94112530D01*
X195965447Y-94112530D02*
X196117828Y-94150626D01*
X196117828Y-94150626D02*
X196194019Y-94188721D01*
X196194019Y-94188721D02*
X196270209Y-94264911D01*
X196270209Y-94264911D02*
X196308304Y-94379197D01*
X196308304Y-94379197D02*
X196308304Y-94455388D01*
X196308304Y-94455388D02*
X196270209Y-94569673D01*
X196270209Y-94569673D02*
X196232114Y-94607769D01*
X195508304Y-95560150D02*
X196308304Y-95560150D01*
X196308304Y-95560150D02*
X196308304Y-95750626D01*
X196308304Y-95750626D02*
X196270209Y-95864912D01*
X196270209Y-95864912D02*
X196194019Y-95941102D01*
X196194019Y-95941102D02*
X196117828Y-95979197D01*
X196117828Y-95979197D02*
X195965447Y-96017293D01*
X195965447Y-96017293D02*
X195851161Y-96017293D01*
X195851161Y-96017293D02*
X195698780Y-95979197D01*
X195698780Y-95979197D02*
X195622590Y-95941102D01*
X195622590Y-95941102D02*
X195546400Y-95864912D01*
X195546400Y-95864912D02*
X195508304Y-95750626D01*
X195508304Y-95750626D02*
X195508304Y-95560150D01*
X196308304Y-96893483D02*
X196308304Y-97388721D01*
X196308304Y-97388721D02*
X196003542Y-97122055D01*
X196003542Y-97122055D02*
X196003542Y-97236340D01*
X196003542Y-97236340D02*
X195965447Y-97312531D01*
X195965447Y-97312531D02*
X195927352Y-97350626D01*
X195927352Y-97350626D02*
X195851161Y-97388721D01*
X195851161Y-97388721D02*
X195660685Y-97388721D01*
X195660685Y-97388721D02*
X195584495Y-97350626D01*
X195584495Y-97350626D02*
X195546400Y-97312531D01*
X195546400Y-97312531D02*
X195508304Y-97236340D01*
X195508304Y-97236340D02*
X195508304Y-97007769D01*
X195508304Y-97007769D02*
X195546400Y-96931578D01*
X195546400Y-96931578D02*
X195584495Y-96893483D01*
D11*
X135666666Y-129454819D02*
X135666666Y-130169104D01*
X135666666Y-130169104D02*
X135619047Y-130311961D01*
X135619047Y-130311961D02*
X135523809Y-130407200D01*
X135523809Y-130407200D02*
X135380952Y-130454819D01*
X135380952Y-130454819D02*
X135285714Y-130454819D01*
X136047619Y-129454819D02*
X136714285Y-129454819D01*
X136714285Y-129454819D02*
X136285714Y-130454819D01*
X124619048Y-115073866D02*
X125380953Y-115073866D01*
X134428571Y-115114700D02*
X135571429Y-115114700D01*
X135000000Y-115686128D02*
X135000000Y-114543271D01*
X147429831Y-97846412D02*
X148002251Y-98418832D01*
X148002251Y-98418832D02*
X148103266Y-98452504D01*
X148103266Y-98452504D02*
X148170610Y-98452504D01*
X148170610Y-98452504D02*
X148271625Y-98418832D01*
X148271625Y-98418832D02*
X148406312Y-98284145D01*
X148406312Y-98284145D02*
X148439984Y-98183130D01*
X148439984Y-98183130D02*
X148439984Y-98115786D01*
X148439984Y-98115786D02*
X148406312Y-98014771D01*
X148406312Y-98014771D02*
X147833892Y-97442351D01*
X149248106Y-97442351D02*
X148844045Y-97846412D01*
X149046075Y-97644382D02*
X148338969Y-96937275D01*
X148338969Y-96937275D02*
X148372640Y-97105634D01*
X148372640Y-97105634D02*
X148372640Y-97240321D01*
X148372640Y-97240321D02*
X148338969Y-97341336D01*
X198236679Y-115085580D02*
X198284298Y-114942723D01*
X198284298Y-114942723D02*
X198284298Y-114704628D01*
X198284298Y-114704628D02*
X198236679Y-114609390D01*
X198236679Y-114609390D02*
X198189059Y-114561771D01*
X198189059Y-114561771D02*
X198093821Y-114514152D01*
X198093821Y-114514152D02*
X197998583Y-114514152D01*
X197998583Y-114514152D02*
X197903345Y-114561771D01*
X197903345Y-114561771D02*
X197855726Y-114609390D01*
X197855726Y-114609390D02*
X197808107Y-114704628D01*
X197808107Y-114704628D02*
X197760488Y-114895104D01*
X197760488Y-114895104D02*
X197712869Y-114990342D01*
X197712869Y-114990342D02*
X197665250Y-115037961D01*
X197665250Y-115037961D02*
X197570012Y-115085580D01*
X197570012Y-115085580D02*
X197474774Y-115085580D01*
X197474774Y-115085580D02*
X197379536Y-115037961D01*
X197379536Y-115037961D02*
X197331917Y-114990342D01*
X197331917Y-114990342D02*
X197284298Y-114895104D01*
X197284298Y-114895104D02*
X197284298Y-114657009D01*
X197284298Y-114657009D02*
X197331917Y-114514152D01*
X197284298Y-114180818D02*
X198284298Y-113942723D01*
X198284298Y-113942723D02*
X197570012Y-113752247D01*
X197570012Y-113752247D02*
X198284298Y-113561771D01*
X198284298Y-113561771D02*
X197284298Y-113323676D01*
X197617631Y-112514152D02*
X198284298Y-112514152D01*
X197236679Y-112752247D02*
X197950964Y-112990342D01*
X197950964Y-112990342D02*
X197950964Y-112371295D01*
X145138095Y-115154819D02*
X145138095Y-115964342D01*
X145138095Y-115964342D02*
X145185714Y-116059580D01*
X145185714Y-116059580D02*
X145233333Y-116107200D01*
X145233333Y-116107200D02*
X145328571Y-116154819D01*
X145328571Y-116154819D02*
X145519047Y-116154819D01*
X145519047Y-116154819D02*
X145614285Y-116107200D01*
X145614285Y-116107200D02*
X145661904Y-116059580D01*
X145661904Y-116059580D02*
X145709523Y-115964342D01*
X145709523Y-115964342D02*
X145709523Y-115154819D01*
X146661904Y-115154819D02*
X146185714Y-115154819D01*
X146185714Y-115154819D02*
X146138095Y-115631009D01*
X146138095Y-115631009D02*
X146185714Y-115583390D01*
X146185714Y-115583390D02*
X146280952Y-115535771D01*
X146280952Y-115535771D02*
X146519047Y-115535771D01*
X146519047Y-115535771D02*
X146614285Y-115583390D01*
X146614285Y-115583390D02*
X146661904Y-115631009D01*
X146661904Y-115631009D02*
X146709523Y-115726247D01*
X146709523Y-115726247D02*
X146709523Y-115964342D01*
X146709523Y-115964342D02*
X146661904Y-116059580D01*
X146661904Y-116059580D02*
X146614285Y-116107200D01*
X146614285Y-116107200D02*
X146519047Y-116154819D01*
X146519047Y-116154819D02*
X146280952Y-116154819D01*
X146280952Y-116154819D02*
X146185714Y-116107200D01*
X146185714Y-116107200D02*
X146138095Y-116059580D01*
X180514285Y-130354819D02*
X180514285Y-131069104D01*
X180514285Y-131069104D02*
X180466666Y-131211961D01*
X180466666Y-131211961D02*
X180371428Y-131307200D01*
X180371428Y-131307200D02*
X180228571Y-131354819D01*
X180228571Y-131354819D02*
X180133333Y-131354819D01*
X181133333Y-130783390D02*
X181038095Y-130735771D01*
X181038095Y-130735771D02*
X180990476Y-130688152D01*
X180990476Y-130688152D02*
X180942857Y-130592914D01*
X180942857Y-130592914D02*
X180942857Y-130545295D01*
X180942857Y-130545295D02*
X180990476Y-130450057D01*
X180990476Y-130450057D02*
X181038095Y-130402438D01*
X181038095Y-130402438D02*
X181133333Y-130354819D01*
X181133333Y-130354819D02*
X181323809Y-130354819D01*
X181323809Y-130354819D02*
X181419047Y-130402438D01*
X181419047Y-130402438D02*
X181466666Y-130450057D01*
X181466666Y-130450057D02*
X181514285Y-130545295D01*
X181514285Y-130545295D02*
X181514285Y-130592914D01*
X181514285Y-130592914D02*
X181466666Y-130688152D01*
X181466666Y-130688152D02*
X181419047Y-130735771D01*
X181419047Y-130735771D02*
X181323809Y-130783390D01*
X181323809Y-130783390D02*
X181133333Y-130783390D01*
X181133333Y-130783390D02*
X181038095Y-130831009D01*
X181038095Y-130831009D02*
X180990476Y-130878628D01*
X180990476Y-130878628D02*
X180942857Y-130973866D01*
X180942857Y-130973866D02*
X180942857Y-131164342D01*
X180942857Y-131164342D02*
X180990476Y-131259580D01*
X180990476Y-131259580D02*
X181038095Y-131307200D01*
X181038095Y-131307200D02*
X181133333Y-131354819D01*
X181133333Y-131354819D02*
X181323809Y-131354819D01*
X181323809Y-131354819D02*
X181419047Y-131307200D01*
X181419047Y-131307200D02*
X181466666Y-131259580D01*
X181466666Y-131259580D02*
X181514285Y-131164342D01*
X181514285Y-131164342D02*
X181514285Y-130973866D01*
X181514285Y-130973866D02*
X181466666Y-130878628D01*
X181466666Y-130878628D02*
X181419047Y-130831009D01*
X181419047Y-130831009D02*
X181323809Y-130783390D01*
X182133333Y-130354819D02*
X182228571Y-130354819D01*
X182228571Y-130354819D02*
X182323809Y-130402438D01*
X182323809Y-130402438D02*
X182371428Y-130450057D01*
X182371428Y-130450057D02*
X182419047Y-130545295D01*
X182419047Y-130545295D02*
X182466666Y-130735771D01*
X182466666Y-130735771D02*
X182466666Y-130973866D01*
X182466666Y-130973866D02*
X182419047Y-131164342D01*
X182419047Y-131164342D02*
X182371428Y-131259580D01*
X182371428Y-131259580D02*
X182323809Y-131307200D01*
X182323809Y-131307200D02*
X182228571Y-131354819D01*
X182228571Y-131354819D02*
X182133333Y-131354819D01*
X182133333Y-131354819D02*
X182038095Y-131307200D01*
X182038095Y-131307200D02*
X181990476Y-131259580D01*
X181990476Y-131259580D02*
X181942857Y-131164342D01*
X181942857Y-131164342D02*
X181895238Y-130973866D01*
X181895238Y-130973866D02*
X181895238Y-130735771D01*
X181895238Y-130735771D02*
X181942857Y-130545295D01*
X181942857Y-130545295D02*
X181990476Y-130450057D01*
X181990476Y-130450057D02*
X182038095Y-130402438D01*
X182038095Y-130402438D02*
X182133333Y-130354819D01*
X183085714Y-130354819D02*
X183180952Y-130354819D01*
X183180952Y-130354819D02*
X183276190Y-130402438D01*
X183276190Y-130402438D02*
X183323809Y-130450057D01*
X183323809Y-130450057D02*
X183371428Y-130545295D01*
X183371428Y-130545295D02*
X183419047Y-130735771D01*
X183419047Y-130735771D02*
X183419047Y-130973866D01*
X183419047Y-130973866D02*
X183371428Y-131164342D01*
X183371428Y-131164342D02*
X183323809Y-131259580D01*
X183323809Y-131259580D02*
X183276190Y-131307200D01*
X183276190Y-131307200D02*
X183180952Y-131354819D01*
X183180952Y-131354819D02*
X183085714Y-131354819D01*
X183085714Y-131354819D02*
X182990476Y-131307200D01*
X182990476Y-131307200D02*
X182942857Y-131259580D01*
X182942857Y-131259580D02*
X182895238Y-131164342D01*
X182895238Y-131164342D02*
X182847619Y-130973866D01*
X182847619Y-130973866D02*
X182847619Y-130735771D01*
X182847619Y-130735771D02*
X182895238Y-130545295D01*
X182895238Y-130545295D02*
X182942857Y-130450057D01*
X182942857Y-130450057D02*
X182990476Y-130402438D01*
X182990476Y-130402438D02*
X183085714Y-130354819D01*
X122833333Y-98454819D02*
X122357143Y-98454819D01*
X122357143Y-98454819D02*
X122357143Y-97454819D01*
X123690476Y-98454819D02*
X123119048Y-98454819D01*
X123404762Y-98454819D02*
X123404762Y-97454819D01*
X123404762Y-97454819D02*
X123309524Y-97597676D01*
X123309524Y-97597676D02*
X123214286Y-97692914D01*
X123214286Y-97692914D02*
X123119048Y-97740533D01*
X108762295Y-106209523D02*
X109409914Y-106209523D01*
X109409914Y-106209523D02*
X109486104Y-106171428D01*
X109486104Y-106171428D02*
X109524200Y-106133333D01*
X109524200Y-106133333D02*
X109562295Y-106057142D01*
X109562295Y-106057142D02*
X109562295Y-105904761D01*
X109562295Y-105904761D02*
X109524200Y-105828571D01*
X109524200Y-105828571D02*
X109486104Y-105790476D01*
X109486104Y-105790476D02*
X109409914Y-105752380D01*
X109409914Y-105752380D02*
X108762295Y-105752380D01*
X108838485Y-105409524D02*
X108800390Y-105371428D01*
X108800390Y-105371428D02*
X108762295Y-105295238D01*
X108762295Y-105295238D02*
X108762295Y-105104762D01*
X108762295Y-105104762D02*
X108800390Y-105028571D01*
X108800390Y-105028571D02*
X108838485Y-104990476D01*
X108838485Y-104990476D02*
X108914676Y-104952381D01*
X108914676Y-104952381D02*
X108990866Y-104952381D01*
X108990866Y-104952381D02*
X109105152Y-104990476D01*
X109105152Y-104990476D02*
X109562295Y-105447619D01*
X109562295Y-105447619D02*
X109562295Y-104952381D01*
X100809761Y-107858773D02*
X100749285Y-107919250D01*
X100749285Y-107919250D02*
X100567856Y-107979726D01*
X100567856Y-107979726D02*
X100446904Y-107979726D01*
X100446904Y-107979726D02*
X100265475Y-107919250D01*
X100265475Y-107919250D02*
X100144523Y-107798297D01*
X100144523Y-107798297D02*
X100084046Y-107677345D01*
X100084046Y-107677345D02*
X100023570Y-107435440D01*
X100023570Y-107435440D02*
X100023570Y-107254011D01*
X100023570Y-107254011D02*
X100084046Y-107012107D01*
X100084046Y-107012107D02*
X100144523Y-106891154D01*
X100144523Y-106891154D02*
X100265475Y-106770202D01*
X100265475Y-106770202D02*
X100446904Y-106709726D01*
X100446904Y-106709726D02*
X100567856Y-106709726D01*
X100567856Y-106709726D02*
X100749285Y-106770202D01*
X100749285Y-106770202D02*
X100809761Y-106830678D01*
X102019285Y-107979726D02*
X101293570Y-107979726D01*
X101656427Y-107979726D02*
X101656427Y-106709726D01*
X101656427Y-106709726D02*
X101535475Y-106891154D01*
X101535475Y-106891154D02*
X101414523Y-107012107D01*
X101414523Y-107012107D02*
X101293570Y-107072583D01*
X102744999Y-107254011D02*
X102624047Y-107193535D01*
X102624047Y-107193535D02*
X102563570Y-107133059D01*
X102563570Y-107133059D02*
X102503094Y-107012107D01*
X102503094Y-107012107D02*
X102503094Y-106951630D01*
X102503094Y-106951630D02*
X102563570Y-106830678D01*
X102563570Y-106830678D02*
X102624047Y-106770202D01*
X102624047Y-106770202D02*
X102744999Y-106709726D01*
X102744999Y-106709726D02*
X102986904Y-106709726D01*
X102986904Y-106709726D02*
X103107856Y-106770202D01*
X103107856Y-106770202D02*
X103168332Y-106830678D01*
X103168332Y-106830678D02*
X103228809Y-106951630D01*
X103228809Y-106951630D02*
X103228809Y-107012107D01*
X103228809Y-107012107D02*
X103168332Y-107133059D01*
X103168332Y-107133059D02*
X103107856Y-107193535D01*
X103107856Y-107193535D02*
X102986904Y-107254011D01*
X102986904Y-107254011D02*
X102744999Y-107254011D01*
X102744999Y-107254011D02*
X102624047Y-107314488D01*
X102624047Y-107314488D02*
X102563570Y-107374964D01*
X102563570Y-107374964D02*
X102503094Y-107495916D01*
X102503094Y-107495916D02*
X102503094Y-107737821D01*
X102503094Y-107737821D02*
X102563570Y-107858773D01*
X102563570Y-107858773D02*
X102624047Y-107919250D01*
X102624047Y-107919250D02*
X102744999Y-107979726D01*
X102744999Y-107979726D02*
X102986904Y-107979726D01*
X102986904Y-107979726D02*
X103107856Y-107919250D01*
X103107856Y-107919250D02*
X103168332Y-107858773D01*
X103168332Y-107858773D02*
X103228809Y-107737821D01*
X103228809Y-107737821D02*
X103228809Y-107495916D01*
X103228809Y-107495916D02*
X103168332Y-107374964D01*
X103168332Y-107374964D02*
X103107856Y-107314488D01*
X103107856Y-107314488D02*
X102986904Y-107254011D01*
X104377856Y-106709726D02*
X103773094Y-106709726D01*
X103773094Y-106709726D02*
X103712618Y-107314488D01*
X103712618Y-107314488D02*
X103773094Y-107254011D01*
X103773094Y-107254011D02*
X103894047Y-107193535D01*
X103894047Y-107193535D02*
X104196428Y-107193535D01*
X104196428Y-107193535D02*
X104317380Y-107254011D01*
X104317380Y-107254011D02*
X104377856Y-107314488D01*
X104377856Y-107314488D02*
X104438333Y-107435440D01*
X104438333Y-107435440D02*
X104438333Y-107737821D01*
X104438333Y-107737821D02*
X104377856Y-107858773D01*
X104377856Y-107858773D02*
X104317380Y-107919250D01*
X104317380Y-107919250D02*
X104196428Y-107979726D01*
X104196428Y-107979726D02*
X103894047Y-107979726D01*
X103894047Y-107979726D02*
X103773094Y-107919250D01*
X103773094Y-107919250D02*
X103712618Y-107858773D01*
X105224523Y-106709726D02*
X105345476Y-106709726D01*
X105345476Y-106709726D02*
X105466428Y-106770202D01*
X105466428Y-106770202D02*
X105526904Y-106830678D01*
X105526904Y-106830678D02*
X105587380Y-106951630D01*
X105587380Y-106951630D02*
X105647857Y-107193535D01*
X105647857Y-107193535D02*
X105647857Y-107495916D01*
X105647857Y-107495916D02*
X105587380Y-107737821D01*
X105587380Y-107737821D02*
X105526904Y-107858773D01*
X105526904Y-107858773D02*
X105466428Y-107919250D01*
X105466428Y-107919250D02*
X105345476Y-107979726D01*
X105345476Y-107979726D02*
X105224523Y-107979726D01*
X105224523Y-107979726D02*
X105103571Y-107919250D01*
X105103571Y-107919250D02*
X105043095Y-107858773D01*
X105043095Y-107858773D02*
X104982618Y-107737821D01*
X104982618Y-107737821D02*
X104922142Y-107495916D01*
X104922142Y-107495916D02*
X104922142Y-107193535D01*
X104922142Y-107193535D02*
X104982618Y-106951630D01*
X104982618Y-106951630D02*
X105043095Y-106830678D01*
X105043095Y-106830678D02*
X105103571Y-106770202D01*
X105103571Y-106770202D02*
X105224523Y-106709726D01*
X106071190Y-106709726D02*
X106857381Y-106709726D01*
X106857381Y-106709726D02*
X106434047Y-107193535D01*
X106434047Y-107193535D02*
X106615476Y-107193535D01*
X106615476Y-107193535D02*
X106736428Y-107254011D01*
X106736428Y-107254011D02*
X106796904Y-107314488D01*
X106796904Y-107314488D02*
X106857381Y-107435440D01*
X106857381Y-107435440D02*
X106857381Y-107737821D01*
X106857381Y-107737821D02*
X106796904Y-107858773D01*
X106796904Y-107858773D02*
X106736428Y-107919250D01*
X106736428Y-107919250D02*
X106615476Y-107979726D01*
X106615476Y-107979726D02*
X106252619Y-107979726D01*
X106252619Y-107979726D02*
X106131666Y-107919250D01*
X106131666Y-107919250D02*
X106071190Y-107858773D01*
X108006428Y-106709726D02*
X107401666Y-106709726D01*
X107401666Y-106709726D02*
X107341190Y-107314488D01*
X107341190Y-107314488D02*
X107401666Y-107254011D01*
X107401666Y-107254011D02*
X107522619Y-107193535D01*
X107522619Y-107193535D02*
X107825000Y-107193535D01*
X107825000Y-107193535D02*
X107945952Y-107254011D01*
X107945952Y-107254011D02*
X108006428Y-107314488D01*
X108006428Y-107314488D02*
X108066905Y-107435440D01*
X108066905Y-107435440D02*
X108066905Y-107737821D01*
X108066905Y-107737821D02*
X108006428Y-107858773D01*
X108006428Y-107858773D02*
X107945952Y-107919250D01*
X107945952Y-107919250D02*
X107825000Y-107979726D01*
X107825000Y-107979726D02*
X107522619Y-107979726D01*
X107522619Y-107979726D02*
X107401666Y-107919250D01*
X107401666Y-107919250D02*
X107341190Y-107858773D01*
X109155476Y-107133059D02*
X109155476Y-107979726D01*
X108853095Y-106649250D02*
X108550714Y-107556392D01*
X108550714Y-107556392D02*
X109336905Y-107556392D01*
X169471428Y-111169771D02*
X169471428Y-111655485D01*
X169471428Y-111655485D02*
X169499999Y-111712628D01*
X169499999Y-111712628D02*
X169528571Y-111741200D01*
X169528571Y-111741200D02*
X169585713Y-111769771D01*
X169585713Y-111769771D02*
X169699999Y-111769771D01*
X169699999Y-111769771D02*
X169757142Y-111741200D01*
X169757142Y-111741200D02*
X169785713Y-111712628D01*
X169785713Y-111712628D02*
X169814285Y-111655485D01*
X169814285Y-111655485D02*
X169814285Y-111169771D01*
X170185713Y-111426914D02*
X170128570Y-111398342D01*
X170128570Y-111398342D02*
X170099999Y-111369771D01*
X170099999Y-111369771D02*
X170071427Y-111312628D01*
X170071427Y-111312628D02*
X170071427Y-111284057D01*
X170071427Y-111284057D02*
X170099999Y-111226914D01*
X170099999Y-111226914D02*
X170128570Y-111198342D01*
X170128570Y-111198342D02*
X170185713Y-111169771D01*
X170185713Y-111169771D02*
X170299999Y-111169771D01*
X170299999Y-111169771D02*
X170357142Y-111198342D01*
X170357142Y-111198342D02*
X170385713Y-111226914D01*
X170385713Y-111226914D02*
X170414284Y-111284057D01*
X170414284Y-111284057D02*
X170414284Y-111312628D01*
X170414284Y-111312628D02*
X170385713Y-111369771D01*
X170385713Y-111369771D02*
X170357142Y-111398342D01*
X170357142Y-111398342D02*
X170299999Y-111426914D01*
X170299999Y-111426914D02*
X170185713Y-111426914D01*
X170185713Y-111426914D02*
X170128570Y-111455485D01*
X170128570Y-111455485D02*
X170099999Y-111484057D01*
X170099999Y-111484057D02*
X170071427Y-111541200D01*
X170071427Y-111541200D02*
X170071427Y-111655485D01*
X170071427Y-111655485D02*
X170099999Y-111712628D01*
X170099999Y-111712628D02*
X170128570Y-111741200D01*
X170128570Y-111741200D02*
X170185713Y-111769771D01*
X170185713Y-111769771D02*
X170299999Y-111769771D01*
X170299999Y-111769771D02*
X170357142Y-111741200D01*
X170357142Y-111741200D02*
X170385713Y-111712628D01*
X170385713Y-111712628D02*
X170414284Y-111655485D01*
X170414284Y-111655485D02*
X170414284Y-111541200D01*
X170414284Y-111541200D02*
X170385713Y-111484057D01*
X170385713Y-111484057D02*
X170357142Y-111455485D01*
X170357142Y-111455485D02*
X170299999Y-111426914D01*
X170785713Y-111169771D02*
X170842856Y-111169771D01*
X170842856Y-111169771D02*
X170899999Y-111198342D01*
X170899999Y-111198342D02*
X170928571Y-111226914D01*
X170928571Y-111226914D02*
X170957142Y-111284057D01*
X170957142Y-111284057D02*
X170985713Y-111398342D01*
X170985713Y-111398342D02*
X170985713Y-111541200D01*
X170985713Y-111541200D02*
X170957142Y-111655485D01*
X170957142Y-111655485D02*
X170928571Y-111712628D01*
X170928571Y-111712628D02*
X170899999Y-111741200D01*
X170899999Y-111741200D02*
X170842856Y-111769771D01*
X170842856Y-111769771D02*
X170785713Y-111769771D01*
X170785713Y-111769771D02*
X170728571Y-111741200D01*
X170728571Y-111741200D02*
X170699999Y-111712628D01*
X170699999Y-111712628D02*
X170671428Y-111655485D01*
X170671428Y-111655485D02*
X170642856Y-111541200D01*
X170642856Y-111541200D02*
X170642856Y-111398342D01*
X170642856Y-111398342D02*
X170671428Y-111284057D01*
X170671428Y-111284057D02*
X170699999Y-111226914D01*
X170699999Y-111226914D02*
X170728571Y-111198342D01*
X170728571Y-111198342D02*
X170785713Y-111169771D01*
X171214285Y-111226914D02*
X171242857Y-111198342D01*
X171242857Y-111198342D02*
X171300000Y-111169771D01*
X171300000Y-111169771D02*
X171442857Y-111169771D01*
X171442857Y-111169771D02*
X171500000Y-111198342D01*
X171500000Y-111198342D02*
X171528571Y-111226914D01*
X171528571Y-111226914D02*
X171557142Y-111284057D01*
X171557142Y-111284057D02*
X171557142Y-111341200D01*
X171557142Y-111341200D02*
X171528571Y-111426914D01*
X171528571Y-111426914D02*
X171185714Y-111769771D01*
X171185714Y-111769771D02*
X171557142Y-111769771D01*
X170538095Y-96654819D02*
X170538095Y-97464342D01*
X170538095Y-97464342D02*
X170585714Y-97559580D01*
X170585714Y-97559580D02*
X170633333Y-97607200D01*
X170633333Y-97607200D02*
X170728571Y-97654819D01*
X170728571Y-97654819D02*
X170919047Y-97654819D01*
X170919047Y-97654819D02*
X171014285Y-97607200D01*
X171014285Y-97607200D02*
X171061904Y-97559580D01*
X171061904Y-97559580D02*
X171109523Y-97464342D01*
X171109523Y-97464342D02*
X171109523Y-96654819D01*
X172014285Y-96654819D02*
X171823809Y-96654819D01*
X171823809Y-96654819D02*
X171728571Y-96702438D01*
X171728571Y-96702438D02*
X171680952Y-96750057D01*
X171680952Y-96750057D02*
X171585714Y-96892914D01*
X171585714Y-96892914D02*
X171538095Y-97083390D01*
X171538095Y-97083390D02*
X171538095Y-97464342D01*
X171538095Y-97464342D02*
X171585714Y-97559580D01*
X171585714Y-97559580D02*
X171633333Y-97607200D01*
X171633333Y-97607200D02*
X171728571Y-97654819D01*
X171728571Y-97654819D02*
X171919047Y-97654819D01*
X171919047Y-97654819D02*
X172014285Y-97607200D01*
X172014285Y-97607200D02*
X172061904Y-97559580D01*
X172061904Y-97559580D02*
X172109523Y-97464342D01*
X172109523Y-97464342D02*
X172109523Y-97226247D01*
X172109523Y-97226247D02*
X172061904Y-97131009D01*
X172061904Y-97131009D02*
X172014285Y-97083390D01*
X172014285Y-97083390D02*
X171919047Y-97035771D01*
X171919047Y-97035771D02*
X171728571Y-97035771D01*
X171728571Y-97035771D02*
X171633333Y-97083390D01*
X171633333Y-97083390D02*
X171585714Y-97131009D01*
X171585714Y-97131009D02*
X171538095Y-97226247D01*
X128489642Y-114859580D02*
X128442023Y-114907200D01*
X128442023Y-114907200D02*
X128299166Y-114954819D01*
X128299166Y-114954819D02*
X128203928Y-114954819D01*
X128203928Y-114954819D02*
X128061071Y-114907200D01*
X128061071Y-114907200D02*
X127965833Y-114811961D01*
X127965833Y-114811961D02*
X127918214Y-114716723D01*
X127918214Y-114716723D02*
X127870595Y-114526247D01*
X127870595Y-114526247D02*
X127870595Y-114383390D01*
X127870595Y-114383390D02*
X127918214Y-114192914D01*
X127918214Y-114192914D02*
X127965833Y-114097676D01*
X127965833Y-114097676D02*
X128061071Y-114002438D01*
X128061071Y-114002438D02*
X128203928Y-113954819D01*
X128203928Y-113954819D02*
X128299166Y-113954819D01*
X128299166Y-113954819D02*
X128442023Y-114002438D01*
X128442023Y-114002438D02*
X128489642Y-114050057D01*
X129394404Y-113954819D02*
X128918214Y-113954819D01*
X128918214Y-113954819D02*
X128870595Y-114431009D01*
X128870595Y-114431009D02*
X128918214Y-114383390D01*
X128918214Y-114383390D02*
X129013452Y-114335771D01*
X129013452Y-114335771D02*
X129251547Y-114335771D01*
X129251547Y-114335771D02*
X129346785Y-114383390D01*
X129346785Y-114383390D02*
X129394404Y-114431009D01*
X129394404Y-114431009D02*
X129442023Y-114526247D01*
X129442023Y-114526247D02*
X129442023Y-114764342D01*
X129442023Y-114764342D02*
X129394404Y-114859580D01*
X129394404Y-114859580D02*
X129346785Y-114907200D01*
X129346785Y-114907200D02*
X129251547Y-114954819D01*
X129251547Y-114954819D02*
X129013452Y-114954819D01*
X129013452Y-114954819D02*
X128918214Y-114907200D01*
X128918214Y-114907200D02*
X128870595Y-114859580D01*
X130061071Y-113954819D02*
X130156309Y-113954819D01*
X130156309Y-113954819D02*
X130251547Y-114002438D01*
X130251547Y-114002438D02*
X130299166Y-114050057D01*
X130299166Y-114050057D02*
X130346785Y-114145295D01*
X130346785Y-114145295D02*
X130394404Y-114335771D01*
X130394404Y-114335771D02*
X130394404Y-114573866D01*
X130394404Y-114573866D02*
X130346785Y-114764342D01*
X130346785Y-114764342D02*
X130299166Y-114859580D01*
X130299166Y-114859580D02*
X130251547Y-114907200D01*
X130251547Y-114907200D02*
X130156309Y-114954819D01*
X130156309Y-114954819D02*
X130061071Y-114954819D01*
X130061071Y-114954819D02*
X129965833Y-114907200D01*
X129965833Y-114907200D02*
X129918214Y-114859580D01*
X129918214Y-114859580D02*
X129870595Y-114764342D01*
X129870595Y-114764342D02*
X129822976Y-114573866D01*
X129822976Y-114573866D02*
X129822976Y-114335771D01*
X129822976Y-114335771D02*
X129870595Y-114145295D01*
X129870595Y-114145295D02*
X129918214Y-114050057D01*
X129918214Y-114050057D02*
X129965833Y-114002438D01*
X129965833Y-114002438D02*
X130061071Y-113954819D01*
D10*
X190542697Y-129635104D02*
X190923649Y-129635104D01*
X190923649Y-129635104D02*
X190923649Y-130435104D01*
X190276030Y-130054152D02*
X190009364Y-130054152D01*
X189895078Y-129635104D02*
X190276030Y-129635104D01*
X190276030Y-129635104D02*
X190276030Y-130435104D01*
X190276030Y-130435104D02*
X189895078Y-130435104D01*
X189552220Y-129635104D02*
X189552220Y-130435104D01*
X189552220Y-130435104D02*
X189361744Y-130435104D01*
X189361744Y-130435104D02*
X189247458Y-130397009D01*
X189247458Y-130397009D02*
X189171268Y-130320819D01*
X189171268Y-130320819D02*
X189133173Y-130244628D01*
X189133173Y-130244628D02*
X189095077Y-130092247D01*
X189095077Y-130092247D02*
X189095077Y-129977961D01*
X189095077Y-129977961D02*
X189133173Y-129825580D01*
X189133173Y-129825580D02*
X189171268Y-129749390D01*
X189171268Y-129749390D02*
X189247458Y-129673200D01*
X189247458Y-129673200D02*
X189361744Y-129635104D01*
X189361744Y-129635104D02*
X189552220Y-129635104D01*
X188333173Y-129635104D02*
X188790316Y-129635104D01*
X188561744Y-129635104D02*
X188561744Y-130435104D01*
X188561744Y-130435104D02*
X188637935Y-130320819D01*
X188637935Y-130320819D02*
X188714125Y-130244628D01*
X188714125Y-130244628D02*
X188790316Y-130206533D01*
X188191193Y-128307866D02*
X187581670Y-128307866D01*
X191491193Y-128307866D02*
X190881670Y-128307866D01*
X191186431Y-128003104D02*
X191186431Y-128612628D01*
D11*
X106288095Y-84704819D02*
X106288095Y-83704819D01*
X106288095Y-84181009D02*
X106859523Y-84181009D01*
X106859523Y-84704819D02*
X106859523Y-83704819D01*
X107859523Y-84704819D02*
X107288095Y-84704819D01*
X107573809Y-84704819D02*
X107573809Y-83704819D01*
X107573809Y-83704819D02*
X107478571Y-83847676D01*
X107478571Y-83847676D02*
X107383333Y-83942914D01*
X107383333Y-83942914D02*
X107288095Y-83990533D01*
X188985714Y-96854819D02*
X188985714Y-97664342D01*
X188985714Y-97664342D02*
X189033333Y-97759580D01*
X189033333Y-97759580D02*
X189080952Y-97807200D01*
X189080952Y-97807200D02*
X189176190Y-97854819D01*
X189176190Y-97854819D02*
X189366666Y-97854819D01*
X189366666Y-97854819D02*
X189461904Y-97807200D01*
X189461904Y-97807200D02*
X189509523Y-97759580D01*
X189509523Y-97759580D02*
X189557142Y-97664342D01*
X189557142Y-97664342D02*
X189557142Y-96854819D01*
X189938095Y-96854819D02*
X190604761Y-96854819D01*
X190604761Y-96854819D02*
X190176190Y-97854819D01*
X191176190Y-96854819D02*
X191271428Y-96854819D01*
X191271428Y-96854819D02*
X191366666Y-96902438D01*
X191366666Y-96902438D02*
X191414285Y-96950057D01*
X191414285Y-96950057D02*
X191461904Y-97045295D01*
X191461904Y-97045295D02*
X191509523Y-97235771D01*
X191509523Y-97235771D02*
X191509523Y-97473866D01*
X191509523Y-97473866D02*
X191461904Y-97664342D01*
X191461904Y-97664342D02*
X191414285Y-97759580D01*
X191414285Y-97759580D02*
X191366666Y-97807200D01*
X191366666Y-97807200D02*
X191271428Y-97854819D01*
X191271428Y-97854819D02*
X191176190Y-97854819D01*
X191176190Y-97854819D02*
X191080952Y-97807200D01*
X191080952Y-97807200D02*
X191033333Y-97759580D01*
X191033333Y-97759580D02*
X190985714Y-97664342D01*
X190985714Y-97664342D02*
X190938095Y-97473866D01*
X190938095Y-97473866D02*
X190938095Y-97235771D01*
X190938095Y-97235771D02*
X190985714Y-97045295D01*
X190985714Y-97045295D02*
X191033333Y-96950057D01*
X191033333Y-96950057D02*
X191080952Y-96902438D01*
X191080952Y-96902438D02*
X191176190Y-96854819D01*
X192128571Y-96854819D02*
X192223809Y-96854819D01*
X192223809Y-96854819D02*
X192319047Y-96902438D01*
X192319047Y-96902438D02*
X192366666Y-96950057D01*
X192366666Y-96950057D02*
X192414285Y-97045295D01*
X192414285Y-97045295D02*
X192461904Y-97235771D01*
X192461904Y-97235771D02*
X192461904Y-97473866D01*
X192461904Y-97473866D02*
X192414285Y-97664342D01*
X192414285Y-97664342D02*
X192366666Y-97759580D01*
X192366666Y-97759580D02*
X192319047Y-97807200D01*
X192319047Y-97807200D02*
X192223809Y-97854819D01*
X192223809Y-97854819D02*
X192128571Y-97854819D01*
X192128571Y-97854819D02*
X192033333Y-97807200D01*
X192033333Y-97807200D02*
X191985714Y-97759580D01*
X191985714Y-97759580D02*
X191938095Y-97664342D01*
X191938095Y-97664342D02*
X191890476Y-97473866D01*
X191890476Y-97473866D02*
X191890476Y-97235771D01*
X191890476Y-97235771D02*
X191938095Y-97045295D01*
X191938095Y-97045295D02*
X191985714Y-96950057D01*
X191985714Y-96950057D02*
X192033333Y-96902438D01*
X192033333Y-96902438D02*
X192128571Y-96854819D01*
X183242856Y-110084057D02*
X183242856Y-110369771D01*
X183042856Y-109769771D02*
X183242856Y-110084057D01*
X183242856Y-110084057D02*
X183442856Y-109769771D01*
X183671428Y-110369771D02*
X183785714Y-110369771D01*
X183785714Y-110369771D02*
X183842857Y-110341200D01*
X183842857Y-110341200D02*
X183871428Y-110312628D01*
X183871428Y-110312628D02*
X183928571Y-110226914D01*
X183928571Y-110226914D02*
X183957142Y-110112628D01*
X183957142Y-110112628D02*
X183957142Y-109884057D01*
X183957142Y-109884057D02*
X183928571Y-109826914D01*
X183928571Y-109826914D02*
X183900000Y-109798342D01*
X183900000Y-109798342D02*
X183842857Y-109769771D01*
X183842857Y-109769771D02*
X183728571Y-109769771D01*
X183728571Y-109769771D02*
X183671428Y-109798342D01*
X183671428Y-109798342D02*
X183642857Y-109826914D01*
X183642857Y-109826914D02*
X183614285Y-109884057D01*
X183614285Y-109884057D02*
X183614285Y-110026914D01*
X183614285Y-110026914D02*
X183642857Y-110084057D01*
X183642857Y-110084057D02*
X183671428Y-110112628D01*
X183671428Y-110112628D02*
X183728571Y-110141200D01*
X183728571Y-110141200D02*
X183842857Y-110141200D01*
X183842857Y-110141200D02*
X183900000Y-110112628D01*
X183900000Y-110112628D02*
X183928571Y-110084057D01*
X183928571Y-110084057D02*
X183957142Y-110026914D01*
X184328571Y-109769771D02*
X184385714Y-109769771D01*
X184385714Y-109769771D02*
X184442857Y-109798342D01*
X184442857Y-109798342D02*
X184471429Y-109826914D01*
X184471429Y-109826914D02*
X184500000Y-109884057D01*
X184500000Y-109884057D02*
X184528571Y-109998342D01*
X184528571Y-109998342D02*
X184528571Y-110141200D01*
X184528571Y-110141200D02*
X184500000Y-110255485D01*
X184500000Y-110255485D02*
X184471429Y-110312628D01*
X184471429Y-110312628D02*
X184442857Y-110341200D01*
X184442857Y-110341200D02*
X184385714Y-110369771D01*
X184385714Y-110369771D02*
X184328571Y-110369771D01*
X184328571Y-110369771D02*
X184271429Y-110341200D01*
X184271429Y-110341200D02*
X184242857Y-110312628D01*
X184242857Y-110312628D02*
X184214286Y-110255485D01*
X184214286Y-110255485D02*
X184185714Y-110141200D01*
X184185714Y-110141200D02*
X184185714Y-109998342D01*
X184185714Y-109998342D02*
X184214286Y-109884057D01*
X184214286Y-109884057D02*
X184242857Y-109826914D01*
X184242857Y-109826914D02*
X184271429Y-109798342D01*
X184271429Y-109798342D02*
X184328571Y-109769771D01*
X184900000Y-109769771D02*
X184957143Y-109769771D01*
X184957143Y-109769771D02*
X185014286Y-109798342D01*
X185014286Y-109798342D02*
X185042858Y-109826914D01*
X185042858Y-109826914D02*
X185071429Y-109884057D01*
X185071429Y-109884057D02*
X185100000Y-109998342D01*
X185100000Y-109998342D02*
X185100000Y-110141200D01*
X185100000Y-110141200D02*
X185071429Y-110255485D01*
X185071429Y-110255485D02*
X185042858Y-110312628D01*
X185042858Y-110312628D02*
X185014286Y-110341200D01*
X185014286Y-110341200D02*
X184957143Y-110369771D01*
X184957143Y-110369771D02*
X184900000Y-110369771D01*
X184900000Y-110369771D02*
X184842858Y-110341200D01*
X184842858Y-110341200D02*
X184814286Y-110312628D01*
X184814286Y-110312628D02*
X184785715Y-110255485D01*
X184785715Y-110255485D02*
X184757143Y-110141200D01*
X184757143Y-110141200D02*
X184757143Y-109998342D01*
X184757143Y-109998342D02*
X184785715Y-109884057D01*
X184785715Y-109884057D02*
X184814286Y-109826914D01*
X184814286Y-109826914D02*
X184842858Y-109798342D01*
X184842858Y-109798342D02*
X184900000Y-109769771D01*
X159471428Y-115769771D02*
X159471428Y-116255485D01*
X159471428Y-116255485D02*
X159499999Y-116312628D01*
X159499999Y-116312628D02*
X159528571Y-116341200D01*
X159528571Y-116341200D02*
X159585713Y-116369771D01*
X159585713Y-116369771D02*
X159699999Y-116369771D01*
X159699999Y-116369771D02*
X159757142Y-116341200D01*
X159757142Y-116341200D02*
X159785713Y-116312628D01*
X159785713Y-116312628D02*
X159814285Y-116255485D01*
X159814285Y-116255485D02*
X159814285Y-115769771D01*
X160185713Y-116026914D02*
X160128570Y-115998342D01*
X160128570Y-115998342D02*
X160099999Y-115969771D01*
X160099999Y-115969771D02*
X160071427Y-115912628D01*
X160071427Y-115912628D02*
X160071427Y-115884057D01*
X160071427Y-115884057D02*
X160099999Y-115826914D01*
X160099999Y-115826914D02*
X160128570Y-115798342D01*
X160128570Y-115798342D02*
X160185713Y-115769771D01*
X160185713Y-115769771D02*
X160299999Y-115769771D01*
X160299999Y-115769771D02*
X160357142Y-115798342D01*
X160357142Y-115798342D02*
X160385713Y-115826914D01*
X160385713Y-115826914D02*
X160414284Y-115884057D01*
X160414284Y-115884057D02*
X160414284Y-115912628D01*
X160414284Y-115912628D02*
X160385713Y-115969771D01*
X160385713Y-115969771D02*
X160357142Y-115998342D01*
X160357142Y-115998342D02*
X160299999Y-116026914D01*
X160299999Y-116026914D02*
X160185713Y-116026914D01*
X160185713Y-116026914D02*
X160128570Y-116055485D01*
X160128570Y-116055485D02*
X160099999Y-116084057D01*
X160099999Y-116084057D02*
X160071427Y-116141200D01*
X160071427Y-116141200D02*
X160071427Y-116255485D01*
X160071427Y-116255485D02*
X160099999Y-116312628D01*
X160099999Y-116312628D02*
X160128570Y-116341200D01*
X160128570Y-116341200D02*
X160185713Y-116369771D01*
X160185713Y-116369771D02*
X160299999Y-116369771D01*
X160299999Y-116369771D02*
X160357142Y-116341200D01*
X160357142Y-116341200D02*
X160385713Y-116312628D01*
X160385713Y-116312628D02*
X160414284Y-116255485D01*
X160414284Y-116255485D02*
X160414284Y-116141200D01*
X160414284Y-116141200D02*
X160385713Y-116084057D01*
X160385713Y-116084057D02*
X160357142Y-116055485D01*
X160357142Y-116055485D02*
X160299999Y-116026914D01*
X160785713Y-115769771D02*
X160842856Y-115769771D01*
X160842856Y-115769771D02*
X160899999Y-115798342D01*
X160899999Y-115798342D02*
X160928571Y-115826914D01*
X160928571Y-115826914D02*
X160957142Y-115884057D01*
X160957142Y-115884057D02*
X160985713Y-115998342D01*
X160985713Y-115998342D02*
X160985713Y-116141200D01*
X160985713Y-116141200D02*
X160957142Y-116255485D01*
X160957142Y-116255485D02*
X160928571Y-116312628D01*
X160928571Y-116312628D02*
X160899999Y-116341200D01*
X160899999Y-116341200D02*
X160842856Y-116369771D01*
X160842856Y-116369771D02*
X160785713Y-116369771D01*
X160785713Y-116369771D02*
X160728571Y-116341200D01*
X160728571Y-116341200D02*
X160699999Y-116312628D01*
X160699999Y-116312628D02*
X160671428Y-116255485D01*
X160671428Y-116255485D02*
X160642856Y-116141200D01*
X160642856Y-116141200D02*
X160642856Y-115998342D01*
X160642856Y-115998342D02*
X160671428Y-115884057D01*
X160671428Y-115884057D02*
X160699999Y-115826914D01*
X160699999Y-115826914D02*
X160728571Y-115798342D01*
X160728571Y-115798342D02*
X160785713Y-115769771D01*
X161557142Y-116369771D02*
X161214285Y-116369771D01*
X161385714Y-116369771D02*
X161385714Y-115769771D01*
X161385714Y-115769771D02*
X161328571Y-115855485D01*
X161328571Y-115855485D02*
X161271428Y-115912628D01*
X161271428Y-115912628D02*
X161214285Y-115941200D01*
X197067508Y-89314006D02*
X196643244Y-88889741D01*
X196845274Y-89091772D02*
X197087711Y-88849335D01*
X197309945Y-89071569D02*
X196885680Y-88647305D01*
X197107914Y-88505884D02*
X197107914Y-88465478D01*
X197107914Y-88465478D02*
X197128117Y-88404869D01*
X197128117Y-88404869D02*
X197229132Y-88303853D01*
X197229132Y-88303853D02*
X197289741Y-88283650D01*
X197289741Y-88283650D02*
X197330147Y-88283650D01*
X197330147Y-88283650D02*
X197390756Y-88303853D01*
X197390756Y-88303853D02*
X197431163Y-88344259D01*
X197431163Y-88344259D02*
X197471569Y-88425072D01*
X197471569Y-88425072D02*
X197471569Y-88909945D01*
X197471569Y-88909945D02*
X197734208Y-88647305D01*
X185254819Y-93338094D02*
X186064342Y-93338094D01*
X186064342Y-93338094D02*
X186159580Y-93290475D01*
X186159580Y-93290475D02*
X186207200Y-93242856D01*
X186207200Y-93242856D02*
X186254819Y-93147618D01*
X186254819Y-93147618D02*
X186254819Y-92957142D01*
X186254819Y-92957142D02*
X186207200Y-92861904D01*
X186207200Y-92861904D02*
X186159580Y-92814285D01*
X186159580Y-92814285D02*
X186064342Y-92766666D01*
X186064342Y-92766666D02*
X185254819Y-92766666D01*
X186254819Y-91766666D02*
X186254819Y-92338094D01*
X186254819Y-92052380D02*
X185254819Y-92052380D01*
X185254819Y-92052380D02*
X185397676Y-92147618D01*
X185397676Y-92147618D02*
X185492914Y-92242856D01*
X185492914Y-92242856D02*
X185540533Y-92338094D01*
X185254819Y-90861904D02*
X185254819Y-91338094D01*
X185254819Y-91338094D02*
X185731009Y-91385713D01*
X185731009Y-91385713D02*
X185683390Y-91338094D01*
X185683390Y-91338094D02*
X185635771Y-91242856D01*
X185635771Y-91242856D02*
X185635771Y-91004761D01*
X185635771Y-91004761D02*
X185683390Y-90909523D01*
X185683390Y-90909523D02*
X185731009Y-90861904D01*
X185731009Y-90861904D02*
X185826247Y-90814285D01*
X185826247Y-90814285D02*
X186064342Y-90814285D01*
X186064342Y-90814285D02*
X186159580Y-90861904D01*
X186159580Y-90861904D02*
X186207200Y-90909523D01*
X186207200Y-90909523D02*
X186254819Y-91004761D01*
X186254819Y-91004761D02*
X186254819Y-91242856D01*
X186254819Y-91242856D02*
X186207200Y-91338094D01*
X186207200Y-91338094D02*
X186159580Y-91385713D01*
X179474047Y-92608773D02*
X179413571Y-92669250D01*
X179413571Y-92669250D02*
X179232142Y-92729726D01*
X179232142Y-92729726D02*
X179111190Y-92729726D01*
X179111190Y-92729726D02*
X178929761Y-92669250D01*
X178929761Y-92669250D02*
X178808809Y-92548297D01*
X178808809Y-92548297D02*
X178748332Y-92427345D01*
X178748332Y-92427345D02*
X178687856Y-92185440D01*
X178687856Y-92185440D02*
X178687856Y-92004011D01*
X178687856Y-92004011D02*
X178748332Y-91762107D01*
X178748332Y-91762107D02*
X178808809Y-91641154D01*
X178808809Y-91641154D02*
X178929761Y-91520202D01*
X178929761Y-91520202D02*
X179111190Y-91459726D01*
X179111190Y-91459726D02*
X179232142Y-91459726D01*
X179232142Y-91459726D02*
X179413571Y-91520202D01*
X179413571Y-91520202D02*
X179474047Y-91580678D01*
X180562618Y-91459726D02*
X180320713Y-91459726D01*
X180320713Y-91459726D02*
X180199761Y-91520202D01*
X180199761Y-91520202D02*
X180139285Y-91580678D01*
X180139285Y-91580678D02*
X180018332Y-91762107D01*
X180018332Y-91762107D02*
X179957856Y-92004011D01*
X179957856Y-92004011D02*
X179957856Y-92487821D01*
X179957856Y-92487821D02*
X180018332Y-92608773D01*
X180018332Y-92608773D02*
X180078809Y-92669250D01*
X180078809Y-92669250D02*
X180199761Y-92729726D01*
X180199761Y-92729726D02*
X180441666Y-92729726D01*
X180441666Y-92729726D02*
X180562618Y-92669250D01*
X180562618Y-92669250D02*
X180623094Y-92608773D01*
X180623094Y-92608773D02*
X180683571Y-92487821D01*
X180683571Y-92487821D02*
X180683571Y-92185440D01*
X180683571Y-92185440D02*
X180623094Y-92064488D01*
X180623094Y-92064488D02*
X180562618Y-92004011D01*
X180562618Y-92004011D02*
X180441666Y-91943535D01*
X180441666Y-91943535D02*
X180199761Y-91943535D01*
X180199761Y-91943535D02*
X180078809Y-92004011D01*
X180078809Y-92004011D02*
X180018332Y-92064488D01*
X180018332Y-92064488D02*
X179957856Y-92185440D01*
X181893095Y-92729726D02*
X181167380Y-92729726D01*
X181530237Y-92729726D02*
X181530237Y-91459726D01*
X181530237Y-91459726D02*
X181409285Y-91641154D01*
X181409285Y-91641154D02*
X181288333Y-91762107D01*
X181288333Y-91762107D02*
X181167380Y-91822583D01*
X182618809Y-92004011D02*
X182497857Y-91943535D01*
X182497857Y-91943535D02*
X182437380Y-91883059D01*
X182437380Y-91883059D02*
X182376904Y-91762107D01*
X182376904Y-91762107D02*
X182376904Y-91701630D01*
X182376904Y-91701630D02*
X182437380Y-91580678D01*
X182437380Y-91580678D02*
X182497857Y-91520202D01*
X182497857Y-91520202D02*
X182618809Y-91459726D01*
X182618809Y-91459726D02*
X182860714Y-91459726D01*
X182860714Y-91459726D02*
X182981666Y-91520202D01*
X182981666Y-91520202D02*
X183042142Y-91580678D01*
X183042142Y-91580678D02*
X183102619Y-91701630D01*
X183102619Y-91701630D02*
X183102619Y-91762107D01*
X183102619Y-91762107D02*
X183042142Y-91883059D01*
X183042142Y-91883059D02*
X182981666Y-91943535D01*
X182981666Y-91943535D02*
X182860714Y-92004011D01*
X182860714Y-92004011D02*
X182618809Y-92004011D01*
X182618809Y-92004011D02*
X182497857Y-92064488D01*
X182497857Y-92064488D02*
X182437380Y-92124964D01*
X182437380Y-92124964D02*
X182376904Y-92245916D01*
X182376904Y-92245916D02*
X182376904Y-92487821D01*
X182376904Y-92487821D02*
X182437380Y-92608773D01*
X182437380Y-92608773D02*
X182497857Y-92669250D01*
X182497857Y-92669250D02*
X182618809Y-92729726D01*
X182618809Y-92729726D02*
X182860714Y-92729726D01*
X182860714Y-92729726D02*
X182981666Y-92669250D01*
X182981666Y-92669250D02*
X183042142Y-92608773D01*
X183042142Y-92608773D02*
X183102619Y-92487821D01*
X183102619Y-92487821D02*
X183102619Y-92245916D01*
X183102619Y-92245916D02*
X183042142Y-92124964D01*
X183042142Y-92124964D02*
X182981666Y-92064488D01*
X182981666Y-92064488D02*
X182860714Y-92004011D01*
X184191190Y-91459726D02*
X183949285Y-91459726D01*
X183949285Y-91459726D02*
X183828333Y-91520202D01*
X183828333Y-91520202D02*
X183767857Y-91580678D01*
X183767857Y-91580678D02*
X183646904Y-91762107D01*
X183646904Y-91762107D02*
X183586428Y-92004011D01*
X183586428Y-92004011D02*
X183586428Y-92487821D01*
X183586428Y-92487821D02*
X183646904Y-92608773D01*
X183646904Y-92608773D02*
X183707381Y-92669250D01*
X183707381Y-92669250D02*
X183828333Y-92729726D01*
X183828333Y-92729726D02*
X184070238Y-92729726D01*
X184070238Y-92729726D02*
X184191190Y-92669250D01*
X184191190Y-92669250D02*
X184251666Y-92608773D01*
X184251666Y-92608773D02*
X184312143Y-92487821D01*
X184312143Y-92487821D02*
X184312143Y-92185440D01*
X184312143Y-92185440D02*
X184251666Y-92064488D01*
X184251666Y-92064488D02*
X184191190Y-92004011D01*
X184191190Y-92004011D02*
X184070238Y-91943535D01*
X184070238Y-91943535D02*
X183828333Y-91943535D01*
X183828333Y-91943535D02*
X183707381Y-92004011D01*
X183707381Y-92004011D02*
X183646904Y-92064488D01*
X183646904Y-92064488D02*
X183586428Y-92185440D01*
X177269771Y-116028571D02*
X177755485Y-116028571D01*
X177755485Y-116028571D02*
X177812628Y-116000000D01*
X177812628Y-116000000D02*
X177841200Y-115971429D01*
X177841200Y-115971429D02*
X177869771Y-115914286D01*
X177869771Y-115914286D02*
X177869771Y-115800000D01*
X177869771Y-115800000D02*
X177841200Y-115742857D01*
X177841200Y-115742857D02*
X177812628Y-115714286D01*
X177812628Y-115714286D02*
X177755485Y-115685714D01*
X177755485Y-115685714D02*
X177269771Y-115685714D01*
X177269771Y-115457143D02*
X177269771Y-115085715D01*
X177269771Y-115085715D02*
X177498342Y-115285715D01*
X177498342Y-115285715D02*
X177498342Y-115200000D01*
X177498342Y-115200000D02*
X177526914Y-115142858D01*
X177526914Y-115142858D02*
X177555485Y-115114286D01*
X177555485Y-115114286D02*
X177612628Y-115085715D01*
X177612628Y-115085715D02*
X177755485Y-115085715D01*
X177755485Y-115085715D02*
X177812628Y-115114286D01*
X177812628Y-115114286D02*
X177841200Y-115142858D01*
X177841200Y-115142858D02*
X177869771Y-115200000D01*
X177869771Y-115200000D02*
X177869771Y-115371429D01*
X177869771Y-115371429D02*
X177841200Y-115428572D01*
X177841200Y-115428572D02*
X177812628Y-115457143D01*
X177269771Y-114714286D02*
X177269771Y-114657143D01*
X177269771Y-114657143D02*
X177298342Y-114600000D01*
X177298342Y-114600000D02*
X177326914Y-114571429D01*
X177326914Y-114571429D02*
X177384057Y-114542857D01*
X177384057Y-114542857D02*
X177498342Y-114514286D01*
X177498342Y-114514286D02*
X177641200Y-114514286D01*
X177641200Y-114514286D02*
X177755485Y-114542857D01*
X177755485Y-114542857D02*
X177812628Y-114571429D01*
X177812628Y-114571429D02*
X177841200Y-114600000D01*
X177841200Y-114600000D02*
X177869771Y-114657143D01*
X177869771Y-114657143D02*
X177869771Y-114714286D01*
X177869771Y-114714286D02*
X177841200Y-114771429D01*
X177841200Y-114771429D02*
X177812628Y-114800000D01*
X177812628Y-114800000D02*
X177755485Y-114828571D01*
X177755485Y-114828571D02*
X177641200Y-114857143D01*
X177641200Y-114857143D02*
X177498342Y-114857143D01*
X177498342Y-114857143D02*
X177384057Y-114828571D01*
X177384057Y-114828571D02*
X177326914Y-114800000D01*
X177326914Y-114800000D02*
X177298342Y-114771429D01*
X177298342Y-114771429D02*
X177269771Y-114714286D01*
X177326914Y-114285714D02*
X177298342Y-114257142D01*
X177298342Y-114257142D02*
X177269771Y-114200000D01*
X177269771Y-114200000D02*
X177269771Y-114057142D01*
X177269771Y-114057142D02*
X177298342Y-114000000D01*
X177298342Y-114000000D02*
X177326914Y-113971428D01*
X177326914Y-113971428D02*
X177384057Y-113942857D01*
X177384057Y-113942857D02*
X177441200Y-113942857D01*
X177441200Y-113942857D02*
X177526914Y-113971428D01*
X177526914Y-113971428D02*
X177869771Y-114314285D01*
X177869771Y-114314285D02*
X177869771Y-113942857D01*
X174834761Y-112383773D02*
X174774285Y-112444250D01*
X174774285Y-112444250D02*
X174592856Y-112504726D01*
X174592856Y-112504726D02*
X174471904Y-112504726D01*
X174471904Y-112504726D02*
X174290475Y-112444250D01*
X174290475Y-112444250D02*
X174169523Y-112323297D01*
X174169523Y-112323297D02*
X174109046Y-112202345D01*
X174109046Y-112202345D02*
X174048570Y-111960440D01*
X174048570Y-111960440D02*
X174048570Y-111779011D01*
X174048570Y-111779011D02*
X174109046Y-111537107D01*
X174109046Y-111537107D02*
X174169523Y-111416154D01*
X174169523Y-111416154D02*
X174290475Y-111295202D01*
X174290475Y-111295202D02*
X174471904Y-111234726D01*
X174471904Y-111234726D02*
X174592856Y-111234726D01*
X174592856Y-111234726D02*
X174774285Y-111295202D01*
X174774285Y-111295202D02*
X174834761Y-111355678D01*
X175983808Y-111234726D02*
X175379046Y-111234726D01*
X175379046Y-111234726D02*
X175318570Y-111839488D01*
X175318570Y-111839488D02*
X175379046Y-111779011D01*
X175379046Y-111779011D02*
X175499999Y-111718535D01*
X175499999Y-111718535D02*
X175802380Y-111718535D01*
X175802380Y-111718535D02*
X175923332Y-111779011D01*
X175923332Y-111779011D02*
X175983808Y-111839488D01*
X175983808Y-111839488D02*
X176044285Y-111960440D01*
X176044285Y-111960440D02*
X176044285Y-112262821D01*
X176044285Y-112262821D02*
X175983808Y-112383773D01*
X175983808Y-112383773D02*
X175923332Y-112444250D01*
X175923332Y-112444250D02*
X175802380Y-112504726D01*
X175802380Y-112504726D02*
X175499999Y-112504726D01*
X175499999Y-112504726D02*
X175379046Y-112444250D01*
X175379046Y-112444250D02*
X175318570Y-112383773D01*
X176467618Y-111234726D02*
X177253809Y-111234726D01*
X177253809Y-111234726D02*
X176830475Y-111718535D01*
X176830475Y-111718535D02*
X177011904Y-111718535D01*
X177011904Y-111718535D02*
X177132856Y-111779011D01*
X177132856Y-111779011D02*
X177193332Y-111839488D01*
X177193332Y-111839488D02*
X177253809Y-111960440D01*
X177253809Y-111960440D02*
X177253809Y-112262821D01*
X177253809Y-112262821D02*
X177193332Y-112383773D01*
X177193332Y-112383773D02*
X177132856Y-112444250D01*
X177132856Y-112444250D02*
X177011904Y-112504726D01*
X177011904Y-112504726D02*
X176649047Y-112504726D01*
X176649047Y-112504726D02*
X176528094Y-112444250D01*
X176528094Y-112444250D02*
X176467618Y-112383773D01*
X177677142Y-111234726D02*
X178523809Y-111234726D01*
X178523809Y-111234726D02*
X177979523Y-112504726D01*
X178886666Y-111234726D02*
X179672857Y-111234726D01*
X179672857Y-111234726D02*
X179249523Y-111718535D01*
X179249523Y-111718535D02*
X179430952Y-111718535D01*
X179430952Y-111718535D02*
X179551904Y-111779011D01*
X179551904Y-111779011D02*
X179612380Y-111839488D01*
X179612380Y-111839488D02*
X179672857Y-111960440D01*
X179672857Y-111960440D02*
X179672857Y-112262821D01*
X179672857Y-112262821D02*
X179612380Y-112383773D01*
X179612380Y-112383773D02*
X179551904Y-112444250D01*
X179551904Y-112444250D02*
X179430952Y-112504726D01*
X179430952Y-112504726D02*
X179068095Y-112504726D01*
X179068095Y-112504726D02*
X178947142Y-112444250D01*
X178947142Y-112444250D02*
X178886666Y-112383773D01*
X180459047Y-111234726D02*
X180580000Y-111234726D01*
X180580000Y-111234726D02*
X180700952Y-111295202D01*
X180700952Y-111295202D02*
X180761428Y-111355678D01*
X180761428Y-111355678D02*
X180821904Y-111476630D01*
X180821904Y-111476630D02*
X180882381Y-111718535D01*
X180882381Y-111718535D02*
X180882381Y-112020916D01*
X180882381Y-112020916D02*
X180821904Y-112262821D01*
X180821904Y-112262821D02*
X180761428Y-112383773D01*
X180761428Y-112383773D02*
X180700952Y-112444250D01*
X180700952Y-112444250D02*
X180580000Y-112504726D01*
X180580000Y-112504726D02*
X180459047Y-112504726D01*
X180459047Y-112504726D02*
X180338095Y-112444250D01*
X180338095Y-112444250D02*
X180277619Y-112383773D01*
X180277619Y-112383773D02*
X180217142Y-112262821D01*
X180217142Y-112262821D02*
X180156666Y-112020916D01*
X180156666Y-112020916D02*
X180156666Y-111718535D01*
X180156666Y-111718535D02*
X180217142Y-111476630D01*
X180217142Y-111476630D02*
X180277619Y-111355678D01*
X180277619Y-111355678D02*
X180338095Y-111295202D01*
X180338095Y-111295202D02*
X180459047Y-111234726D01*
X181970952Y-111658059D02*
X181970952Y-112504726D01*
X181668571Y-111174250D02*
X181366190Y-112081392D01*
X181366190Y-112081392D02*
X182152381Y-112081392D01*
X182575714Y-111355678D02*
X182636190Y-111295202D01*
X182636190Y-111295202D02*
X182757143Y-111234726D01*
X182757143Y-111234726D02*
X183059524Y-111234726D01*
X183059524Y-111234726D02*
X183180476Y-111295202D01*
X183180476Y-111295202D02*
X183240952Y-111355678D01*
X183240952Y-111355678D02*
X183301429Y-111476630D01*
X183301429Y-111476630D02*
X183301429Y-111597583D01*
X183301429Y-111597583D02*
X183240952Y-111779011D01*
X183240952Y-111779011D02*
X182515238Y-112504726D01*
X182515238Y-112504726D02*
X183301429Y-112504726D01*
X192942857Y-125069771D02*
X192942857Y-124469771D01*
X192942857Y-124755485D02*
X193285714Y-124755485D01*
X193285714Y-125069771D02*
X193285714Y-124469771D01*
X193828571Y-124669771D02*
X193828571Y-125069771D01*
X193685713Y-124441200D02*
X193542856Y-124869771D01*
X193542856Y-124869771D02*
X193914285Y-124869771D01*
X172813066Y-129454819D02*
X172813066Y-130169104D01*
X172813066Y-130169104D02*
X172765447Y-130311961D01*
X172765447Y-130311961D02*
X172670209Y-130407200D01*
X172670209Y-130407200D02*
X172527352Y-130454819D01*
X172527352Y-130454819D02*
X172432114Y-130454819D01*
X173432114Y-129883390D02*
X173336876Y-129835771D01*
X173336876Y-129835771D02*
X173289257Y-129788152D01*
X173289257Y-129788152D02*
X173241638Y-129692914D01*
X173241638Y-129692914D02*
X173241638Y-129645295D01*
X173241638Y-129645295D02*
X173289257Y-129550057D01*
X173289257Y-129550057D02*
X173336876Y-129502438D01*
X173336876Y-129502438D02*
X173432114Y-129454819D01*
X173432114Y-129454819D02*
X173622590Y-129454819D01*
X173622590Y-129454819D02*
X173717828Y-129502438D01*
X173717828Y-129502438D02*
X173765447Y-129550057D01*
X173765447Y-129550057D02*
X173813066Y-129645295D01*
X173813066Y-129645295D02*
X173813066Y-129692914D01*
X173813066Y-129692914D02*
X173765447Y-129788152D01*
X173765447Y-129788152D02*
X173717828Y-129835771D01*
X173717828Y-129835771D02*
X173622590Y-129883390D01*
X173622590Y-129883390D02*
X173432114Y-129883390D01*
X173432114Y-129883390D02*
X173336876Y-129931009D01*
X173336876Y-129931009D02*
X173289257Y-129978628D01*
X173289257Y-129978628D02*
X173241638Y-130073866D01*
X173241638Y-130073866D02*
X173241638Y-130264342D01*
X173241638Y-130264342D02*
X173289257Y-130359580D01*
X173289257Y-130359580D02*
X173336876Y-130407200D01*
X173336876Y-130407200D02*
X173432114Y-130454819D01*
X173432114Y-130454819D02*
X173622590Y-130454819D01*
X173622590Y-130454819D02*
X173717828Y-130407200D01*
X173717828Y-130407200D02*
X173765447Y-130359580D01*
X173765447Y-130359580D02*
X173813066Y-130264342D01*
X173813066Y-130264342D02*
X173813066Y-130073866D01*
X173813066Y-130073866D02*
X173765447Y-129978628D01*
X173765447Y-129978628D02*
X173717828Y-129931009D01*
X173717828Y-129931009D02*
X173622590Y-129883390D01*
X191907200Y-93750832D02*
X191954819Y-93607975D01*
X191954819Y-93607975D02*
X191954819Y-93369880D01*
X191954819Y-93369880D02*
X191907200Y-93274642D01*
X191907200Y-93274642D02*
X191859580Y-93227023D01*
X191859580Y-93227023D02*
X191764342Y-93179404D01*
X191764342Y-93179404D02*
X191669104Y-93179404D01*
X191669104Y-93179404D02*
X191573866Y-93227023D01*
X191573866Y-93227023D02*
X191526247Y-93274642D01*
X191526247Y-93274642D02*
X191478628Y-93369880D01*
X191478628Y-93369880D02*
X191431009Y-93560356D01*
X191431009Y-93560356D02*
X191383390Y-93655594D01*
X191383390Y-93655594D02*
X191335771Y-93703213D01*
X191335771Y-93703213D02*
X191240533Y-93750832D01*
X191240533Y-93750832D02*
X191145295Y-93750832D01*
X191145295Y-93750832D02*
X191050057Y-93703213D01*
X191050057Y-93703213D02*
X191002438Y-93655594D01*
X191002438Y-93655594D02*
X190954819Y-93560356D01*
X190954819Y-93560356D02*
X190954819Y-93322261D01*
X190954819Y-93322261D02*
X191002438Y-93179404D01*
X190954819Y-92846070D02*
X191954819Y-92607975D01*
X191954819Y-92607975D02*
X191240533Y-92417499D01*
X191240533Y-92417499D02*
X191954819Y-92227023D01*
X191954819Y-92227023D02*
X190954819Y-91988928D01*
X190954819Y-91131785D02*
X190954819Y-91607975D01*
X190954819Y-91607975D02*
X191431009Y-91655594D01*
X191431009Y-91655594D02*
X191383390Y-91607975D01*
X191383390Y-91607975D02*
X191335771Y-91512737D01*
X191335771Y-91512737D02*
X191335771Y-91274642D01*
X191335771Y-91274642D02*
X191383390Y-91179404D01*
X191383390Y-91179404D02*
X191431009Y-91131785D01*
X191431009Y-91131785D02*
X191526247Y-91084166D01*
X191526247Y-91084166D02*
X191764342Y-91084166D01*
X191764342Y-91084166D02*
X191859580Y-91131785D01*
X191859580Y-91131785D02*
X191907200Y-91179404D01*
X191907200Y-91179404D02*
X191954819Y-91274642D01*
X191954819Y-91274642D02*
X191954819Y-91512737D01*
X191954819Y-91512737D02*
X191907200Y-91607975D01*
X191907200Y-91607975D02*
X191859580Y-91655594D01*
X119804532Y-94998316D02*
X119852152Y-95045935D01*
X119852152Y-95045935D02*
X119899771Y-95188792D01*
X119899771Y-95188792D02*
X119899771Y-95284030D01*
X119899771Y-95284030D02*
X119852152Y-95426887D01*
X119852152Y-95426887D02*
X119756913Y-95522125D01*
X119756913Y-95522125D02*
X119661675Y-95569744D01*
X119661675Y-95569744D02*
X119471199Y-95617363D01*
X119471199Y-95617363D02*
X119328342Y-95617363D01*
X119328342Y-95617363D02*
X119137866Y-95569744D01*
X119137866Y-95569744D02*
X119042628Y-95522125D01*
X119042628Y-95522125D02*
X118947390Y-95426887D01*
X118947390Y-95426887D02*
X118899771Y-95284030D01*
X118899771Y-95284030D02*
X118899771Y-95188792D01*
X118899771Y-95188792D02*
X118947390Y-95045935D01*
X118947390Y-95045935D02*
X118995009Y-94998316D01*
X119233104Y-94141173D02*
X119899771Y-94141173D01*
X118852152Y-94379268D02*
X119566437Y-94617363D01*
X119566437Y-94617363D02*
X119566437Y-93998316D01*
X119899771Y-93569744D02*
X119899771Y-93379268D01*
X119899771Y-93379268D02*
X119852152Y-93284030D01*
X119852152Y-93284030D02*
X119804532Y-93236411D01*
X119804532Y-93236411D02*
X119661675Y-93141173D01*
X119661675Y-93141173D02*
X119471199Y-93093554D01*
X119471199Y-93093554D02*
X119090247Y-93093554D01*
X119090247Y-93093554D02*
X118995009Y-93141173D01*
X118995009Y-93141173D02*
X118947390Y-93188792D01*
X118947390Y-93188792D02*
X118899771Y-93284030D01*
X118899771Y-93284030D02*
X118899771Y-93474506D01*
X118899771Y-93474506D02*
X118947390Y-93569744D01*
X118947390Y-93569744D02*
X118995009Y-93617363D01*
X118995009Y-93617363D02*
X119090247Y-93664982D01*
X119090247Y-93664982D02*
X119328342Y-93664982D01*
X119328342Y-93664982D02*
X119423580Y-93617363D01*
X119423580Y-93617363D02*
X119471199Y-93569744D01*
X119471199Y-93569744D02*
X119518818Y-93474506D01*
X119518818Y-93474506D02*
X119518818Y-93284030D01*
X119518818Y-93284030D02*
X119471199Y-93188792D01*
X119471199Y-93188792D02*
X119423580Y-93141173D01*
X119423580Y-93141173D02*
X119328342Y-93093554D01*
X181966667Y-118257200D02*
X182109524Y-118304819D01*
X182109524Y-118304819D02*
X182347619Y-118304819D01*
X182347619Y-118304819D02*
X182442857Y-118257200D01*
X182442857Y-118257200D02*
X182490476Y-118209580D01*
X182490476Y-118209580D02*
X182538095Y-118114342D01*
X182538095Y-118114342D02*
X182538095Y-118019104D01*
X182538095Y-118019104D02*
X182490476Y-117923866D01*
X182490476Y-117923866D02*
X182442857Y-117876247D01*
X182442857Y-117876247D02*
X182347619Y-117828628D01*
X182347619Y-117828628D02*
X182157143Y-117781009D01*
X182157143Y-117781009D02*
X182061905Y-117733390D01*
X182061905Y-117733390D02*
X182014286Y-117685771D01*
X182014286Y-117685771D02*
X181966667Y-117590533D01*
X181966667Y-117590533D02*
X181966667Y-117495295D01*
X181966667Y-117495295D02*
X182014286Y-117400057D01*
X182014286Y-117400057D02*
X182061905Y-117352438D01*
X182061905Y-117352438D02*
X182157143Y-117304819D01*
X182157143Y-117304819D02*
X182395238Y-117304819D01*
X182395238Y-117304819D02*
X182538095Y-117352438D01*
X182871429Y-117304819D02*
X183109524Y-118304819D01*
X183109524Y-118304819D02*
X183300000Y-117590533D01*
X183300000Y-117590533D02*
X183490476Y-118304819D01*
X183490476Y-118304819D02*
X183728572Y-117304819D01*
X184014286Y-117304819D02*
X184633333Y-117304819D01*
X184633333Y-117304819D02*
X184300000Y-117685771D01*
X184300000Y-117685771D02*
X184442857Y-117685771D01*
X184442857Y-117685771D02*
X184538095Y-117733390D01*
X184538095Y-117733390D02*
X184585714Y-117781009D01*
X184585714Y-117781009D02*
X184633333Y-117876247D01*
X184633333Y-117876247D02*
X184633333Y-118114342D01*
X184633333Y-118114342D02*
X184585714Y-118209580D01*
X184585714Y-118209580D02*
X184538095Y-118257200D01*
X184538095Y-118257200D02*
X184442857Y-118304819D01*
X184442857Y-118304819D02*
X184157143Y-118304819D01*
X184157143Y-118304819D02*
X184061905Y-118257200D01*
X184061905Y-118257200D02*
X184014286Y-118209580D01*
X153666666Y-129454819D02*
X153666666Y-130169104D01*
X153666666Y-130169104D02*
X153619047Y-130311961D01*
X153619047Y-130311961D02*
X153523809Y-130407200D01*
X153523809Y-130407200D02*
X153380952Y-130454819D01*
X153380952Y-130454819D02*
X153285714Y-130454819D01*
X154190476Y-130454819D02*
X154380952Y-130454819D01*
X154380952Y-130454819D02*
X154476190Y-130407200D01*
X154476190Y-130407200D02*
X154523809Y-130359580D01*
X154523809Y-130359580D02*
X154619047Y-130216723D01*
X154619047Y-130216723D02*
X154666666Y-130026247D01*
X154666666Y-130026247D02*
X154666666Y-129645295D01*
X154666666Y-129645295D02*
X154619047Y-129550057D01*
X154619047Y-129550057D02*
X154571428Y-129502438D01*
X154571428Y-129502438D02*
X154476190Y-129454819D01*
X154476190Y-129454819D02*
X154285714Y-129454819D01*
X154285714Y-129454819D02*
X154190476Y-129502438D01*
X154190476Y-129502438D02*
X154142857Y-129550057D01*
X154142857Y-129550057D02*
X154095238Y-129645295D01*
X154095238Y-129645295D02*
X154095238Y-129883390D01*
X154095238Y-129883390D02*
X154142857Y-129978628D01*
X154142857Y-129978628D02*
X154190476Y-130026247D01*
X154190476Y-130026247D02*
X154285714Y-130073866D01*
X154285714Y-130073866D02*
X154476190Y-130073866D01*
X154476190Y-130073866D02*
X154571428Y-130026247D01*
X154571428Y-130026247D02*
X154619047Y-129978628D01*
X154619047Y-129978628D02*
X154666666Y-129883390D01*
X105085993Y-125267508D02*
X105510258Y-124843244D01*
X105308227Y-125045274D02*
X105550664Y-125287711D01*
X105328430Y-125509945D02*
X105752694Y-125085680D01*
X105914318Y-125247305D02*
X106176958Y-125509944D01*
X106176958Y-125509944D02*
X105873912Y-125530147D01*
X105873912Y-125530147D02*
X105934521Y-125590756D01*
X105934521Y-125590756D02*
X105954724Y-125651366D01*
X105954724Y-125651366D02*
X105954724Y-125691772D01*
X105954724Y-125691772D02*
X105934521Y-125752381D01*
X105934521Y-125752381D02*
X105833506Y-125853396D01*
X105833506Y-125853396D02*
X105772897Y-125873599D01*
X105772897Y-125873599D02*
X105732491Y-125873599D01*
X105732491Y-125873599D02*
X105671882Y-125853396D01*
X105671882Y-125853396D02*
X105550663Y-125732178D01*
X105550663Y-125732178D02*
X105530460Y-125671569D01*
X105530460Y-125671569D02*
X105530460Y-125631163D01*
X108666666Y-129454819D02*
X108666666Y-130169104D01*
X108666666Y-130169104D02*
X108619047Y-130311961D01*
X108619047Y-130311961D02*
X108523809Y-130407200D01*
X108523809Y-130407200D02*
X108380952Y-130454819D01*
X108380952Y-130454819D02*
X108285714Y-130454819D01*
X109095238Y-129550057D02*
X109142857Y-129502438D01*
X109142857Y-129502438D02*
X109238095Y-129454819D01*
X109238095Y-129454819D02*
X109476190Y-129454819D01*
X109476190Y-129454819D02*
X109571428Y-129502438D01*
X109571428Y-129502438D02*
X109619047Y-129550057D01*
X109619047Y-129550057D02*
X109666666Y-129645295D01*
X109666666Y-129645295D02*
X109666666Y-129740533D01*
X109666666Y-129740533D02*
X109619047Y-129883390D01*
X109619047Y-129883390D02*
X109047619Y-130454819D01*
X109047619Y-130454819D02*
X109666666Y-130454819D01*
X107428571Y-116114700D02*
X108571429Y-116114700D01*
X108000000Y-116686128D02*
X108000000Y-115543271D01*
X118428571Y-115114700D02*
X119571429Y-115114700D01*
%TO.C,J7*%
D13*
X123140000Y-125610000D02*
X123140000Y-120000000D01*
X123990000Y-125610000D02*
X123140000Y-125610000D01*
X123990000Y-133310000D02*
X123990000Y-125610000D01*
X133450000Y-115890000D02*
X129710000Y-115890000D01*
X138010000Y-133310000D02*
X123990000Y-133310000D01*
X138010000Y-133310000D02*
X138010000Y-125610000D01*
X138860000Y-125610000D02*
X138010000Y-125610000D01*
X138860000Y-125610000D02*
X138860000Y-120000000D01*
X123140000Y-120000000D02*
G75*
G02*
X125133194Y-116477042I4110000J0D01*
G01*
X135989900Y-116041282D02*
G75*
G02*
X138860000Y-120000000I-1239898J-3918716D01*
G01*
%TO.C,U1*%
X141823101Y-105724606D02*
X142494852Y-105052855D01*
X142494852Y-106396357D02*
X141823101Y-105724606D01*
X148377981Y-99169726D02*
X149049732Y-98497975D01*
X149049732Y-98497975D02*
X149721483Y-99169726D01*
X149049732Y-112951237D02*
X148377981Y-112279486D01*
X149721483Y-112279486D02*
X149049732Y-112951237D01*
X155604612Y-105052855D02*
X156276363Y-105724606D01*
X156276363Y-105724606D02*
X155604612Y-106396357D01*
X156629917Y-104692230D02*
X156149084Y-105173063D01*
X156057160Y-104600306D01*
X156629917Y-104692230D01*
G36*
X156629917Y-104692230D02*
G01*
X156149084Y-105173063D01*
X156057160Y-104600306D01*
X156629917Y-104692230D01*
G37*
%TO.C,U500*%
X164590000Y-109390000D02*
X164815000Y-109390000D01*
X164590000Y-112610000D02*
X164590000Y-109390000D01*
X164815000Y-112610000D02*
X164590000Y-112610000D01*
X167585000Y-109390000D02*
X167810000Y-109390000D01*
X167810000Y-109390000D02*
X167810000Y-112610000D01*
X167810000Y-112610000D02*
X167585000Y-112610000D01*
X167180000Y-108860000D02*
X166940000Y-108530000D01*
X167420000Y-108530000D01*
X167180000Y-108860000D01*
G36*
X167180000Y-108860000D02*
G01*
X166940000Y-108530000D01*
X167420000Y-108530000D01*
X167180000Y-108860000D01*
G37*
%TO.C,SW4*%
D14*
X192329479Y-111302248D02*
X192329479Y-120102248D01*
X192329479Y-111302248D02*
X192819479Y-111302248D01*
X192329479Y-120102248D02*
X192819479Y-120102248D01*
X196239479Y-111302248D02*
X196729479Y-111302248D01*
X196239479Y-120102248D02*
X196729479Y-120102248D01*
X196729479Y-111302248D02*
X196729479Y-120102248D01*
X196729479Y-115702248D02*
X201729479Y-115702248D01*
X201729479Y-117732248D02*
X196729479Y-117732248D01*
X201729479Y-117732248D02*
X201729479Y-115702248D01*
%TO.C,U5*%
D13*
X147625000Y-116260000D02*
X148825000Y-116260000D01*
X147825000Y-114540000D02*
X148425000Y-114540000D01*
D11*
X149350000Y-115800000D02*
G75*
G02*
X149200000Y-115800000I-75000J0D01*
G01*
X149200000Y-115800000D02*
G75*
G02*
X149350000Y-115800000I75000J0D01*
G01*
%TO.C,D701*%
X196130000Y-110080000D02*
X198420000Y-110080000D01*
X198420000Y-108620000D02*
X196130000Y-108620000D01*
X198420000Y-110080000D02*
X198420000Y-108620000D01*
%TO.C,J800*%
D13*
X177116400Y-129300000D02*
X177116400Y-127600000D01*
X186456400Y-129300000D02*
X186456400Y-127600000D01*
%TO.C,X2*%
D11*
X159800001Y-105500000D02*
X159800001Y-104300000D01*
X161399999Y-104300000D02*
X161399999Y-105500000D01*
%TO.C,D4*%
X131060000Y-97750000D02*
X125250000Y-97750000D01*
X131060000Y-102050000D02*
X125250000Y-102050000D01*
X131060000Y-102050000D02*
X131060000Y-97750000D01*
%TO.C,Q700*%
D13*
X195240000Y-102840000D02*
X195290000Y-102840000D01*
X195240000Y-104360000D02*
X195240000Y-102840000D01*
X196240000Y-104360000D02*
X195240000Y-104360000D01*
X196410000Y-102840000D02*
X197190000Y-102840000D01*
X198310000Y-102840000D02*
X198360000Y-102840000D01*
X198360000Y-102840000D02*
X198360000Y-104360000D01*
X198360000Y-104360000D02*
X197360000Y-104360000D01*
X197180000Y-102300000D02*
X196850000Y-102540000D01*
X196850000Y-102060000D01*
X197180000Y-102300000D01*
G36*
X197180000Y-102300000D02*
G01*
X196850000Y-102540000D01*
X196850000Y-102060000D01*
X197180000Y-102300000D01*
G37*
%TO.C,U501*%
X135990000Y-110640000D02*
X136215000Y-110640000D01*
X135990000Y-113860000D02*
X135990000Y-110640000D01*
X136215000Y-113860000D02*
X135990000Y-113860000D01*
X138985000Y-110640000D02*
X139210000Y-110640000D01*
X139210000Y-110640000D02*
X139210000Y-113860000D01*
X139210000Y-113860000D02*
X138985000Y-113860000D01*
X139930000Y-111011818D02*
X139600000Y-110750000D01*
X139930000Y-110488182D01*
X139930000Y-111011818D01*
G36*
X139930000Y-111011818D02*
G01*
X139600000Y-110750000D01*
X139930000Y-110488182D01*
X139930000Y-111011818D01*
G37*
D15*
%TO.C,G\u002A\u002A\u002A*%
G36*
X149481205Y-103915172D02*
G01*
X149799142Y-103916237D01*
X150060507Y-103918848D01*
X150271289Y-103923664D01*
X150437479Y-103931340D01*
X150565069Y-103942534D01*
X150660050Y-103957900D01*
X150728414Y-103978096D01*
X150776148Y-104003778D01*
X150809247Y-104035604D01*
X150833700Y-104074228D01*
X150849310Y-104106601D01*
X150858309Y-104160223D01*
X150866204Y-104273561D01*
X150872987Y-104438180D01*
X150878644Y-104645647D01*
X150883168Y-104887529D01*
X150886549Y-105155390D01*
X150888775Y-105440798D01*
X150889838Y-105735319D01*
X150889727Y-106030518D01*
X150888430Y-106317962D01*
X150885941Y-106589218D01*
X150882246Y-106835850D01*
X150877337Y-107049426D01*
X150871203Y-107221512D01*
X150863835Y-107343673D01*
X150855221Y-107407476D01*
X150853274Y-107412632D01*
X150772127Y-107498727D01*
X150645798Y-107559663D01*
X150495145Y-107588678D01*
X150341027Y-107579010D01*
X150340436Y-107578885D01*
X150227585Y-107529753D01*
X150116605Y-107439555D01*
X150109059Y-107431494D01*
X149997110Y-107309337D01*
X149997110Y-106149845D01*
X149996951Y-105836790D01*
X149996206Y-105585044D01*
X149994474Y-105387363D01*
X149991351Y-105236499D01*
X149986437Y-105125207D01*
X149979327Y-105046241D01*
X149969621Y-104992354D01*
X149956917Y-104956300D01*
X149940813Y-104930835D01*
X149928689Y-104916912D01*
X149832817Y-104852467D01*
X149712304Y-104823429D01*
X149586108Y-104827549D01*
X149473188Y-104862573D01*
X149392501Y-104926253D01*
X149365933Y-104983736D01*
X149361510Y-105036404D01*
X149356700Y-105148832D01*
X149351721Y-105312228D01*
X149346795Y-105517800D01*
X149342142Y-105756755D01*
X149337981Y-106020301D01*
X149335825Y-106185640D01*
X149331890Y-106494177D01*
X149327978Y-106741520D01*
X149323601Y-106935026D01*
X149318275Y-107082056D01*
X149311514Y-107189971D01*
X149302834Y-107266128D01*
X149291748Y-107317889D01*
X149277771Y-107352609D01*
X149260420Y-107377652D01*
X149256953Y-107381642D01*
X149143455Y-107470858D01*
X148991561Y-107540575D01*
X148831062Y-107578386D01*
X148776345Y-107581801D01*
X148631506Y-107551457D01*
X148518321Y-107465605D01*
X148449157Y-107334530D01*
X148441648Y-107303558D01*
X148435389Y-107238585D01*
X148429856Y-107116694D01*
X148425334Y-106949523D01*
X148422111Y-106748708D01*
X148420470Y-106525886D01*
X148420322Y-106435269D01*
X148420664Y-106175686D01*
X148423016Y-105976034D01*
X148429366Y-105827683D01*
X148441701Y-105722009D01*
X148462011Y-105650384D01*
X148492283Y-105604181D01*
X148534506Y-105574774D01*
X148590667Y-105553536D01*
X148625990Y-105542872D01*
X148718571Y-105505839D01*
X148770749Y-105451596D01*
X148793341Y-105361985D01*
X148797380Y-105255080D01*
X148779983Y-105072752D01*
X148725528Y-104945873D01*
X148630613Y-104870173D01*
X148491840Y-104841375D01*
X148467843Y-104840838D01*
X148348212Y-104856098D01*
X148255937Y-104912190D01*
X148236467Y-104930683D01*
X148146098Y-105021052D01*
X148146099Y-106179026D01*
X148145483Y-106456041D01*
X148143738Y-106712579D01*
X148141010Y-106940230D01*
X148137448Y-107130585D01*
X148133200Y-107275234D01*
X148128412Y-107365767D01*
X148124731Y-107392681D01*
X148082673Y-107441463D01*
X148002110Y-107498415D01*
X147964603Y-107519153D01*
X147813934Y-107569952D01*
X147651409Y-107583005D01*
X147498102Y-107560068D01*
X147375082Y-107502900D01*
X147335393Y-107466678D01*
X147254870Y-107373063D01*
X147254870Y-105779345D01*
X147254929Y-105386802D01*
X147255588Y-105057103D01*
X147257571Y-104784535D01*
X147261600Y-104563386D01*
X147268398Y-104387944D01*
X147278689Y-104252496D01*
X147293195Y-104151331D01*
X147312639Y-104078735D01*
X147337745Y-104028996D01*
X147369235Y-103996402D01*
X147407833Y-103975242D01*
X147454261Y-103959802D01*
X147486301Y-103950873D01*
X147555049Y-103941680D01*
X147688221Y-103933691D01*
X147881695Y-103926998D01*
X148131350Y-103921693D01*
X148433063Y-103917867D01*
X148782712Y-103915612D01*
X149100701Y-103914999D01*
X149481205Y-103915172D01*
G37*
%TO.C,Y700*%
D11*
X177300000Y-100700000D02*
X177300000Y-102200000D01*
X178500000Y-100700000D02*
X177300000Y-100700000D01*
%TO.C,L1*%
D13*
X110302500Y-97275000D02*
X122022500Y-97275000D01*
X110302500Y-100075000D02*
X110302500Y-97275000D01*
X110302500Y-107495000D02*
X110302500Y-104695000D01*
X122022500Y-97275000D02*
X122022500Y-100075000D01*
X122022500Y-104695000D02*
X122022500Y-107495000D01*
X122022500Y-107495000D02*
X110302500Y-107495000D01*
%TO.C,D3*%
D11*
X108660000Y-97450000D02*
X102850000Y-97450000D01*
X108660000Y-101750000D02*
X102850000Y-101750000D01*
X108660000Y-101750000D02*
X108660000Y-97450000D01*
%TO.C,U2*%
D13*
X102590000Y-104840000D02*
X102915000Y-104840000D01*
X102590000Y-104935000D02*
X102590000Y-104840000D01*
X102590000Y-109960000D02*
X102590000Y-109865000D01*
X102915000Y-109960000D02*
X102590000Y-109960000D01*
X106385000Y-104840000D02*
X106710000Y-104840000D01*
X106710000Y-104840000D02*
X106710000Y-104935000D01*
X106710000Y-109865000D02*
X106710000Y-109960000D01*
X106710000Y-109960000D02*
X106385000Y-109960000D01*
X102050000Y-104930000D02*
X101810000Y-104600000D01*
X102290000Y-104600000D01*
X102050000Y-104930000D01*
G36*
X102050000Y-104930000D02*
G01*
X101810000Y-104600000D01*
X102290000Y-104600000D01*
X102050000Y-104930000D01*
G37*
%TO.C,J1*%
X121390000Y-85330000D02*
X176610000Y-85330000D01*
X121390000Y-96150000D02*
X121390000Y-85330000D01*
X126800000Y-89490000D02*
X127800000Y-89490000D01*
X126800000Y-94990000D02*
X126800000Y-89490000D01*
X127800000Y-86490000D02*
X170200000Y-86490000D01*
X127800000Y-89490000D02*
X127800000Y-86490000D01*
X129650000Y-97020000D02*
X130250000Y-97020000D01*
X129950000Y-96340000D02*
X129650000Y-97020000D01*
X130250000Y-97020000D02*
X129950000Y-96340000D01*
X170200000Y-86490000D02*
X170200000Y-89490000D01*
X170200000Y-89490000D02*
X171200000Y-89490000D01*
X171200000Y-89490000D02*
X171200000Y-94990000D01*
X171200000Y-94990000D02*
X126800000Y-94990000D01*
X176610000Y-85330000D02*
X176610000Y-96150000D01*
X176610000Y-96150000D02*
X121390000Y-96150000D01*
%TO.C,FB401*%
D11*
X135948960Y-97757572D02*
X135722685Y-97983847D01*
X136670209Y-98478821D02*
X136443934Y-98705096D01*
%TO.C,U802*%
D13*
X169390000Y-112490000D02*
X169840000Y-112490000D01*
X169390000Y-112540000D02*
X169390000Y-112490000D01*
X169390000Y-114110000D02*
X169390000Y-114060000D01*
X169840000Y-114110000D02*
X169390000Y-114110000D01*
X171400000Y-112490000D02*
X171410000Y-112490000D01*
X171410000Y-112490000D02*
X171410000Y-112540000D01*
X171410000Y-114060000D02*
X171410000Y-114110000D01*
X171410000Y-114110000D02*
X170960000Y-114110000D01*
X171160000Y-112490000D02*
X170970000Y-112350000D01*
X171160000Y-112210000D01*
X171160000Y-112490000D01*
G36*
X171160000Y-112490000D02*
G01*
X170970000Y-112350000D01*
X171160000Y-112210000D01*
X171160000Y-112490000D01*
G37*
%TO.C,U6*%
X168540000Y-97940000D02*
X174060000Y-97940000D01*
X168540000Y-98210000D02*
X168540000Y-97940000D01*
X168540000Y-103460000D02*
X168540000Y-103190000D01*
X174060000Y-97940000D02*
X174060000Y-98210000D01*
X174060000Y-103190000D02*
X174060000Y-103460000D01*
X174060000Y-103460000D02*
X168540000Y-103460000D01*
X175230000Y-103670000D02*
X174550000Y-103670000D01*
X174890000Y-103200000D01*
X175230000Y-103670000D01*
G36*
X175230000Y-103670000D02*
G01*
X174550000Y-103670000D01*
X174890000Y-103200000D01*
X175230000Y-103670000D01*
G37*
%TO.C,C50*%
X123872500Y-103040000D02*
X123872500Y-106790000D01*
X123872500Y-113560000D02*
X123872500Y-109810000D01*
X133132500Y-113027782D02*
X133132500Y-111777782D01*
X133328063Y-103040000D02*
X123872500Y-103040000D01*
X133328063Y-113560000D02*
X123872500Y-113560000D01*
X133757500Y-112402782D02*
X132507500Y-112402782D01*
X134392500Y-104104437D02*
X133328063Y-103040000D01*
X134392500Y-104104437D02*
X134392500Y-106790000D01*
X134392500Y-112495563D02*
X133328063Y-113560000D01*
X134392500Y-112495563D02*
X134392500Y-109810000D01*
%TO.C,D5*%
D11*
X187050000Y-112340000D02*
X187050000Y-118150000D01*
X191350000Y-112340000D02*
X187050000Y-112340000D01*
X191350000Y-112340000D02*
X191350000Y-118150000D01*
%TO.C,U4*%
D13*
X161430642Y-115248777D02*
X162630642Y-115248777D01*
X161630642Y-113528777D02*
X162230642Y-113528777D01*
D11*
X163155642Y-114788777D02*
G75*
G02*
X163005642Y-114788777I-75000J0D01*
G01*
X163005642Y-114788777D02*
G75*
G02*
X163155642Y-114788777I75000J0D01*
G01*
%TO.C,D700*%
X195500000Y-106910000D02*
X195500000Y-108370000D01*
X195500000Y-108370000D02*
X197790000Y-108370000D01*
X197790000Y-106910000D02*
X195500000Y-106910000D01*
%TO.C,LED1*%
D10*
X187147459Y-122800000D02*
X191947459Y-122800000D01*
X187147459Y-130800000D02*
X187147459Y-122800000D01*
X188947459Y-128825000D02*
X188247459Y-128825000D01*
X188947459Y-128825000D02*
X190147459Y-129275000D01*
X188947459Y-128825000D02*
X190947459Y-128825000D01*
X188947459Y-129275000D02*
X188947459Y-128375000D01*
X188997459Y-128000000D02*
X189297459Y-128000000D01*
X189397459Y-128400000D02*
X188997459Y-128000000D01*
X189447459Y-127900000D02*
X189747459Y-127900000D01*
X189847459Y-128300000D02*
X189447459Y-127900000D01*
X190147459Y-128375000D02*
X188947459Y-128825000D01*
X190147459Y-129275000D02*
X190147459Y-128375000D01*
X191947459Y-122800000D02*
X191947459Y-130800000D01*
%TO.C,U700*%
D13*
X184401595Y-99765000D02*
X184851595Y-99765000D01*
X184401595Y-100215000D02*
X184401595Y-99765000D01*
X184401595Y-106985000D02*
X184401595Y-106535000D01*
X184851595Y-106985000D02*
X184401595Y-106985000D01*
X191171595Y-99765000D02*
X191621595Y-99765000D01*
X191621595Y-99765000D02*
X191621595Y-100215000D01*
X191621595Y-106535000D02*
X191621595Y-106985000D01*
X191621595Y-106985000D02*
X191171595Y-106985000D01*
X183761595Y-100215000D02*
X183421595Y-99745000D01*
X184101595Y-99745000D01*
X183761595Y-100215000D01*
G36*
X183761595Y-100215000D02*
G01*
X183421595Y-99745000D01*
X184101595Y-99745000D01*
X183761595Y-100215000D01*
G37*
%TO.C,D1*%
D11*
X109790000Y-112800000D02*
X109790000Y-114800000D01*
X109790000Y-112800000D02*
X113650000Y-112800000D01*
X109790000Y-114800000D02*
X113650000Y-114800000D01*
%TO.C,U401*%
D13*
X167140000Y-115725000D02*
X167140000Y-115125000D01*
X168860000Y-115925000D02*
X168860000Y-114725000D01*
D11*
X168475000Y-114275000D02*
G75*
G02*
X168325000Y-114275000I-75000J0D01*
G01*
X168325000Y-114275000D02*
G75*
G02*
X168475000Y-114275000I75000J0D01*
G01*
%TO.C,D301*%
X195500000Y-122870000D02*
X195500000Y-124330000D01*
X195500000Y-124330000D02*
X197790000Y-124330000D01*
X197790000Y-122870000D02*
X195500000Y-122870000D01*
%TO.C,Y900*%
D13*
X181389999Y-114760000D02*
X184810001Y-114760000D01*
X184810001Y-114760000D02*
X184810001Y-110640000D01*
%TO.C,U801*%
X157552500Y-113390000D02*
X157602500Y-113390000D01*
X157552500Y-113400000D02*
X157552500Y-113390000D01*
X157552500Y-115410000D02*
X157552500Y-114960000D01*
X157602500Y-115410000D02*
X157552500Y-115410000D01*
X159122500Y-113390000D02*
X159172500Y-113390000D01*
X159172500Y-113390000D02*
X159172500Y-113840000D01*
X159172500Y-114960000D02*
X159172500Y-115410000D01*
X159172500Y-115410000D02*
X159122500Y-115410000D01*
X157412500Y-113830000D02*
X157272500Y-113640000D01*
X157552500Y-113640000D01*
X157412500Y-113830000D01*
G36*
X157412500Y-113830000D02*
G01*
X157272500Y-113640000D01*
X157552500Y-113640000D01*
X157412500Y-113830000D01*
G37*
D15*
%TO.C,G\u002A\u002A\u002A*%
G36*
X143602330Y-110438776D02*
G01*
X143657247Y-110441144D01*
X143683660Y-110443392D01*
X143759551Y-110456964D01*
X143832141Y-110480501D01*
X143898464Y-110512690D01*
X143955552Y-110552224D01*
X143979217Y-110573842D01*
X144007579Y-110610391D01*
X144030397Y-110655078D01*
X144045354Y-110702365D01*
X144050176Y-110743223D01*
X144050126Y-110790349D01*
X143998471Y-110840897D01*
X143972791Y-110865362D01*
X143953135Y-110881804D01*
X143935504Y-110892930D01*
X143915900Y-110901448D01*
X143901917Y-110906305D01*
X143845310Y-110920638D01*
X143796639Y-110923655D01*
X143756490Y-110915346D01*
X143743936Y-110909413D01*
X143724989Y-110897801D01*
X143715286Y-110887753D01*
X143710855Y-110874443D01*
X143709782Y-110867893D01*
X143710577Y-110842233D01*
X143722435Y-110825486D01*
X143746166Y-110816783D01*
X143758663Y-110815391D01*
X143785265Y-110811733D01*
X143806771Y-110805279D01*
X143819352Y-110797386D01*
X143821097Y-110793332D01*
X143814902Y-110788099D01*
X143799844Y-110781781D01*
X143798425Y-110781317D01*
X143778022Y-110774359D01*
X143751815Y-110764915D01*
X143738625Y-110759997D01*
X143713741Y-110753841D01*
X143676947Y-110749049D01*
X143630956Y-110745702D01*
X143578482Y-110743881D01*
X143522241Y-110743665D01*
X143464944Y-110745134D01*
X143409309Y-110748368D01*
X143392320Y-110749787D01*
X143357534Y-110752803D01*
X143327527Y-110755161D01*
X143305670Y-110756612D01*
X143295645Y-110756931D01*
X143279412Y-110757761D01*
X143252947Y-110760880D01*
X143220399Y-110765618D01*
X143185917Y-110771308D01*
X143153651Y-110777280D01*
X143127749Y-110782862D01*
X143116863Y-110785785D01*
X143085740Y-110796170D01*
X143055508Y-110807494D01*
X143029273Y-110818447D01*
X143010141Y-110827715D01*
X143001221Y-110833985D01*
X143000935Y-110834777D01*
X143006040Y-110841225D01*
X143020348Y-110856208D01*
X143042346Y-110878228D01*
X143070523Y-110905777D01*
X143103368Y-110937358D01*
X143121533Y-110954629D01*
X143175618Y-111006787D01*
X143219515Y-111051601D01*
X143254473Y-111090937D01*
X143281736Y-111126662D01*
X143302551Y-111160643D01*
X143318165Y-111194748D01*
X143329823Y-111230843D01*
X143338772Y-111270795D01*
X143341061Y-111283506D01*
X143345315Y-111344890D01*
X143336373Y-111400834D01*
X143314689Y-111450407D01*
X143280723Y-111492681D01*
X143234928Y-111526722D01*
X143217256Y-111536012D01*
X143173087Y-111555062D01*
X143117174Y-111575810D01*
X143052248Y-111597492D01*
X142981040Y-111619336D01*
X142906279Y-111640574D01*
X142830697Y-111660440D01*
X142757021Y-111678163D01*
X142687985Y-111692976D01*
X142626316Y-111704111D01*
X142612411Y-111706224D01*
X142505136Y-111719183D01*
X142404672Y-111725451D01*
X142307801Y-111724777D01*
X142211312Y-111716907D01*
X142111990Y-111701591D01*
X142006622Y-111678576D01*
X141902485Y-111650648D01*
X141850674Y-111635618D01*
X141809523Y-111623279D01*
X141775529Y-111612437D01*
X141745195Y-111601898D01*
X141715019Y-111590468D01*
X141681501Y-111576955D01*
X141658631Y-111567474D01*
X141585853Y-111534478D01*
X141518904Y-111498910D01*
X141459235Y-111461823D01*
X141408299Y-111424266D01*
X141367546Y-111387291D01*
X141338428Y-111351949D01*
X141324451Y-111325464D01*
X141312224Y-111279521D01*
X141312490Y-111238698D01*
X141325289Y-111200341D01*
X141326398Y-111198172D01*
X141340323Y-111174442D01*
X141354607Y-111158862D01*
X141373202Y-111146410D01*
X141409239Y-111132698D01*
X141450357Y-111128128D01*
X141492095Y-111132267D01*
X141529993Y-111144683D01*
X141559087Y-111164443D01*
X141577718Y-111180025D01*
X141605921Y-111200272D01*
X141640279Y-111223005D01*
X141677373Y-111246050D01*
X141713783Y-111267230D01*
X141746090Y-111284368D01*
X141751999Y-111287234D01*
X141775461Y-111297251D01*
X141810222Y-111310616D01*
X141853544Y-111326383D01*
X141902689Y-111343599D01*
X141954917Y-111361316D01*
X142007490Y-111378586D01*
X142057668Y-111394459D01*
X142087637Y-111403559D01*
X142128930Y-111413976D01*
X142181414Y-111424367D01*
X142241602Y-111434253D01*
X142306008Y-111443161D01*
X142371150Y-111450612D01*
X142433540Y-111456133D01*
X142489694Y-111459245D01*
X142496985Y-111459465D01*
X142548284Y-111458063D01*
X142608938Y-111451860D01*
X142674645Y-111441450D01*
X142741103Y-111427423D01*
X142755268Y-111423944D01*
X142785812Y-111416019D01*
X142810601Y-111409179D01*
X142826462Y-111404324D01*
X142830522Y-111402618D01*
X142838425Y-111399617D01*
X142857662Y-111393737D01*
X142885363Y-111385819D01*
X142918659Y-111376708D01*
X142919460Y-111376494D01*
X142964664Y-111363822D01*
X143004610Y-111351564D01*
X143037258Y-111340432D01*
X143060563Y-111331140D01*
X143072484Y-111324404D01*
X143073608Y-111322580D01*
X143068283Y-111316780D01*
X143053816Y-111303715D01*
X143032466Y-111285368D01*
X143008534Y-111265408D01*
X142982631Y-111243152D01*
X142949285Y-111213120D01*
X142911374Y-111177979D01*
X142871772Y-111140397D01*
X142833357Y-111103040D01*
X142831178Y-111100890D01*
X142718896Y-110989963D01*
X142702435Y-110944567D01*
X142683328Y-110874652D01*
X142677767Y-110808663D01*
X142685480Y-110747389D01*
X142706198Y-110691617D01*
X142739650Y-110642137D01*
X142785566Y-110599734D01*
X142830271Y-110571866D01*
X142903634Y-110536846D01*
X142980113Y-110506297D01*
X143054135Y-110482336D01*
X143089768Y-110473191D01*
X143133449Y-110465083D01*
X143188850Y-110457765D01*
X143253024Y-110451388D01*
X143323023Y-110446099D01*
X143395901Y-110442045D01*
X143468711Y-110439375D01*
X143538503Y-110438236D01*
X143602330Y-110438776D01*
G37*
G36*
X144340063Y-110891336D02*
G01*
X144412812Y-110901279D01*
X144488790Y-110919146D01*
X144564343Y-110943607D01*
X144635816Y-110973337D01*
X144699552Y-111007007D01*
X144746358Y-111038860D01*
X144777114Y-111061707D01*
X144812858Y-111086435D01*
X144845622Y-111107545D01*
X144894213Y-111140687D01*
X144929143Y-111172931D01*
X144951262Y-111205614D01*
X144961422Y-111240068D01*
X144960473Y-111277630D01*
X144959040Y-111285561D01*
X144954301Y-111304554D01*
X144947355Y-111320056D01*
X144935640Y-111336045D01*
X144916591Y-111356497D01*
X144907239Y-111365923D01*
X144887679Y-111384620D01*
X144868718Y-111400187D01*
X144848384Y-111413399D01*
X144824704Y-111425031D01*
X144795705Y-111435861D01*
X144759412Y-111446661D01*
X144713853Y-111458208D01*
X144657054Y-111471277D01*
X144616003Y-111480336D01*
X144594248Y-111484133D01*
X144560211Y-111488850D01*
X144516248Y-111494215D01*
X144464712Y-111499950D01*
X144407956Y-111505781D01*
X144357696Y-111510577D01*
X144297763Y-111517281D01*
X144229664Y-111526894D01*
X144159422Y-111538532D01*
X144129599Y-111544027D01*
X144060041Y-111557390D01*
X144004596Y-111568289D01*
X143962917Y-111576797D01*
X143934654Y-111582985D01*
X143919460Y-111586928D01*
X143916414Y-111588377D01*
X143922417Y-111592586D01*
X143937452Y-111599330D01*
X143941600Y-111600956D01*
X144032425Y-111640684D01*
X144113027Y-111686810D01*
X144124795Y-111694621D01*
X144154458Y-111714532D01*
X144183088Y-111733480D01*
X144206171Y-111748489D01*
X144213662Y-111753238D01*
X144228886Y-111764370D01*
X144252204Y-111783419D01*
X144281050Y-111808202D01*
X144312862Y-111836536D01*
X144332204Y-111854235D01*
X144421983Y-111937277D01*
X144421983Y-111964306D01*
X144420171Y-111984298D01*
X144412976Y-111998315D01*
X144397758Y-112008630D01*
X144371877Y-112017516D01*
X144355099Y-112021889D01*
X144328972Y-112029055D01*
X144296286Y-112039042D01*
X144259940Y-112050843D01*
X144222831Y-112063448D01*
X144187858Y-112075852D01*
X144157916Y-112087047D01*
X144135905Y-112096025D01*
X144124720Y-112101778D01*
X144124294Y-112102152D01*
X144110827Y-112110133D01*
X144085832Y-112120013D01*
X144052195Y-112130913D01*
X144012806Y-112141955D01*
X143970552Y-112152260D01*
X143935292Y-112159640D01*
X143850525Y-112175698D01*
X143767947Y-112190971D01*
X143690402Y-112204948D01*
X143620731Y-112217119D01*
X143561776Y-112226974D01*
X143547208Y-112229307D01*
X143505950Y-112235987D01*
X143456547Y-112244217D01*
X143405301Y-112252937D01*
X143359957Y-112260832D01*
X143298986Y-112271508D01*
X143232911Y-112282883D01*
X143159915Y-112295260D01*
X143078185Y-112308948D01*
X142985903Y-112324250D01*
X142881257Y-112341472D01*
X142861179Y-112344764D01*
X142810603Y-112353117D01*
X142762944Y-112361107D01*
X142720759Y-112368293D01*
X142686609Y-112374238D01*
X142663053Y-112378504D01*
X142655807Y-112379920D01*
X142603075Y-112386076D01*
X142545655Y-112384854D01*
X142490698Y-112376627D01*
X142466408Y-112370013D01*
X142424233Y-112352523D01*
X142394692Y-112331051D01*
X142375953Y-112304099D01*
X142371427Y-112292557D01*
X142365594Y-112268921D01*
X142365961Y-112248110D01*
X142373735Y-112227375D01*
X142390126Y-112203965D01*
X142416343Y-112175131D01*
X142428431Y-112162882D01*
X142454818Y-112136955D01*
X142474411Y-112119361D01*
X142490482Y-112107750D01*
X142506308Y-112099773D01*
X142525162Y-112093078D01*
X142526124Y-112092773D01*
X142555422Y-112084685D01*
X142596813Y-112074950D01*
X142647861Y-112064048D01*
X142706135Y-112052455D01*
X142769198Y-112040650D01*
X142834615Y-112029109D01*
X142899953Y-112018311D01*
X142927903Y-112013941D01*
X142972763Y-112007041D01*
X143015115Y-112000494D01*
X143051786Y-111994793D01*
X143079596Y-111990432D01*
X143093092Y-111988278D01*
X143119268Y-111984386D01*
X143155300Y-111979520D01*
X143196445Y-111974292D01*
X143237965Y-111969313D01*
X143255128Y-111967359D01*
X143267730Y-111965665D01*
X143291359Y-111962244D01*
X143322530Y-111957608D01*
X143354704Y-111952736D01*
X143388667Y-111947655D01*
X143417242Y-111943572D01*
X143437351Y-111940917D01*
X143445831Y-111940106D01*
X143454373Y-111939432D01*
X143475492Y-111937314D01*
X143507181Y-111933968D01*
X143547428Y-111929606D01*
X143594223Y-111924446D01*
X143637887Y-111919565D01*
X143730771Y-111910059D01*
X143817329Y-111903064D01*
X143896119Y-111898628D01*
X143965698Y-111896798D01*
X144024625Y-111897622D01*
X144071454Y-111901146D01*
X144093414Y-111904632D01*
X144123682Y-111910028D01*
X144153119Y-111913888D01*
X144170504Y-111915162D01*
X144190247Y-111916587D01*
X144202921Y-111919215D01*
X144204479Y-111920119D01*
X144212533Y-111920357D01*
X144213382Y-111919627D01*
X144208813Y-111914951D01*
X144192624Y-111905191D01*
X144166605Y-111891237D01*
X144132551Y-111873978D01*
X144092251Y-111854303D01*
X144047499Y-111833102D01*
X144000086Y-111811265D01*
X143951804Y-111789680D01*
X143949732Y-111788769D01*
X143860678Y-111752863D01*
X143772672Y-111723509D01*
X143688365Y-111701411D01*
X143610400Y-111687274D01*
X143548079Y-111681946D01*
X143500168Y-111675515D01*
X143462552Y-111659673D01*
X143435878Y-111635008D01*
X143420798Y-111602107D01*
X143417799Y-111563794D01*
X143421069Y-111540362D01*
X143429388Y-111522575D01*
X143446092Y-111503457D01*
X143447132Y-111502416D01*
X143466878Y-111485367D01*
X143486330Y-111472689D01*
X143494135Y-111469320D01*
X143565987Y-111447592D01*
X143628334Y-111429149D01*
X143683858Y-111413350D01*
X143735243Y-111399549D01*
X143785173Y-111387103D01*
X143836330Y-111375370D01*
X143891398Y-111363706D01*
X143953061Y-111351466D01*
X144024001Y-111338008D01*
X144101224Y-111323729D01*
X144212100Y-111305377D01*
X144324076Y-111290570D01*
X144430198Y-111280216D01*
X144441924Y-111279337D01*
X144475462Y-111276059D01*
X144511443Y-111271149D01*
X144546935Y-111265186D01*
X144579010Y-111258746D01*
X144604736Y-111252410D01*
X144621181Y-111246755D01*
X144625686Y-111243076D01*
X144619680Y-111235830D01*
X144603656Y-111223620D01*
X144580607Y-111208285D01*
X144553525Y-111191668D01*
X144525404Y-111175606D01*
X144499235Y-111161944D01*
X144479108Y-111152937D01*
X144433097Y-111136491D01*
X144391609Y-111125275D01*
X144350833Y-111118898D01*
X144306958Y-111116975D01*
X144256174Y-111119121D01*
X144198728Y-111124500D01*
X144155017Y-111128766D01*
X144122144Y-111130503D01*
X144096460Y-111129599D01*
X144074324Y-111125944D01*
X144054028Y-111120079D01*
X144029105Y-111111310D01*
X144014016Y-111103784D01*
X144004569Y-111094411D01*
X143996574Y-111080102D01*
X143994803Y-111076427D01*
X143984843Y-111041030D01*
X143989216Y-111007405D01*
X144007612Y-110976212D01*
X144039724Y-110948104D01*
X144060918Y-110935365D01*
X144089827Y-110923701D01*
X144129547Y-110912892D01*
X144176209Y-110903550D01*
X144225943Y-110896283D01*
X144274882Y-110891703D01*
X144319154Y-110890420D01*
X144340063Y-110891336D01*
G37*
G36*
X142555183Y-109485162D02*
G01*
X142610281Y-109486976D01*
X142659908Y-109489822D01*
X142700047Y-109493643D01*
X142705974Y-109494433D01*
X142747286Y-109501639D01*
X142787153Y-109511042D01*
X142822255Y-109521641D01*
X142849269Y-109532442D01*
X142864450Y-109542012D01*
X142871610Y-109555973D01*
X142872547Y-109562895D01*
X142877459Y-109575558D01*
X142889869Y-109592612D01*
X142896944Y-109600270D01*
X142921341Y-109624756D01*
X142885794Y-109658737D01*
X142869317Y-109673369D01*
X142851556Y-109686237D01*
X142829642Y-109698953D01*
X142800705Y-109713125D01*
X142761875Y-109730365D01*
X142746149Y-109737110D01*
X142703330Y-109755091D01*
X142658924Y-109773264D01*
X142617572Y-109789761D01*
X142583909Y-109802709D01*
X142577414Y-109805109D01*
X142535016Y-109820646D01*
X142504743Y-109831955D01*
X142484910Y-109839800D01*
X142473834Y-109844942D01*
X142469829Y-109848142D01*
X142471213Y-109850163D01*
X142475018Y-109851429D01*
X142486604Y-109852803D01*
X142509580Y-109854237D01*
X142540650Y-109855561D01*
X142576524Y-109856609D01*
X142577649Y-109856634D01*
X142644843Y-109858933D01*
X142715846Y-109862732D01*
X142786380Y-109867718D01*
X142852168Y-109873577D01*
X142908933Y-109879995D01*
X142924634Y-109882135D01*
X142950232Y-109885780D01*
X142972086Y-109888765D01*
X142993454Y-109891476D01*
X143017591Y-109894301D01*
X143047754Y-109897628D01*
X143087198Y-109901838D01*
X143118514Y-109905146D01*
X143209922Y-109915392D01*
X143287886Y-109925556D01*
X143353642Y-109935938D01*
X143408420Y-109946837D01*
X143453457Y-109958553D01*
X143489985Y-109971384D01*
X143519238Y-109985631D01*
X143542452Y-110001594D01*
X143552339Y-110010470D01*
X143576696Y-110038343D01*
X143590737Y-110066181D01*
X143597440Y-110100174D01*
X143597910Y-110105160D01*
X143594877Y-110146305D01*
X143578019Y-110183684D01*
X143557226Y-110208733D01*
X143530764Y-110230410D01*
X143500950Y-110244128D01*
X143463652Y-110251398D01*
X143435694Y-110253308D01*
X143398410Y-110255341D01*
X143350537Y-110258924D01*
X143295965Y-110263676D01*
X143238578Y-110269211D01*
X143182264Y-110275147D01*
X143130910Y-110281101D01*
X143088404Y-110286688D01*
X143071879Y-110289192D01*
X143034534Y-110295548D01*
X142987686Y-110303999D01*
X142934413Y-110313942D01*
X142877793Y-110324779D01*
X142820902Y-110335908D01*
X142766820Y-110346728D01*
X142718624Y-110356638D01*
X142679393Y-110365040D01*
X142656913Y-110370177D01*
X142635406Y-110375635D01*
X142604124Y-110383966D01*
X142565099Y-110394595D01*
X142520365Y-110406947D01*
X142471954Y-110420445D01*
X142421897Y-110434516D01*
X142372228Y-110448585D01*
X142324979Y-110462075D01*
X142282183Y-110474412D01*
X142245873Y-110485020D01*
X142218080Y-110493324D01*
X142200838Y-110498750D01*
X142196027Y-110500607D01*
X142187891Y-110503721D01*
X142169806Y-110508820D01*
X142151933Y-110513286D01*
X142127910Y-110519551D01*
X142094662Y-110528943D01*
X142056941Y-110540093D01*
X142026129Y-110549547D01*
X141970415Y-110566864D01*
X141915995Y-110583541D01*
X141858521Y-110600897D01*
X141793642Y-110620249D01*
X141753684Y-110632086D01*
X141719956Y-110642325D01*
X141677579Y-110655580D01*
X141631819Y-110670187D01*
X141587941Y-110684480D01*
X141585298Y-110685352D01*
X141522895Y-110704361D01*
X141471330Y-110716331D01*
X141428702Y-110721515D01*
X141393105Y-110720172D01*
X141368333Y-110714544D01*
X141332417Y-110697618D01*
X141300769Y-110673080D01*
X141278469Y-110644912D01*
X141277726Y-110643545D01*
X141267003Y-110608556D01*
X141268677Y-110570339D01*
X141282026Y-110532257D01*
X141306325Y-110497670D01*
X141309951Y-110493905D01*
X141336197Y-110473542D01*
X141373439Y-110452911D01*
X141418137Y-110433786D01*
X141454750Y-110421397D01*
X141488821Y-110411105D01*
X141529423Y-110398774D01*
X141569053Y-110386683D01*
X141578164Y-110383894D01*
X141634674Y-110366586D01*
X141680889Y-110352475D01*
X141720543Y-110340430D01*
X141757370Y-110329323D01*
X141795105Y-110318025D01*
X141837484Y-110305407D01*
X141857188Y-110299554D01*
X141902624Y-110286221D01*
X141950517Y-110272430D01*
X141995700Y-110259655D01*
X142033011Y-110249364D01*
X142038982Y-110247759D01*
X142082086Y-110236098D01*
X142129824Y-110222953D01*
X142180040Y-110208941D01*
X142230577Y-110194680D01*
X142279276Y-110180788D01*
X142323980Y-110167883D01*
X142362532Y-110156583D01*
X142392776Y-110147505D01*
X142412553Y-110141267D01*
X142419059Y-110138902D01*
X142419219Y-110135654D01*
X142406917Y-110132823D01*
X142384368Y-110130859D01*
X142378344Y-110130592D01*
X142343106Y-110128851D01*
X142298693Y-110126040D01*
X142248362Y-110122426D01*
X142195367Y-110118278D01*
X142142962Y-110113862D01*
X142094403Y-110109446D01*
X142052942Y-110105298D01*
X142021836Y-110101684D01*
X142014572Y-110100681D01*
X141954287Y-110088620D01*
X141906199Y-110071458D01*
X141868405Y-110048176D01*
X141838997Y-110017748D01*
X141827306Y-110000312D01*
X141808581Y-109957606D01*
X141804455Y-109916438D01*
X141814931Y-109876760D01*
X141840017Y-109838525D01*
X141849159Y-109828582D01*
X141878043Y-109799000D01*
X141842299Y-109808539D01*
X141757033Y-109831190D01*
X141685641Y-109849929D01*
X141627865Y-109864825D01*
X141592314Y-109873762D01*
X141559513Y-109882371D01*
X141519045Y-109893712D01*
X141477211Y-109905993D01*
X141454878Y-109912818D01*
X141410244Y-109926295D01*
X141362454Y-109940025D01*
X141315036Y-109953058D01*
X141271513Y-109964445D01*
X141235413Y-109973235D01*
X141212786Y-109978031D01*
X141195931Y-109982037D01*
X141169476Y-109989346D01*
X141137793Y-109998724D01*
X141119690Y-110004326D01*
X141056219Y-110022762D01*
X141003966Y-110034234D01*
X140961223Y-110038739D01*
X140926280Y-110036274D01*
X140897428Y-110026832D01*
X140872960Y-110010413D01*
X140865846Y-110003753D01*
X140843379Y-109972867D01*
X140834990Y-109938736D01*
X140840436Y-109900235D01*
X140842113Y-109894957D01*
X140851382Y-109871243D01*
X140862821Y-109852124D01*
X140878527Y-109836175D01*
X140900603Y-109821974D01*
X140931146Y-109808096D01*
X140972258Y-109793117D01*
X141011118Y-109780359D01*
X141051599Y-109767597D01*
X141088880Y-109756197D01*
X141119969Y-109747048D01*
X141141873Y-109741039D01*
X141149304Y-109739321D01*
X141169946Y-109734820D01*
X141201513Y-109727141D01*
X141240807Y-109717129D01*
X141284634Y-109705633D01*
X141329798Y-109693496D01*
X141373103Y-109681565D01*
X141411354Y-109670687D01*
X141434331Y-109663871D01*
X141470933Y-109653146D01*
X141509767Y-109642439D01*
X141543403Y-109633786D01*
X141548395Y-109632589D01*
X141574685Y-109626161D01*
X141610725Y-109617045D01*
X141652085Y-109606372D01*
X141694336Y-109595278D01*
X141701299Y-109593430D01*
X141837835Y-109560068D01*
X141971371Y-109533246D01*
X142098931Y-109513489D01*
X142217536Y-109501320D01*
X142227834Y-109500605D01*
X142267619Y-109497744D01*
X142307323Y-109494525D01*
X142341631Y-109491398D01*
X142360454Y-109489402D01*
X142397249Y-109486500D01*
X142444650Y-109484865D01*
X142498633Y-109484438D01*
X142555183Y-109485162D01*
G37*
G36*
X141422421Y-108474371D02*
G01*
X141524418Y-108483271D01*
X141524559Y-108483290D01*
X141560379Y-108487854D01*
X141598666Y-108492681D01*
X141626646Y-108496170D01*
X141670317Y-108502226D01*
X141717516Y-108509880D01*
X141765232Y-108518528D01*
X141810451Y-108527569D01*
X141850163Y-108536401D01*
X141881353Y-108544420D01*
X141900998Y-108551021D01*
X141928509Y-108568774D01*
X141953940Y-108594913D01*
X141974358Y-108625311D01*
X141986828Y-108655837D01*
X141989252Y-108675217D01*
X141983619Y-108712019D01*
X141968820Y-108742553D01*
X141943767Y-108767650D01*
X141907366Y-108788144D01*
X141858527Y-108804863D01*
X141802587Y-108817455D01*
X141728797Y-108831970D01*
X141662575Y-108846337D01*
X141605171Y-108860223D01*
X141557833Y-108873293D01*
X141521809Y-108885211D01*
X141498350Y-108895645D01*
X141490941Y-108900934D01*
X141482001Y-108905801D01*
X141464407Y-108913134D01*
X141455767Y-108916371D01*
X141400199Y-108936658D01*
X141357515Y-108952549D01*
X141326719Y-108964436D01*
X141306817Y-108972712D01*
X141296814Y-108977771D01*
X141295274Y-108979769D01*
X141303463Y-108981214D01*
X141323245Y-108982699D01*
X141351536Y-108984036D01*
X141380904Y-108984940D01*
X141529697Y-108989428D01*
X141667928Y-108995646D01*
X141799644Y-109003866D01*
X141928891Y-109014356D01*
X142059717Y-109027389D01*
X142123769Y-109034570D01*
X142202081Y-109043647D01*
X142267190Y-109051287D01*
X142320470Y-109057770D01*
X142363299Y-109063375D01*
X142397051Y-109068384D01*
X142423106Y-109073074D01*
X142442838Y-109077726D01*
X142457624Y-109082619D01*
X142468840Y-109088034D01*
X142477864Y-109094250D01*
X142486071Y-109101546D01*
X142494549Y-109109916D01*
X142519410Y-109140489D01*
X142532079Y-109172775D01*
X142534752Y-109208691D01*
X142526730Y-109250820D01*
X142506094Y-109286632D01*
X142474288Y-109314047D01*
X142454790Y-109323897D01*
X142437842Y-109328100D01*
X142410033Y-109332011D01*
X142375183Y-109335198D01*
X142337109Y-109337232D01*
X142336123Y-109337265D01*
X142274771Y-109340715D01*
X142203626Y-109347049D01*
X142126787Y-109355722D01*
X142048349Y-109366189D01*
X141972409Y-109377902D01*
X141903064Y-109390317D01*
X141845822Y-109402551D01*
X141830836Y-109405859D01*
X141803916Y-109411533D01*
X141767527Y-109419066D01*
X141724134Y-109427948D01*
X141676199Y-109437672D01*
X141651937Y-109442563D01*
X141530063Y-109467845D01*
X141408414Y-109494558D01*
X141289199Y-109522157D01*
X141174628Y-109550093D01*
X141066911Y-109577823D01*
X140968259Y-109604800D01*
X140880881Y-109630480D01*
X140844087Y-109642026D01*
X140751049Y-109671792D01*
X140670782Y-109697125D01*
X140602163Y-109718336D01*
X140544070Y-109735742D01*
X140495381Y-109749657D01*
X140454975Y-109760397D01*
X140421729Y-109768276D01*
X140394522Y-109773610D01*
X140372231Y-109776712D01*
X140360935Y-109777622D01*
X140330169Y-109774766D01*
X140295283Y-109764753D01*
X140262537Y-109749887D01*
X140238191Y-109732473D01*
X140238130Y-109732412D01*
X140215371Y-109700086D01*
X140204175Y-109662249D01*
X140204486Y-109622370D01*
X140216251Y-109583915D01*
X140239413Y-109550349D01*
X140241068Y-109548663D01*
X140256493Y-109536560D01*
X140280642Y-109521193D01*
X140309693Y-109504604D01*
X140339822Y-109488839D01*
X140367206Y-109475942D01*
X140388022Y-109467958D01*
X140394820Y-109466442D01*
X140405676Y-109463952D01*
X140427948Y-109457874D01*
X140459039Y-109448986D01*
X140496347Y-109438065D01*
X140537271Y-109425889D01*
X140579212Y-109413235D01*
X140619570Y-109400879D01*
X140655743Y-109389601D01*
X140685131Y-109380176D01*
X140699431Y-109375389D01*
X140736895Y-109363185D01*
X140785431Y-109348442D01*
X140841839Y-109332064D01*
X140902921Y-109314957D01*
X140965477Y-109298025D01*
X141026306Y-109282174D01*
X141051481Y-109275829D01*
X141088900Y-109266448D01*
X141121405Y-109258184D01*
X141146252Y-109251742D01*
X141160690Y-109247830D01*
X141162938Y-109247132D01*
X141158903Y-109246160D01*
X141142601Y-109245451D01*
X141116445Y-109245058D01*
X141082848Y-109245033D01*
X141071842Y-109245104D01*
X141008888Y-109244556D01*
X140947328Y-109242058D01*
X140889756Y-109237855D01*
X140838769Y-109232186D01*
X140796963Y-109225294D01*
X140766933Y-109217421D01*
X140764398Y-109216481D01*
X140726296Y-109195577D01*
X140697261Y-109167211D01*
X140678309Y-109133839D01*
X140670458Y-109097917D01*
X140674724Y-109061904D01*
X140688547Y-109033185D01*
X140702671Y-109018163D01*
X140725844Y-108999115D01*
X140754085Y-108978787D01*
X140783413Y-108959918D01*
X140809848Y-108945256D01*
X140825955Y-108938484D01*
X140844702Y-108930537D01*
X140857041Y-108922242D01*
X140868482Y-108914526D01*
X140888893Y-108903761D01*
X140911279Y-108893426D01*
X140937866Y-108881370D01*
X140961692Y-108869639D01*
X140975225Y-108862164D01*
X140991995Y-108853282D01*
X141019532Y-108840383D01*
X141054916Y-108824757D01*
X141095223Y-108807694D01*
X141137534Y-108790483D01*
X141138865Y-108789953D01*
X141157801Y-108781633D01*
X141170540Y-108774603D01*
X141172157Y-108773299D01*
X141169564Y-108770353D01*
X141155175Y-108769736D01*
X141131647Y-108771205D01*
X141101638Y-108774521D01*
X141067807Y-108779437D01*
X141032812Y-108785715D01*
X141030190Y-108786238D01*
X140993129Y-108792719D01*
X140953436Y-108798129D01*
X140919253Y-108801369D01*
X140917025Y-108801500D01*
X140887666Y-108803434D01*
X140849395Y-108806389D01*
X140807903Y-108809907D01*
X140780160Y-108812446D01*
X140734088Y-108816244D01*
X140681653Y-108819687D01*
X140631174Y-108822257D01*
X140608866Y-108823066D01*
X140548905Y-108825711D01*
X140483527Y-108830104D01*
X140416839Y-108835857D01*
X140352949Y-108842580D01*
X140295966Y-108849886D01*
X140254283Y-108856584D01*
X140215205Y-108862490D01*
X140170578Y-108867321D01*
X140129530Y-108870103D01*
X140126451Y-108870216D01*
X140094811Y-108872586D01*
X140053600Y-108877569D01*
X140007560Y-108884497D01*
X139961428Y-108892704D01*
X139948966Y-108895176D01*
X139880238Y-108909114D01*
X139824132Y-108920338D01*
X139778896Y-108929144D01*
X139742782Y-108935830D01*
X139714044Y-108940694D01*
X139690930Y-108944033D01*
X139671691Y-108946146D01*
X139654579Y-108947330D01*
X139639542Y-108947847D01*
X139611901Y-108949380D01*
X139576610Y-108952608D01*
X139540508Y-108956890D01*
X139534298Y-108957744D01*
X139504169Y-108961724D01*
X139478824Y-108964575D01*
X139462366Y-108965852D01*
X139459334Y-108965835D01*
X139447039Y-108967115D01*
X139425032Y-108971323D01*
X139397786Y-108977591D01*
X139394136Y-108978501D01*
X139363040Y-108985564D01*
X139333190Y-108991084D01*
X139311012Y-108993871D01*
X139310888Y-108993879D01*
X139284314Y-108997066D01*
X139255123Y-109002702D01*
X139248636Y-109004300D01*
X139189663Y-109014854D01*
X139138680Y-109013410D01*
X139095062Y-108999857D01*
X139058184Y-108974087D01*
X139054418Y-108970407D01*
X139036462Y-108949238D01*
X139022715Y-108927555D01*
X139018624Y-108917955D01*
X139011167Y-108872019D01*
X139016606Y-108828147D01*
X139033789Y-108788758D01*
X139061561Y-108756272D01*
X139098768Y-108733108D01*
X139108624Y-108729324D01*
X139133049Y-108722072D01*
X139166773Y-108713499D01*
X139204626Y-108704790D01*
X139241442Y-108697130D01*
X139272049Y-108691702D01*
X139274149Y-108691389D01*
X139290284Y-108688921D01*
X139316852Y-108684740D01*
X139349792Y-108679490D01*
X139376353Y-108675218D01*
X139419059Y-108668680D01*
X139465893Y-108662074D01*
X139509358Y-108656441D01*
X139526821Y-108654387D01*
X139565514Y-108648782D01*
X139606230Y-108640842D01*
X139641654Y-108632044D01*
X139649585Y-108629641D01*
X139685735Y-108619080D01*
X139726566Y-108608658D01*
X139757608Y-108601802D01*
X139786098Y-108596130D01*
X139810179Y-108591268D01*
X139825161Y-108588162D01*
X139826207Y-108587935D01*
X139839831Y-108585614D01*
X139863172Y-108582263D01*
X139891368Y-108578578D01*
X139893543Y-108578306D01*
X139928924Y-108573855D01*
X139966481Y-108569026D01*
X139993353Y-108565491D01*
X140077176Y-108555780D01*
X140157345Y-108548930D01*
X140184634Y-108546477D01*
X140217601Y-108542761D01*
X140238971Y-108539976D01*
X140261274Y-108537380D01*
X140290554Y-108534923D01*
X140327999Y-108532549D01*
X140374795Y-108530203D01*
X140432132Y-108527827D01*
X140501193Y-108525365D01*
X140583170Y-108522760D01*
X140628144Y-108521422D01*
X140680595Y-108519322D01*
X140736436Y-108516125D01*
X140790672Y-108512178D01*
X140838300Y-108507830D01*
X140862140Y-108505107D01*
X140903140Y-108500222D01*
X140943498Y-108495988D01*
X140978599Y-108492857D01*
X141003823Y-108491277D01*
X141004030Y-108491270D01*
X141022852Y-108490607D01*
X141039251Y-108489918D01*
X141055854Y-108489024D01*
X141075290Y-108487745D01*
X141100190Y-108485902D01*
X141133182Y-108483317D01*
X141176895Y-108479808D01*
X141202908Y-108477708D01*
X141313308Y-108472482D01*
X141422421Y-108474371D01*
G37*
G36*
X138194905Y-108022435D02*
G01*
X138212434Y-108030086D01*
X138213914Y-108031065D01*
X138231977Y-108040543D01*
X138247332Y-108044076D01*
X138247930Y-108044035D01*
X138265257Y-108048930D01*
X138280020Y-108063607D01*
X138288041Y-108083257D01*
X138288469Y-108090733D01*
X138286258Y-108102660D01*
X138279270Y-108114262D01*
X138264997Y-108128761D01*
X138246470Y-108144764D01*
X138205450Y-108179132D01*
X138228356Y-108176238D01*
X138244468Y-108175955D01*
X138249944Y-108181442D01*
X138244756Y-108194090D01*
X138228875Y-108215291D01*
X138227526Y-108216933D01*
X138214204Y-108233818D01*
X138209909Y-108242532D01*
X138213936Y-108245898D01*
X138220155Y-108246531D01*
X138238939Y-108251300D01*
X138265057Y-108262673D01*
X138294206Y-108278301D01*
X138322087Y-108295834D01*
X138344397Y-108312923D01*
X138348277Y-108316531D01*
X138368229Y-108333593D01*
X138394002Y-108352490D01*
X138410553Y-108363264D01*
X138437287Y-108381808D01*
X138466415Y-108405323D01*
X138485740Y-108423041D01*
X138500715Y-108437343D01*
X138516867Y-108451459D01*
X138536194Y-108466898D01*
X138560690Y-108485172D01*
X138592354Y-108507789D01*
X138633182Y-108536262D01*
X138658941Y-108554051D01*
X138680579Y-108570694D01*
X138693368Y-108586048D01*
X138700566Y-108601864D01*
X138708251Y-108630890D01*
X138709839Y-108655394D01*
X138705330Y-108671874D01*
X138700537Y-108676128D01*
X138688110Y-108684442D01*
X138672799Y-108697974D01*
X138672346Y-108698425D01*
X138655736Y-108708825D01*
X138632645Y-108716234D01*
X138608400Y-108719746D01*
X138588327Y-108718456D01*
X138579592Y-108714192D01*
X138568697Y-108710960D01*
X138550402Y-108711385D01*
X138548018Y-108711711D01*
X138522716Y-108715503D01*
X138571970Y-108761075D01*
X138602331Y-108787353D01*
X138638415Y-108815936D01*
X138673411Y-108841474D01*
X138680322Y-108846176D01*
X138712393Y-108867886D01*
X138745756Y-108890892D01*
X138774542Y-108911134D01*
X138781598Y-108916199D01*
X138806196Y-108933316D01*
X138829155Y-108948171D01*
X138844570Y-108957045D01*
X138858147Y-108965219D01*
X138880529Y-108980236D01*
X138908808Y-109000086D01*
X138940078Y-109022760D01*
X138945874Y-109027042D01*
X138978669Y-109051191D01*
X139010182Y-109074134D01*
X139037046Y-109093433D01*
X139055888Y-109106654D01*
X139057339Y-109107640D01*
X139077707Y-109122377D01*
X139104269Y-109142883D01*
X139132101Y-109165332D01*
X139139140Y-109171184D01*
X139170148Y-109196089D01*
X139204874Y-109222354D01*
X139236394Y-109244762D01*
X139239776Y-109247038D01*
X139271492Y-109268673D01*
X139305939Y-109292853D01*
X139334348Y-109313384D01*
X139359799Y-109331519D01*
X139383987Y-109347639D01*
X139401799Y-109358338D01*
X139402197Y-109358548D01*
X139420980Y-109369815D01*
X139444914Y-109386032D01*
X139461324Y-109398048D01*
X139488266Y-109417979D01*
X139517227Y-109438583D01*
X139531546Y-109448403D01*
X139554835Y-109464736D01*
X139583486Y-109485807D01*
X139611429Y-109507147D01*
X139612286Y-109507817D01*
X139658587Y-109544019D01*
X139695435Y-109572665D01*
X139724882Y-109595325D01*
X139748977Y-109613568D01*
X139769771Y-109628962D01*
X139785802Y-109640565D01*
X139805352Y-109655552D01*
X139832711Y-109677845D01*
X139864819Y-109704887D01*
X139898612Y-109734117D01*
X139913077Y-109746881D01*
X139949029Y-109778125D01*
X139987024Y-109809975D01*
X140023182Y-109839250D01*
X140053625Y-109862774D01*
X140061405Y-109868479D01*
X140091557Y-109891138D01*
X140127811Y-109919824D01*
X140165398Y-109950699D01*
X140196558Y-109977299D01*
X140227721Y-110003986D01*
X140258374Y-110029282D01*
X140285126Y-110050447D01*
X140304594Y-110064744D01*
X140305655Y-110065456D01*
X140321863Y-110077606D01*
X140346443Y-110097784D01*
X140377052Y-110123981D01*
X140411346Y-110154190D01*
X140446978Y-110186403D01*
X140448264Y-110187582D01*
X140508813Y-110242471D01*
X140560038Y-110287469D01*
X140602786Y-110323277D01*
X140637901Y-110350595D01*
X140666231Y-110370122D01*
X140675444Y-110375674D01*
X140700403Y-110392429D01*
X140733580Y-110418325D01*
X140773234Y-110451719D01*
X140817623Y-110490960D01*
X140865008Y-110534405D01*
X140913647Y-110580406D01*
X140961799Y-110627317D01*
X141007725Y-110673492D01*
X141049683Y-110717284D01*
X141085932Y-110757047D01*
X141114732Y-110791133D01*
X141114840Y-110791268D01*
X141142535Y-110829794D01*
X141158670Y-110862393D01*
X141163871Y-110891328D01*
X141158764Y-110918863D01*
X141153502Y-110930938D01*
X141130313Y-110962826D01*
X141100040Y-110982979D01*
X141065046Y-110990444D01*
X141027695Y-110984265D01*
X141024421Y-110983055D01*
X141014706Y-110978823D01*
X141004588Y-110973039D01*
X140992773Y-110964534D01*
X140977970Y-110952142D01*
X140958884Y-110934693D01*
X140934223Y-110911022D01*
X140902694Y-110879959D01*
X140863003Y-110840338D01*
X140832583Y-110809812D01*
X140782173Y-110759437D01*
X140741044Y-110718973D01*
X140708386Y-110687660D01*
X140683391Y-110664745D01*
X140665246Y-110649472D01*
X140653144Y-110641084D01*
X140650242Y-110639658D01*
X140634547Y-110630846D01*
X140611825Y-110615255D01*
X140586141Y-110595731D01*
X140576995Y-110588323D01*
X140545612Y-110562718D01*
X140510612Y-110534579D01*
X140479062Y-110509586D01*
X140476251Y-110507386D01*
X140454799Y-110489883D01*
X140425322Y-110464791D01*
X140390563Y-110434501D01*
X140353266Y-110401399D01*
X140318110Y-110369646D01*
X140281667Y-110336805D01*
X140245835Y-110305214D01*
X140213152Y-110277061D01*
X140186164Y-110254539D01*
X140167527Y-110239921D01*
X140144311Y-110222173D01*
X140114394Y-110198204D01*
X140082081Y-110171509D01*
X140058612Y-110151581D01*
X140024573Y-110122976D01*
X139986896Y-110092438D01*
X139951117Y-110064411D01*
X139931877Y-110049916D01*
X139900323Y-110025615D01*
X139863621Y-109995701D01*
X139827242Y-109964700D01*
X139806845Y-109946549D01*
X139776742Y-109919694D01*
X139746141Y-109893293D01*
X139719086Y-109870792D01*
X139703115Y-109858216D01*
X139677849Y-109839084D01*
X139647204Y-109815725D01*
X139617416Y-109792894D01*
X139614756Y-109790847D01*
X139585962Y-109768836D01*
X139556213Y-109746342D01*
X139531424Y-109727835D01*
X139529011Y-109726057D01*
X139503884Y-109707463D01*
X139473965Y-109685175D01*
X139448679Y-109666234D01*
X139431924Y-109653679D01*
X139416644Y-109642373D01*
X139400725Y-109630810D01*
X139382048Y-109617485D01*
X139358498Y-109600889D01*
X139327958Y-109579521D01*
X139288312Y-109551874D01*
X139269725Y-109538924D01*
X139240122Y-109518277D01*
X139212921Y-109499259D01*
X139191635Y-109484327D01*
X139181685Y-109477303D01*
X139166024Y-109466934D01*
X139155496Y-109461314D01*
X139154919Y-109461143D01*
X139144736Y-109455665D01*
X139125780Y-109442843D01*
X139100661Y-109424611D01*
X139071986Y-109402900D01*
X139042364Y-109379639D01*
X139018020Y-109359785D01*
X138989193Y-109336579D01*
X138954413Y-109309762D01*
X138919828Y-109284042D01*
X138909294Y-109276448D01*
X138860326Y-109241678D01*
X138809883Y-109206168D01*
X138760367Y-109171584D01*
X138714180Y-109139596D01*
X138673726Y-109111870D01*
X138641406Y-109090073D01*
X138627360Y-109080820D01*
X138580392Y-109049722D01*
X138541355Y-109022293D01*
X138505395Y-108994971D01*
X138467662Y-108964200D01*
X138462669Y-108960010D01*
X138433035Y-108936304D01*
X138401432Y-108912976D01*
X138373471Y-108894120D01*
X138366627Y-108889945D01*
X138334094Y-108868422D01*
X138303696Y-108844073D01*
X138278371Y-108819633D01*
X138261059Y-108797837D01*
X138255536Y-108786526D01*
X138251057Y-108776714D01*
X138242933Y-108773300D01*
X138227088Y-108775526D01*
X138213964Y-108778785D01*
X138192268Y-108785077D01*
X138176939Y-108790686D01*
X138172923Y-108792958D01*
X138163754Y-108795560D01*
X138144044Y-108797991D01*
X138117931Y-108799754D01*
X138116028Y-108799837D01*
X138085839Y-108800078D01*
X138065308Y-108797017D01*
X138049584Y-108789588D01*
X138041523Y-108783501D01*
X138023131Y-108763883D01*
X138008535Y-108741218D01*
X138007747Y-108739538D01*
X137998611Y-108724157D01*
X137982110Y-108700841D01*
X137960547Y-108672702D01*
X137936229Y-108642849D01*
X137935128Y-108641539D01*
X137904409Y-108604556D01*
X137881616Y-108575372D01*
X137864837Y-108550883D01*
X137852163Y-108527982D01*
X137841684Y-108503569D01*
X137831492Y-108474538D01*
X137830462Y-108471404D01*
X137821563Y-108439470D01*
X137820980Y-108433593D01*
X138008119Y-108433593D01*
X138012693Y-108440498D01*
X138026361Y-108455787D01*
X138047516Y-108477795D01*
X138074553Y-108504853D01*
X138105865Y-108535293D01*
X138108641Y-108537953D01*
X138210730Y-108635671D01*
X138255890Y-108631691D01*
X138288303Y-108629118D01*
X138326006Y-108626531D01*
X138353572Y-108624894D01*
X138379825Y-108623059D01*
X138399754Y-108620866D01*
X138409357Y-108618765D01*
X138409572Y-108618603D01*
X138405896Y-108612704D01*
X138393157Y-108599742D01*
X138373649Y-108581961D01*
X138361048Y-108571095D01*
X138330698Y-108545313D01*
X138295478Y-108515271D01*
X138261630Y-108486300D01*
X138252066Y-108478089D01*
X138227844Y-108457651D01*
X138207747Y-108441398D01*
X138194340Y-108431367D01*
X138190315Y-108429136D01*
X138180771Y-108429921D01*
X138161941Y-108431893D01*
X138150500Y-108433179D01*
X138124504Y-108434518D01*
X138091584Y-108434011D01*
X138062572Y-108432077D01*
X138036647Y-108430427D01*
X138017310Y-108430831D01*
X138008324Y-108433183D01*
X138008119Y-108433593D01*
X137820980Y-108433593D01*
X137819048Y-108414133D01*
X137822481Y-108388989D01*
X137824305Y-108381649D01*
X137831925Y-108356429D01*
X137840011Y-108334999D01*
X137844088Y-108326716D01*
X137861781Y-108308817D01*
X137876210Y-108301069D01*
X137889195Y-108294096D01*
X137921388Y-108284976D01*
X137931932Y-108283633D01*
X137952028Y-108278838D01*
X137972778Y-108267029D01*
X137995669Y-108246833D01*
X138022194Y-108216877D01*
X138053840Y-108175789D01*
X138063830Y-108162093D01*
X138098910Y-108114649D01*
X138129245Y-108075874D01*
X138153993Y-108046771D01*
X138172311Y-108028345D01*
X138180948Y-108022297D01*
X138194905Y-108022435D01*
G37*
%TO.C,U15*%
D13*
X178090000Y-90240000D02*
X179350000Y-90240000D01*
X178090000Y-94000000D02*
X178090000Y-90240000D01*
X184910000Y-90240000D02*
X183650000Y-90240000D01*
X184910000Y-94000000D02*
X184910000Y-90240000D01*
X178190000Y-95280000D02*
X177860000Y-95520000D01*
X177860000Y-95040000D01*
X178190000Y-95280000D01*
G36*
X178190000Y-95280000D02*
G01*
X177860000Y-95520000D01*
X177860000Y-95040000D01*
X178190000Y-95280000D01*
G37*
%TO.C,X1*%
D11*
X158983705Y-99787868D02*
X160115076Y-100919239D01*
X159938299Y-98833274D02*
X158983705Y-99787868D01*
%TO.C,U302*%
D13*
X177065000Y-110315000D02*
X177540000Y-110315000D01*
X177065000Y-110790000D02*
X177065000Y-110315000D01*
X177065000Y-113535000D02*
X177065000Y-113060000D01*
X177540000Y-113535000D02*
X177065000Y-113535000D01*
X179810000Y-110315000D02*
X180285000Y-110315000D01*
X180285000Y-110315000D02*
X180285000Y-110790000D01*
X180285000Y-113060000D02*
X180285000Y-113535000D01*
X180285000Y-113535000D02*
X179810000Y-113535000D01*
X181145000Y-112915000D02*
X180815000Y-112675001D01*
X181145000Y-112435000D01*
X181145000Y-112915000D01*
G36*
X181145000Y-112915000D02*
G01*
X180815000Y-112675001D01*
X181145000Y-112435000D01*
X181145000Y-112915000D01*
G37*
%TO.C,J8*%
X159521400Y-116800000D02*
X159521400Y-122360000D01*
X159521400Y-132770000D02*
X159521400Y-125160000D01*
X176251400Y-116800000D02*
X159521400Y-116800000D01*
X176251400Y-116800000D02*
X176251400Y-122360000D01*
X176251400Y-132770000D02*
X159521400Y-132770000D01*
X176251400Y-132770000D02*
X176251400Y-125160000D01*
X176446400Y-120660000D02*
X176946400Y-120160000D01*
X176946400Y-120160000D02*
X176946400Y-121160000D01*
X176946400Y-121160000D02*
X176446400Y-120660000D01*
%TO.C,SW5*%
D14*
X185760000Y-88767500D02*
X185760000Y-89117500D01*
X185760000Y-89117500D02*
X186100000Y-89117500D01*
X185760000Y-95597500D02*
X186130000Y-95597500D01*
X185760000Y-96067500D02*
X185760000Y-95597500D01*
X186100000Y-88767500D02*
X185760000Y-88767500D01*
X186100000Y-96067500D02*
X185760000Y-96067500D01*
X188510000Y-95597500D02*
X188860000Y-95597500D01*
X188540000Y-89117500D02*
X188860000Y-89117500D01*
X188860000Y-88767500D02*
X188860000Y-89577500D01*
X188860000Y-90757500D02*
X188860000Y-94077500D01*
X188860000Y-95257500D02*
X188860000Y-96067500D01*
X192320000Y-88767500D02*
X188540000Y-88767500D01*
X192320000Y-88767500D02*
X192320000Y-96067500D01*
X192320000Y-96067500D02*
X188540000Y-96067500D01*
%TO.C,C49*%
D13*
X106444952Y-88045459D02*
X107694952Y-88045459D01*
X107069952Y-87420459D02*
X107069952Y-88670459D01*
X107934952Y-86609896D02*
X107934952Y-89295459D01*
X107934952Y-86609896D02*
X108999389Y-85545459D01*
X107934952Y-95001022D02*
X107934952Y-92315459D01*
X107934952Y-95001022D02*
X108999389Y-96065459D01*
X108999389Y-85545459D02*
X118454952Y-85545459D01*
X108999389Y-96065459D02*
X118454952Y-96065459D01*
X118454952Y-85545459D02*
X118454952Y-89295459D01*
X118454952Y-96065459D02*
X118454952Y-92315459D01*
D10*
X110012971Y-87623478D02*
G75*
G02*
X116376933Y-87623478I3181981J-3181980D01*
G01*
X116356496Y-93989619D02*
G75*
G02*
X109992534Y-93989619I-3181981J3181980D01*
G01*
%TO.C,SW3*%
D14*
X178132500Y-117860000D02*
X178602500Y-117860000D01*
X178132500Y-118200000D02*
X178132500Y-117860000D01*
X178132500Y-124420000D02*
X178132500Y-120640000D01*
X178602500Y-117860000D02*
X178602500Y-118230000D01*
X178602500Y-120610000D02*
X178602500Y-120960000D01*
X178942500Y-120960000D02*
X178132500Y-120960000D01*
X183442500Y-120960000D02*
X180122500Y-120960000D01*
X185082500Y-117860000D02*
X185082500Y-118200000D01*
X185082500Y-120640000D02*
X185082500Y-120960000D01*
X185432500Y-117860000D02*
X185082500Y-117860000D01*
X185432500Y-118200000D02*
X185432500Y-117860000D01*
X185432500Y-120960000D02*
X184622500Y-120960000D01*
X185432500Y-124420000D02*
X178132500Y-124420000D01*
X185432500Y-124420000D02*
X185432500Y-120640000D01*
%TO.C,D6*%
D11*
X195500000Y-121115000D02*
X195500000Y-122575000D01*
X195500000Y-122575000D02*
X197790000Y-122575000D01*
X197790000Y-121115000D02*
X195500000Y-121115000D01*
%TO.C,J9*%
D13*
X140375000Y-116800000D02*
X140375000Y-122360000D01*
X140375000Y-132770000D02*
X140375000Y-125160000D01*
X157105000Y-116800000D02*
X140375000Y-116800000D01*
X157105000Y-116800000D02*
X157105000Y-122360000D01*
X157105000Y-132770000D02*
X140375000Y-132770000D01*
X157105000Y-132770000D02*
X157105000Y-125160000D01*
X157300000Y-125360000D02*
X157800000Y-124860000D01*
X157800000Y-124860000D02*
X157800000Y-125860000D01*
X157800000Y-125860000D02*
X157300000Y-125360000D01*
%TO.C,J2*%
X106640000Y-134310000D02*
X106640000Y-120000000D01*
X115790000Y-115890000D02*
X112050000Y-115890000D01*
X122360000Y-134310000D02*
X106640000Y-134310000D01*
X122360000Y-134310000D02*
X122360000Y-120000000D01*
X106640000Y-120000000D02*
G75*
G02*
X109548352Y-116069587I4110000J0D01*
G01*
X120366806Y-116477042D02*
G75*
G02*
X122360000Y-120000000I-2116805J-3522957D01*
G01*
%TD*%
%LPC*%
D16*
X115250000Y-113240238D02*
X116000000Y-113990238D01*
X116226060Y-112125000D02*
X117976060Y-113875000D01*
X118226060Y-112125000D02*
X119976060Y-113875000D01*
X120226060Y-112125000D02*
X121976060Y-113875000D01*
X122250000Y-112000000D02*
X123000000Y-112750000D01*
D17*
%TO.C,C25*%
X187000000Y-92500000D03*
X188000000Y-92500000D03*
%TD*%
D18*
%TO.C,C702*%
X182200000Y-100000000D03*
X181200000Y-100000000D03*
%TD*%
D19*
%TO.C,J7*%
X137750000Y-123850000D03*
X124250000Y-123850000D03*
D20*
X127400000Y-117850000D03*
D21*
X134600000Y-117850000D03*
%TD*%
D22*
%TO.C,U1*%
X155714213Y-104363425D03*
X155360660Y-104009872D03*
X155007107Y-103656319D03*
X154653553Y-103302765D03*
X154300000Y-102949212D03*
X153946446Y-102595658D03*
X153592893Y-102242105D03*
X153239340Y-101888552D03*
X152885786Y-101534998D03*
X152532233Y-101181445D03*
X152178680Y-100827892D03*
X151825126Y-100474338D03*
X151471573Y-100120785D03*
X151118019Y-99767231D03*
X150764466Y-99413678D03*
X150410913Y-99060125D03*
D23*
X147688551Y-99060125D03*
X147334998Y-99413678D03*
X146981445Y-99767231D03*
X146627891Y-100120785D03*
X146274338Y-100474338D03*
X145920784Y-100827892D03*
X145567231Y-101181445D03*
X145213678Y-101534998D03*
X144860124Y-101888552D03*
X144506571Y-102242105D03*
X144153018Y-102595658D03*
X143799464Y-102949212D03*
X143445911Y-103302765D03*
X143092357Y-103656319D03*
X142738804Y-104009872D03*
X142385251Y-104363425D03*
D22*
X142385251Y-107085787D03*
X142738804Y-107439340D03*
X143092357Y-107792893D03*
X143445911Y-108146447D03*
X143799464Y-108500000D03*
X144153018Y-108853554D03*
X144506571Y-109207107D03*
X144860124Y-109560660D03*
X145213678Y-109914214D03*
X145567231Y-110267767D03*
X145920784Y-110621320D03*
X146274338Y-110974874D03*
X146627891Y-111328427D03*
X146981445Y-111681981D03*
X147334998Y-112035534D03*
X147688551Y-112389087D03*
D23*
X150410913Y-112389087D03*
X150764466Y-112035534D03*
X151118019Y-111681981D03*
X151471573Y-111328427D03*
X151825126Y-110974874D03*
X152178680Y-110621320D03*
X152532233Y-110267767D03*
X152885786Y-109914214D03*
X153239340Y-109560660D03*
X153592893Y-109207107D03*
X153946446Y-108853554D03*
X154300000Y-108500000D03*
X154653553Y-108146447D03*
X155007107Y-107792893D03*
X155360660Y-107439340D03*
X155714213Y-107085787D03*
%TD*%
D24*
%TO.C,C46*%
X114637500Y-108750000D03*
X114637500Y-110650000D03*
%TD*%
D17*
%TO.C,R806*%
X174900000Y-115500000D03*
X175900000Y-115500000D03*
%TD*%
D25*
%TO.C,C18*%
X155792894Y-110292894D03*
X156500000Y-111000000D03*
%TD*%
D18*
%TO.C,R903*%
X181324998Y-108187500D03*
X180325000Y-108187500D03*
%TD*%
D26*
%TO.C,C34*%
X105500000Y-122600000D03*
X103600000Y-122600000D03*
%TD*%
D27*
%TO.C,U500*%
X167175000Y-109550000D03*
X166525000Y-109550000D03*
X165875000Y-109550000D03*
X165225000Y-109550000D03*
X165225000Y-112450000D03*
X165875000Y-112450000D03*
X166525000Y-112450000D03*
X167175000Y-112450000D03*
D28*
X166200000Y-111000000D03*
%TD*%
D18*
%TO.C,R16*%
X175525000Y-112987500D03*
X174525002Y-112987500D03*
%TD*%
%TO.C,C703*%
X191300000Y-109100000D03*
X190300000Y-109100000D03*
%TD*%
D29*
%TO.C,C800*%
X186900000Y-121200000D03*
X186900000Y-122200000D03*
%TD*%
%TO.C,R26*%
X166187500Y-101365000D03*
X166187500Y-102365000D03*
%TD*%
D18*
%TO.C,R902*%
X181324999Y-109087500D03*
X180325001Y-109087500D03*
%TD*%
D26*
%TO.C,C30*%
X105500000Y-118600000D03*
X103600000Y-118600000D03*
%TD*%
D30*
%TO.C,SW4*%
X194529479Y-117702248D03*
X194529479Y-115702248D03*
X194529479Y-113702248D03*
D31*
X194529479Y-111552248D03*
X194529479Y-119852248D03*
%TD*%
D17*
%TO.C,R700*%
X181200000Y-104600000D03*
X182200000Y-104600000D03*
%TD*%
D18*
%TO.C,C29*%
X178800000Y-105000000D03*
X177800000Y-105000000D03*
%TD*%
D32*
%TO.C,C11*%
X162900000Y-98207106D03*
X162192894Y-97500000D03*
%TD*%
D33*
%TO.C,R39*%
X101567500Y-110835000D03*
X103207500Y-110835000D03*
%TD*%
D18*
%TO.C,R17*%
X175524999Y-111987500D03*
X174525001Y-111987500D03*
%TD*%
D17*
%TO.C,R13*%
X187000000Y-93500000D03*
X188000000Y-93500000D03*
%TD*%
D34*
%TO.C,R21*%
X174500000Y-109100000D03*
X174500000Y-108100000D03*
%TD*%
D17*
%TO.C,C28*%
X178200000Y-100100000D03*
X179200000Y-100100000D03*
%TD*%
D29*
%TO.C,R40*%
X190000000Y-121200000D03*
X190000000Y-122200000D03*
%TD*%
D34*
%TO.C,C44*%
X109075000Y-107870000D03*
X109075000Y-106870000D03*
%TD*%
%TO.C,R2*%
X158300000Y-118200000D03*
X158300000Y-117200000D03*
%TD*%
%TO.C,R9*%
X182100000Y-120100000D03*
X182100000Y-119100000D03*
%TD*%
D35*
%TO.C,U5*%
X148700000Y-115800000D03*
X148700000Y-115000000D03*
X147550000Y-115400000D03*
%TD*%
D36*
%TO.C,C36*%
X138203553Y-98124228D03*
X137496447Y-98831334D03*
%TD*%
D34*
%TO.C,C8*%
X162100000Y-106449999D03*
X162100000Y-105450001D03*
%TD*%
%TO.C,R500*%
X168450000Y-111545000D03*
X168450000Y-110545000D03*
%TD*%
D18*
%TO.C,R25*%
X169700000Y-104200000D03*
X168700000Y-104200000D03*
%TD*%
D29*
%TO.C,R19*%
X174525000Y-110087500D03*
X174525000Y-111087500D03*
%TD*%
D34*
%TO.C,R38*%
X110075000Y-109870000D03*
X110075000Y-108870000D03*
%TD*%
D17*
%TO.C,R28*%
X172500000Y-105200000D03*
X173500000Y-105200000D03*
%TD*%
D37*
%TO.C,C13*%
X136047990Y-100289948D03*
X136755096Y-99582842D03*
%TD*%
D18*
%TO.C,R805*%
X175900000Y-114500000D03*
X174900000Y-114500000D03*
%TD*%
D17*
%TO.C,R30*%
X168700000Y-105200000D03*
X169700000Y-105200000D03*
%TD*%
D34*
%TO.C,C7*%
X187900000Y-122200000D03*
X187900000Y-121200000D03*
%TD*%
D29*
%TO.C,C9*%
X162100000Y-103450001D03*
X162100000Y-104449999D03*
%TD*%
%TO.C,C43*%
X109075000Y-108870000D03*
X109075000Y-109870000D03*
%TD*%
%TO.C,R18*%
X175525000Y-110087500D03*
X175525000Y-111087500D03*
%TD*%
D25*
%TO.C,R4*%
X142192894Y-100892894D03*
X142900000Y-101600000D03*
%TD*%
D29*
%TO.C,C704*%
X193800000Y-100000000D03*
X193800000Y-101000000D03*
%TD*%
D26*
%TO.C,C39*%
X102100000Y-118600000D03*
X100200000Y-118600000D03*
%TD*%
D18*
%TO.C,R713*%
X197950000Y-110600000D03*
X196950000Y-110600000D03*
%TD*%
%TO.C,R711*%
X197700000Y-99900000D03*
X196700000Y-99900000D03*
%TD*%
D25*
%TO.C,C19*%
X157246447Y-107696447D03*
X157953553Y-108403553D03*
%TD*%
D18*
%TO.C,R31*%
X194850000Y-121800000D03*
X193850000Y-121800000D03*
%TD*%
D38*
%TO.C,D701*%
X197720000Y-109350000D03*
X196140000Y-109350000D03*
%TD*%
D26*
%TO.C,C32*%
X105500000Y-120600000D03*
X103600000Y-120600000D03*
%TD*%
D24*
%TO.C,C45*%
X116837500Y-108750000D03*
X116837500Y-110650000D03*
%TD*%
D39*
%TO.C,J800*%
X178896400Y-126795000D03*
X184676400Y-126795000D03*
D40*
X178586400Y-125720000D03*
X179386400Y-125720000D03*
D41*
X180536400Y-125720000D03*
X181536400Y-125720000D03*
X182036400Y-125720000D03*
X183036400Y-125720000D03*
D40*
X184186400Y-125720000D03*
X184986400Y-125720000D03*
X184986400Y-125720000D03*
X184186400Y-125720000D03*
D41*
X183536400Y-125720000D03*
X182536400Y-125720000D03*
X181036400Y-125720000D03*
X180036400Y-125720000D03*
D40*
X179386400Y-125720000D03*
X178586400Y-125720000D03*
D42*
X177466400Y-126295000D03*
D43*
X177466400Y-130475000D03*
D42*
X186106400Y-126295000D03*
D43*
X186106400Y-130475000D03*
%TD*%
D17*
%TO.C,R3*%
X178200000Y-117200000D03*
X179200000Y-117200000D03*
%TD*%
D29*
%TO.C,C700*%
X194800000Y-100000000D03*
X194800000Y-101000000D03*
%TD*%
D17*
%TO.C,C313*%
X172900000Y-114500000D03*
X173900000Y-114500000D03*
%TD*%
D44*
%TO.C,X2*%
X160600000Y-103650001D03*
X160600000Y-106149999D03*
%TD*%
D26*
%TO.C,C31*%
X102100000Y-120600000D03*
X100200000Y-120600000D03*
%TD*%
D18*
%TO.C,R37*%
X105300000Y-110700000D03*
X104300000Y-110700000D03*
%TD*%
%TO.C,R24*%
X171600000Y-104200000D03*
X170600000Y-104200000D03*
%TD*%
D45*
%TO.C,C24*%
X140600000Y-104050000D03*
X139496914Y-102946914D03*
%TD*%
D17*
%TO.C,R706*%
X181200000Y-102000000D03*
X182200000Y-102000000D03*
%TD*%
D46*
%TO.C,D4*%
X129550000Y-99900000D03*
X125250000Y-99900000D03*
%TD*%
D47*
%TO.C,Q700*%
X197750000Y-102662500D03*
X195850000Y-102662500D03*
X196800000Y-104537500D03*
%TD*%
D27*
%TO.C,U501*%
X138575000Y-110800000D03*
X137925000Y-110800000D03*
X137275000Y-110800000D03*
X136625000Y-110800000D03*
X136625000Y-113700000D03*
X137275000Y-113700000D03*
X137925000Y-113700000D03*
X138575000Y-113700000D03*
D28*
X137600000Y-112250000D03*
%TD*%
D18*
%TO.C,R34*%
X101900000Y-124200000D03*
X100900000Y-124200000D03*
%TD*%
D24*
%TO.C,C47*%
X121200000Y-108750000D03*
X121200000Y-110650000D03*
%TD*%
D48*
%TO.C,Y700*%
X178000000Y-101500000D03*
X178000000Y-103700000D03*
X179600000Y-103700000D03*
X179600000Y-101500000D03*
%TD*%
D17*
%TO.C,R807*%
X172900000Y-115500000D03*
X173900000Y-115500000D03*
%TD*%
D18*
%TO.C,R710*%
X197700000Y-100900000D03*
X196700000Y-100900000D03*
%TD*%
D49*
%TO.C,L1*%
X111412500Y-102385000D03*
X120912500Y-102385000D03*
%TD*%
D17*
%TO.C,R701*%
X181200000Y-105800000D03*
X182200000Y-105800000D03*
%TD*%
D46*
%TO.C,D3*%
X107150000Y-99600000D03*
X102850000Y-99600000D03*
%TD*%
D50*
%TO.C,U2*%
X104650000Y-107400000D03*
D51*
X102087500Y-105495000D03*
X102087500Y-106765000D03*
X102087500Y-108035000D03*
X102087500Y-109305000D03*
X107212500Y-109305000D03*
X107212500Y-108035000D03*
X107212500Y-106765000D03*
X107212500Y-105495000D03*
%TD*%
D52*
%TO.C,J1*%
X124000000Y-91040000D03*
X174000000Y-91040000D03*
D53*
X129950000Y-93280000D03*
D54*
X132490000Y-93280000D03*
X135030000Y-93280000D03*
X137570000Y-93280000D03*
X140110000Y-93280000D03*
X142650000Y-93280000D03*
X145190000Y-93280000D03*
X147730000Y-93280000D03*
X150270000Y-93280000D03*
X152810000Y-93280000D03*
X155350000Y-93280000D03*
X157890000Y-93280000D03*
X160430000Y-93280000D03*
X162970000Y-93280000D03*
X165510000Y-93280000D03*
X168050000Y-93280000D03*
X129950000Y-90740000D03*
X132490000Y-90740000D03*
X135030000Y-90740000D03*
X137570000Y-90740000D03*
X140110000Y-90740000D03*
X142650000Y-90740000D03*
X145190000Y-90740000D03*
X147730000Y-90740000D03*
X150270000Y-90740000D03*
X152810000Y-90740000D03*
X155350000Y-90740000D03*
X157890000Y-90740000D03*
X160430000Y-90740000D03*
X162970000Y-90740000D03*
X165510000Y-90740000D03*
X168050000Y-90740000D03*
X129950000Y-88200000D03*
X132490000Y-88200000D03*
X135030000Y-88200000D03*
X137570000Y-88200000D03*
X140110000Y-88200000D03*
X142650000Y-88200000D03*
X145190000Y-88200000D03*
X147730000Y-88200000D03*
X150270000Y-88200000D03*
X152810000Y-88200000D03*
X155350000Y-88200000D03*
X157890000Y-88200000D03*
X160430000Y-88200000D03*
X162970000Y-88200000D03*
X165510000Y-88200000D03*
X168050000Y-88200000D03*
%TD*%
D34*
%TO.C,R804*%
X159900000Y-113300000D03*
X159900000Y-112300000D03*
%TD*%
D17*
%TO.C,C900*%
X179725000Y-115587500D03*
X180725000Y-115587500D03*
%TD*%
D37*
%TO.C,C37*%
X136696447Y-101031334D03*
X137403553Y-100324228D03*
%TD*%
D55*
%TO.C,FB401*%
X136755061Y-97672720D03*
X135637833Y-98789948D03*
%TD*%
D29*
%TO.C,R714*%
X195200000Y-105100000D03*
X195200000Y-106100000D03*
%TD*%
%TO.C,C904*%
X178725000Y-114587500D03*
X178725000Y-115587500D03*
%TD*%
%TO.C,R27*%
X191000000Y-121200000D03*
X191000000Y-122200000D03*
%TD*%
D17*
%TO.C,R802*%
X155500000Y-113400000D03*
X156500000Y-113400000D03*
%TD*%
D29*
%TO.C,C705*%
X180200000Y-105700000D03*
X180200000Y-106700000D03*
%TD*%
D56*
%TO.C,U802*%
X170600000Y-112737500D03*
D57*
X170200000Y-112637500D03*
D58*
X169537500Y-112900000D03*
X169537500Y-113300000D03*
X169537500Y-113700000D03*
D57*
X170200000Y-113962500D03*
X170600000Y-113962500D03*
D58*
X171262500Y-113700000D03*
X171262500Y-113300000D03*
X171262500Y-112900000D03*
%TD*%
D26*
%TO.C,C35*%
X102100000Y-116600000D03*
X100200000Y-116600000D03*
%TD*%
D59*
%TO.C,U6*%
X174887500Y-102605000D03*
X174887500Y-101335000D03*
X174887500Y-100065000D03*
X174887500Y-98795000D03*
X167712500Y-98795000D03*
X167712500Y-100065000D03*
X167712500Y-101335000D03*
X167712500Y-102605000D03*
%TD*%
D17*
%TO.C,R907*%
X174500002Y-107200000D03*
X175500000Y-107200000D03*
%TD*%
D36*
%TO.C,C22*%
X141557106Y-104892894D03*
X140850000Y-105600000D03*
%TD*%
%TO.C,C15*%
X138857106Y-98870675D03*
X138150000Y-99577781D03*
%TD*%
D34*
%TO.C,R708*%
X187800000Y-110000000D03*
X187800000Y-109000000D03*
%TD*%
D60*
%TO.C,C50*%
X133132500Y-108300000D03*
X125132500Y-108300000D03*
%TD*%
D61*
%TO.C,D5*%
X189200000Y-113850000D03*
X189200000Y-118150000D03*
%TD*%
D35*
%TO.C,U4*%
X162505642Y-114788777D03*
X162505642Y-113988777D03*
X161355642Y-114388777D03*
%TD*%
D62*
%TO.C,D700*%
X196200000Y-107640000D03*
X197780000Y-107640000D03*
%TD*%
D63*
%TO.C,LED1*%
X190833859Y-127000000D03*
X188293859Y-127000000D03*
X190833859Y-124460000D03*
X188293859Y-124460000D03*
%TD*%
D17*
%TO.C,R906*%
X174500001Y-106300000D03*
X175499999Y-106300000D03*
%TD*%
D64*
%TO.C,H1*%
X103000000Y-86000000D03*
D65*
X103000000Y-86000000D03*
%TD*%
D66*
%TO.C,U700*%
X183849095Y-100625000D03*
X183849095Y-101125000D03*
X183849095Y-101625000D03*
X183849095Y-102125000D03*
X183849095Y-102625000D03*
X183849095Y-103125000D03*
X183849095Y-103625000D03*
X183849095Y-104125000D03*
X183849095Y-104625000D03*
X183849095Y-105125000D03*
X183849095Y-105625000D03*
X183849095Y-106125000D03*
D67*
X185261595Y-107537500D03*
X185761595Y-107537500D03*
X186261595Y-107537500D03*
X186761595Y-107537500D03*
X187261595Y-107537500D03*
X187761595Y-107537500D03*
X188261595Y-107537500D03*
X188761595Y-107537500D03*
X189261595Y-107537500D03*
X189761595Y-107537500D03*
X190261595Y-107537500D03*
X190761595Y-107537500D03*
D66*
X192174095Y-106125000D03*
X192174095Y-105625000D03*
X192174095Y-105125000D03*
X192174095Y-104625000D03*
X192174095Y-104125000D03*
X192174095Y-103625000D03*
X192174095Y-103125000D03*
X192174095Y-102625000D03*
X192174095Y-102125000D03*
X192174095Y-101625000D03*
X192174095Y-101125000D03*
X192174095Y-100625000D03*
D67*
X190761595Y-99212500D03*
X190261595Y-99212500D03*
X189761595Y-99212500D03*
X189261595Y-99212500D03*
X188761595Y-99212500D03*
X188261595Y-99212500D03*
X187761595Y-99212500D03*
X187261595Y-99212500D03*
X186761595Y-99212500D03*
X186261595Y-99212500D03*
X185761595Y-99212500D03*
X185261595Y-99212500D03*
%TD*%
D18*
%TO.C,R703*%
X182200000Y-106700000D03*
X181200000Y-106700000D03*
%TD*%
D34*
%TO.C,R7*%
X188900000Y-122200000D03*
X188900000Y-121200000D03*
%TD*%
D29*
%TO.C,R704*%
X186300000Y-109000000D03*
X186300000Y-110000000D03*
%TD*%
D18*
%TO.C,C69*%
X180700000Y-97200000D03*
X179700000Y-97200000D03*
%TD*%
%TO.C,C27*%
X167512500Y-103735000D03*
X166512500Y-103735000D03*
%TD*%
D32*
%TO.C,R11*%
X157800000Y-109700000D03*
X157092894Y-108992894D03*
%TD*%
D29*
%TO.C,R5*%
X158300000Y-128600000D03*
X158300000Y-129600000D03*
%TD*%
D37*
%TO.C,C20*%
X144896447Y-98603553D03*
X145603553Y-97896447D03*
%TD*%
D17*
%TO.C,R29*%
X170600000Y-105200000D03*
X171600000Y-105200000D03*
%TD*%
D18*
%TO.C,C706*%
X182200000Y-103600000D03*
X181200000Y-103600000D03*
%TD*%
D29*
%TO.C,C2*%
X158300000Y-121100000D03*
X158300000Y-122100000D03*
%TD*%
D18*
%TO.C,R22*%
X156600000Y-100950000D03*
X155600000Y-100950000D03*
%TD*%
%TO.C,C312*%
X158500000Y-112400000D03*
X157500000Y-112400000D03*
%TD*%
D68*
%TO.C,D1*%
X110600000Y-113800000D03*
X113400000Y-113800000D03*
%TD*%
D69*
%TO.C,U401*%
X168400000Y-114850000D03*
X167600000Y-114850000D03*
X168000000Y-116000000D03*
%TD*%
D25*
%TO.C,R10*%
X156446447Y-109646447D03*
X157153553Y-110353553D03*
%TD*%
%TO.C,R1*%
X142846447Y-100246447D03*
X143553553Y-100953553D03*
%TD*%
D17*
%TO.C,R707*%
X197000000Y-106350000D03*
X198000000Y-106350000D03*
%TD*%
D25*
%TO.C,C10*%
X163592894Y-98900000D03*
X164300000Y-99607106D03*
%TD*%
D34*
%TO.C,C4*%
X135325000Y-112800000D03*
X135325000Y-111800000D03*
%TD*%
D17*
%TO.C,C902*%
X179725000Y-114587500D03*
X180725000Y-114587500D03*
%TD*%
D62*
%TO.C,D301*%
X196200000Y-123600000D03*
X197780000Y-123600000D03*
%TD*%
D70*
%TO.C,Y900*%
X183950000Y-113800000D03*
X183950000Y-111600000D03*
X182250000Y-111600000D03*
X182250000Y-113800000D03*
%TD*%
D18*
%TO.C,R702*%
X188300000Y-97800000D03*
X187300000Y-97800000D03*
%TD*%
D26*
%TO.C,C38*%
X105500000Y-116600000D03*
X103600000Y-116600000D03*
%TD*%
D24*
%TO.C,C42*%
X119000000Y-108750000D03*
X119000000Y-110650000D03*
%TD*%
%TO.C,C41*%
X112400000Y-108750000D03*
X112400000Y-110650000D03*
%TD*%
D71*
%TO.C,U801*%
X157800000Y-114200000D03*
D72*
X157700000Y-114600000D03*
D73*
X157962500Y-115262500D03*
X158362500Y-115262500D03*
X158762500Y-115262500D03*
D72*
X159025000Y-114600000D03*
X159025000Y-114200000D03*
D73*
X158762500Y-113537500D03*
X158362500Y-113537500D03*
X157962500Y-113537500D03*
%TD*%
D34*
%TO.C,R20*%
X175500000Y-109100000D03*
X175500000Y-108100000D03*
%TD*%
D74*
%TO.C,H2*%
X195000000Y-86000000D03*
%TD*%
D75*
%TO.C,U15*%
X179200000Y-95300000D03*
X181500000Y-95300000D03*
D76*
X181500000Y-89000000D03*
D75*
X183800000Y-95300000D03*
%TD*%
D18*
%TO.C,R15*%
X181100000Y-119100000D03*
X180100000Y-119100000D03*
%TD*%
D77*
%TO.C,X1*%
X160199929Y-99844437D03*
X161755563Y-101400071D03*
X163000071Y-100155563D03*
X161444437Y-98599929D03*
%TD*%
D18*
%TO.C,C6*%
X138125000Y-109600000D03*
X137125000Y-109600000D03*
%TD*%
D26*
%TO.C,C33*%
X102100000Y-122600000D03*
X100200000Y-122600000D03*
%TD*%
D17*
%TO.C,C12*%
X156650000Y-99900000D03*
X157650000Y-99900000D03*
%TD*%
D34*
%TO.C,R501*%
X139825000Y-112800000D03*
X139825000Y-111800000D03*
%TD*%
D78*
%TO.C,U302*%
X180137500Y-112675000D03*
X180137500Y-112175000D03*
X180137500Y-111675000D03*
X180137500Y-111175000D03*
D79*
X179425000Y-110462500D03*
X178925000Y-110462500D03*
X178425000Y-110462500D03*
X177925000Y-110462500D03*
D78*
X177212500Y-111175000D03*
X177212500Y-111675000D03*
X177212500Y-112175000D03*
X177212500Y-112675000D03*
D79*
X177925000Y-113387500D03*
X178425000Y-113387500D03*
X178925000Y-113387500D03*
X179425000Y-113387500D03*
D80*
X178675000Y-111925000D03*
%TD*%
D25*
%TO.C,C21*%
X157192894Y-104392894D03*
X157900000Y-105100000D03*
%TD*%
D74*
%TO.C,H4*%
X195000000Y-128000000D03*
%TD*%
D18*
%TO.C,R33*%
X104700000Y-124200000D03*
X103700000Y-124200000D03*
%TD*%
D81*
%TO.C,J8*%
X174236400Y-127200000D03*
X161536400Y-127200000D03*
D82*
X171446400Y-124660000D03*
D83*
X170430400Y-122880000D03*
X169414400Y-124660000D03*
X168398400Y-122880000D03*
X167382400Y-124660000D03*
X166366400Y-122880000D03*
X165350400Y-124660000D03*
X164334400Y-122880000D03*
X174746400Y-118060000D03*
X172456400Y-118060000D03*
X163316400Y-118060000D03*
X161026400Y-118060000D03*
D84*
X176016400Y-123770000D03*
X159756400Y-123770000D03*
%TD*%
D17*
%TO.C,R308*%
X193850000Y-123550000D03*
X194850000Y-123550000D03*
%TD*%
D85*
%TO.C,SW5*%
X189820000Y-94667500D03*
X189820000Y-90167500D03*
D86*
X187320000Y-95917500D03*
X187320000Y-88917500D03*
%TD*%
D32*
%TO.C,C16*%
X140953553Y-102753553D03*
X140246447Y-102046447D03*
%TD*%
D87*
%TO.C,C49*%
X109194954Y-90805459D03*
D88*
X110694952Y-90805459D03*
X115694952Y-90805459D03*
D89*
X117200000Y-90800000D03*
%TD*%
D18*
%TO.C,R12*%
X181100000Y-120100000D03*
X180100000Y-120100000D03*
%TD*%
%TO.C,R803*%
X156500000Y-112400000D03*
X155500000Y-112400000D03*
%TD*%
D29*
%TO.C,R716*%
X193800000Y-104100000D03*
X193800000Y-105100000D03*
%TD*%
D85*
%TO.C,SW3*%
X179532500Y-121920000D03*
X184032500Y-121920000D03*
D86*
X178282500Y-119420000D03*
X185282500Y-119420000D03*
%TD*%
D18*
%TO.C,C5*%
X166500000Y-108345000D03*
X165500000Y-108345000D03*
%TD*%
D62*
%TO.C,D6*%
X196200000Y-121845000D03*
X197780000Y-121845000D03*
%TD*%
D26*
%TO.C,C40*%
X107550000Y-103200000D03*
X105650000Y-103200000D03*
%TD*%
D34*
%TO.C,R715*%
X193800000Y-107000000D03*
X193800000Y-106000000D03*
%TD*%
%TO.C,C3*%
X163850000Y-111445000D03*
X163850000Y-110445000D03*
%TD*%
D17*
%TO.C,R705*%
X181200000Y-101000000D03*
X182200000Y-101000000D03*
%TD*%
D18*
%TO.C,R23*%
X173500000Y-104200000D03*
X172500000Y-104200000D03*
%TD*%
%TO.C,C74*%
X183800000Y-97200000D03*
X182800000Y-97200000D03*
%TD*%
D36*
%TO.C,C17*%
X145853553Y-112746447D03*
X145146447Y-113453553D03*
%TD*%
%TO.C,C23*%
X146553553Y-113446447D03*
X145846447Y-114153553D03*
%TD*%
D17*
%TO.C,R14*%
X187000000Y-91500000D03*
X188000000Y-91500000D03*
%TD*%
%TO.C,R709*%
X196700000Y-99000000D03*
X197700000Y-99000000D03*
%TD*%
D18*
%TO.C,C26*%
X181100000Y-118100000D03*
X180100000Y-118100000D03*
%TD*%
D34*
%TO.C,R8*%
X183100000Y-120100000D03*
X183100000Y-119100000D03*
%TD*%
%TO.C,R6*%
X158300000Y-120100000D03*
X158300000Y-119100000D03*
%TD*%
%TO.C,C1*%
X158300000Y-127700000D03*
X158300000Y-126700000D03*
%TD*%
D18*
%TO.C,C701*%
X184400000Y-98600000D03*
X183400000Y-98600000D03*
%TD*%
D81*
%TO.C,J9*%
X155090000Y-127200000D03*
X142390000Y-127200000D03*
D82*
X152300000Y-124660000D03*
D83*
X151284000Y-122880000D03*
X150268000Y-124660000D03*
X149252000Y-122880000D03*
X148236000Y-124660000D03*
X147220000Y-122880000D03*
X146204000Y-124660000D03*
X145188000Y-122880000D03*
X155600000Y-118060000D03*
X153310000Y-118060000D03*
X144170000Y-118060000D03*
X141880000Y-118060000D03*
D84*
X156870000Y-123770000D03*
X140610000Y-123770000D03*
%TD*%
D74*
%TO.C,H3*%
X103000000Y-128000000D03*
%TD*%
D19*
%TO.C,J2*%
X121250000Y-123850000D03*
X107750000Y-123850000D03*
D20*
X118100000Y-117850000D03*
D21*
X110900000Y-117850000D03*
%TD*%
D18*
%TO.C,R712*%
X194700000Y-102100000D03*
X193700000Y-102100000D03*
%TD*%
D90*
%TO.C,R36*%
X108007500Y-110835000D03*
X106367500Y-110835000D03*
%TD*%
D91*
%TO.C,J3*%
X194300000Y-96640000D03*
D92*
X194300000Y-95369999D03*
X194300000Y-94100000D03*
X194300000Y-92830000D03*
X194300000Y-91560000D03*
X194300000Y-90290001D03*
%TD*%
%LPD*%
M02*
